<?xml version="1.0" encoding="UTF-8"?>
<svg id="Layer_2" data-name="Layer 2" xmlns="http://www.w3.org/2000/svg" viewBox="0 0 64.48 77.31">
  <defs>
    <style>
      .cls-1 {
        fill: #8794b4;
      }

      .cls-2 {
        fill: #dedede;
      }

      .cls-3 {
        fill: #dfe0e0;
      }

      .cls-4 {
        fill: #8d99bd;
      }

      .cls-5 {
        fill: #0e090b;
      }

      .cls-6 {
        fill: #e0e3e3;
      }
    </style>
  </defs>
  <g id="Layer_1-2" data-name="Layer 1">
    <path class="cls-5" d="M64.28,43.69c0-9.9.02-19.8.12-29.7,0-1.81.05-3.62.08-5.43-1.42-5.68-6.04-11.14-11.96-7.25-2.2,1.45-2.06,4.3-4.1,5.83-11.72-8.43-24.7-2.98-31.33,8.75-1.04,1.85-2.93,7.96-3.3,8.2-.81.54-6.55.35-9.85,2.65-6.45,4.49-4.52,15.72,2.23,18.7,1.63.72,4.36.53,5.26,1.74,1.14,1.51,1.74,6.86,2.69,9.31,5.05,12.92,15.91,23.09,30.48,16.93,1.1-.46,4.09-3.45,5.27-2.19,1.32,1.41.27,5.82,5.51,6.07,5.14.25,6.95-2.83,8.98-6.67-.09-8.98-.1-17.95-.1-26.93Z"/>
    <path class="cls-3" d="M47.92,31.21c-.25,5.88-.67,11.77-1.24,17.65-19.3,15.75-33.97-11.81-25.76-28.65.3-.6.19-1.77.75-2.7,5.56-9.11,14.6-13.72,24.2-6.75,5.61,4.08,2.21,13.88,2.05,20.45Z"/>
    <path class="cls-4" d="M47.92,31.21c-.11,4.83.84,33.42-.17,34.84-.18.25-4.54,3.12-5.1,3.39-15.16,7.26-25.67-12.15-26.75-24.72-.86-9.95.7-15.98,5.02-24.52-3.38,7.78,1.64,27.84,9.94,30.56,5.35,1.75,14.46.04,15.86-6.25.94-4.21-1.11-9.56,1.19-13.31Z"/>
    <path class="cls-1" d="M60.92,26.21c1.7.95.98,3.83,1,5.5.1,9.88-.11,22.16-1.09,31.91-.38,3.74-1.31,9.18-5.91,9.58-2.71-10.97-3.42-23.14-3.03-34.53.06-1.61.99-3.15,1.02-4.47,1.56-.66,3.49-.77,5.77-.34-.37-4.06.37-6.61,2.23-7.66Z"/>
    <path class="cls-2" d="M59.92,10.21c.26,5.1.6,10.1,1,15,0,.33,0,.67,0,1-.03,1.65.27,8.64-.07,8.93-1.41,1.2-6.55,1.24-7.93-.93.16-6.99-1.16-19.23.19-25.31.42-1.89,1.92-3.43,3.31-4.68,2.38,1.66,2.72,3.52,3.5,5.99Z"/>
    <path class="cls-6" d="M11.91,29.21c.35,3.33-.27,6.29-1.01,9.5-.23.99.73,3.34-1.47,2.49-7.4-2.86-6.19-13.2,2.48-11.99Z"/>
    <path class="cls-1" d="M60.92,25.21c-.84.14-.95-.77-1-1.48-.28-4.48.19-9.05,0-13.52,1.54,4.88,1.08,9.76,1,15Z"/>
  </g>
</svg>