<?xml version="1.0" encoding="UTF-8"?>
<svg id="Layer_2" data-name="Layer 2" xmlns="http://www.w3.org/2000/svg" viewBox="0 0 903.98 77.31">
  <defs>
    <style>
      .cls-1 {
        fill: #fdfcfd;
      }

      .cls-2 {
        fill: #3b58a2;
      }

      .cls-3 {
        fill: #fbfafb;
      }

      .cls-4 {
        fill: #fafafa;
      }

      .cls-5 {
        fill: #7f8289;
      }

      .cls-6 {
        fill: #9e2726;
      }

      .cls-7 {
        fill: #2c427a;
      }

      .cls-8 {
        fill: #8794b4;
      }

      .cls-9 {
        fill: #a12424;
      }

      .cls-10 {
        fill: #fbfbfb;
      }

      .cls-11 {
        fill: #8793b5;
      }

      .cls-12 {
        fill: #dedede;
      }

      .cls-13 {
        fill: #eb1f25;
      }

      .cls-14 {
        fill: #3f5eab;
      }

      .cls-15 {
        fill: #fbfbfa;
      }

      .cls-16 {
        fill: #e71f25;
      }

      .cls-17 {
        fill: #dfe0e0;
      }

      .cls-18 {
        fill: #dcdddc;
      }

      .cls-19 {
        fill: #fafbfc;
      }

      .cls-20 {
        fill: #ab2731;
      }

      .cls-21 {
        fill: #faf5f6;
      }

      .cls-22 {
        fill: #ae3435;
      }

      .cls-23 {
        fill: #ec1f25;
      }

      .cls-24 {
        fill: #fbfbfc;
      }

      .cls-25 {
        fill: #8d99bd;
      }

      .cls-26 {
        fill: #ea1f25;
      }

      .cls-27 {
        fill: #dee0e1;
      }

      .cls-28 {
        fill: #0e090b;
      }

      .cls-29 {
        fill: #fcfbfb;
      }

      .cls-30 {
        fill: #fcfcfc;
      }

      .cls-31 {
        fill: #ad2426;
      }

      .cls-32 {
        fill: #ab2627;
      }

      .cls-33 {
        fill: #fcfafb;
      }

      .cls-34 {
        fill: #8c9bbf;
      }

      .cls-35 {
        fill: #e91f25;
      }

      .cls-36 {
        fill: #ae2426;
      }

      .cls-37 {
        fill: #e0e3e3;
      }

      .cls-38 {
        fill: #fbfcfc;
      }

      .cls-39 {
        fill: #405eab;
      }
    </style>
  </defs>
  <g id="Layer_1-2" data-name="Layer 1">
    <g>
      <path class="cls-28" d="M64.94,12.19h773.96c.43-11.98,10.47-17.62,16.51-5.04,12.93-9.11,25.79-1.92,32.39,10.69.7,1.34,1.96,6.08,2.24,6.27.52.35,3.4.09,4.94.55,11.48,3.4,11.86,15.11,1.86,20.97-1.29.75-4.3,1.24-4.73,1.77-.56.69-1.66,7.1-2.4,9.09-4.87,12.96-16.08,23.02-30.48,16.93-1.1-.46-4.09-3.45-5.27-2.19-1.32,1.41-.28,5.82-5.51,6.07-5.75.28-6.78-3.64-9.48-7.61-257.88-.8-516.18-.77-774.06-.01-2.25,4.27-3.91,7.89-9.47,7.62-5.24-.25-4.19-4.66-5.51-6.07-1.18-1.26-4.18,1.73-5.27,2.19-14.57,6.16-25.43-4.01-30.48-16.93-.96-2.45-1.55-7.79-2.69-9.31-.91-1.2-3.64-1.02-5.26-1.74-6.74-2.98-8.67-14.2-2.23-18.7,3.3-2.3,9.03-2.1,9.85-2.65.37-.25,2.26-6.36,3.3-8.2C23.72,4.16,36.71-1.29,48.43,7.15c2.03-1.53,1.89-4.38,4.1-5.83,7.21-4.74,12.49,4.36,12.41,10.87Z"/>
      <path class="cls-26" d="M704.92,17.21c8.5,2.05,15.37,8.27,20.98,14.81,7.78,12.88,17.65,22.51,29.6,28.87l.41,2.32c-5.07,1.98-11.11.71-16.52.98-3.05.15-5.85.98-9.48,1.02l-.76-1.44c-9.32-2.23-16.99-9.44-23.41-16.34-7.26-10.19-15.83-18.67-25.71-25.45l-1.12-2.77c8.34-1.16,17.32-1.75,26-2Z"/>
      <path class="cls-29" d="M271.92,19.21c6.91.23,12.92,3.79,18.05,10.67,9.92,14.22,22.28,25.03,37.08,32.44,1.16,1.84-.3,2.37-2.12,2.89-7.54.2-21.13.87-28-1-7.34.57-11.62-4.22-16.01-9.43-9.76-15.83-22.59-25.66-37.94-35.11l-.05-2.45c9.45-.06,20.06-.98,29,2Z"/>
      <path class="cls-35" d="M297.92,17.21c9.26,1.86,16.76,8.65,22.71,15.71,6.81,11,15.24,19.89,25.27,26.68l1.03,2.62c.55,3.02-1.53,1.94-3.47,2-6.25.2-12.33.84-18.53,1,1.8-2.75.9-1.5-1-2.47-5.17-2.64-10.54-5.27-15.03-9.01-12.08-10.09-22.06-29.54-36.98-34.52,1.56-.95,5.88-1.88,7.59-1.97,3.35-.16,8.46,1.24,12.95,1.01,2.07-.11,3.93-1,5.45-1.05Z"/>
      <path class="cls-10" d="M372.92,18.21l1,1c.4.1,1.6.1,2,0,5.91,1.23,10.92,4.69,15.01,10.37,8.11,11.68,17.97,20.96,29.55,27.84l1.44,2.79,1,1c.33-.82.66-.82,1,0,3.43.19,5.54,1.41,6.33,3.67-8.01-.37-15.79-.26-23.33.33-1.72-.12-5.49-.59-7-1-8.46.23-13.92-4.35-18.89-10.7-9-15.07-21.04-24.54-35.89-33.47l-.22-2.84c9.34,0,18.78-.47,28,1Z"/>
      <path class="cls-15" d="M675.92,18.21l1,1c.52.09,1.46.08,2,0,15.39,6.9,22.95,23.4,35.51,33.99,5.06,4.27,12,8.76,18.49,10.01l-3,1.99c-8.8.1-17.94-1.92-27-1-7.31.32-11.69-4.69-16.03-9.91-9.4-15.43-21.96-25.82-37.72-34.12-1.08-.62-.75-1.77-.25-2.96,9.03,0,18.1-.5,27,1Z"/>
      <path class="cls-4" d="M781.92,19.21c6.22,1.46,11.45,5.22,15.7,11.28,10.65,13.63,21.56,25.62,37.91,31.68.89,1.58.15,2.64-1.6,2.04-8.31-.86-19.11,1.24-27,0-8.85.13-14.73-3.78-20.01-10.85-9.34-14.64-20.7-25.29-36.14-33.32-1.14-1.9.26-2.42,2.15-2.83,5.92.04,12.76-.51,18.52-.02,3.27.28,7.43,2.15,10.48,2.02Z"/>
      <path class="cls-29" d="M576.92,19.21c6.81.47,12.67,4.17,17.58,11.1,8.9,12.86,19.91,22.86,33.04,30l1.37,2.89c1.55-.75,2.31-.03,1.36,1.46-8.2.33-16.32.18-24.36-.46-1.54-.06-3.7.28-5,0-7.46.26-11.3-4.12-15.94-9.45-9.51-16.35-22.69-25.43-37.99-35.09l-.07-2.46c9.25,0,21.36-1.04,30,2Z"/>
      <path class="cls-15" d="M162.92,17.21l2,1c.63.07,1.36.02,2,0l9.28,1.81c.69.68,1.26,1.74,1.72,3.19,2.6-.77,5.06.34,7.39,3.35,9.39,12.19,19.98,22.73,31.77,31.63,7.77,3.19,9.38,5.53,4.84,7.02-2.44-.12-4.52-.97-6.48-1.02-5.63-.15-15.76,1.02-20.52.02-7.33.16-12.1-4.26-16.41-9.89-9.31-14.9-22.27-25.85-37.74-34.29-1.14-1.9.25-2.43,2.15-2.83,6.63,0,13.38-.26,20,0Z"/>
      <path class="cls-13" d="M247.92,63.21c-5.32,1.79-11.01.73-16.52.98-3.12.14-5.66,1.21-9.48,1.02l1.49-2c-3.4-.86-6.46-2.72-9.42-4.58-15.88-9.96-22.87-26.78-36.07-35.43-2.07-1.8-2.56-3.28-1.46-4.41l11.77-.68c3.6.55,6.17.25,7.69-.91.33,0,.67,0,1,0,9.21,2.74,17.01,10.42,23.45,17.44,7.14,12.39,16.49,21.39,28.03,27l-.47,1.57Z"/>
      <path class="cls-30" d="M618.92,17.21l3,1c.78.11,2.23.12,3,0,9.22.33,16.98,6.07,23.2,12.51,10.02,13.09,20.22,24.11,35.16,31.55,2.19,3.61-10.86,2.75-13.36,1.94-.67,0-1.33-.02-2,0-7.17-.07-14.27-.7-21.29-1.89l-3.71-4.11c-3.05-.45-5.9-2.47-8.52-6.06-9.22-12.69-17.9-24.22-31.57-32.23l.09-2.7c5.21-.15,10.8-.19,16,0Z"/>
      <path class="cls-10" d="M469.92,18.21c6.34.07,12.32,1.76,16,7l2.48.04c9.2,10.33,18.76,20.34,28.68,30.02l.85,2.94c2.02-1.19,11.53,6.39,9.38,6.58-5.96-.32-11.76-.18-17.38.42-2.33-.15-4.75-.45-7-1-9.55.59-15.72-5.4-21.51-12.21-9.29-13.36-19.15-24.17-34.21-31.55l-1.27-3.25c5.72-.03,19.81-1.01,24,1Z"/>
      <path class="cls-24" d="M217.92,18.21c10.01-.65,16.39,5.26,23.01,11.78,7.68,10.21,16.47,19.07,26.35,26.58,14.62,6.96,11.74,9.79-3.36,7.64-.66-.03-1.34.03-2,0l-2-1c-3.57-.25-8.92.66-12,0-.06-.01-.19-.68-.7-.8-15.9-3.95-20.9-18.6-30.78-29.22-5.78-6.22-13.16-10.49-19.52-15.98,6.79.1,14.44-.61,21,1Z"/>
      <path class="cls-38" d="M419.92,17.21l1,1c.81.11,2.18.1,3,0,8.94.33,14.38,5.59,20.43,11.81,10.43,13.56,20.98,25.13,36.89,32.22,2.36,3.67-11.69,2.76-14.32,1.97-.33,0-.67,0-1,0-5.62-.97-11.42-1.28-17.41-.95-2.09-.3-6.88-3.74-9.29-5.57-3.45-2.62-8.4-6.57-9.3-10.47l-1-1c-1.45.19-2.85-1.75-2-3l-1-1c-2.74-1.54-5.51-4.91-6-8l-1-1c-2.13-.6-5.52-3.85-6-6l-1-1c-1.69.39-3.03-.61-4-3-3.71.97-8.05-2.17-8-6,6.34-.18,13.74-.38,20,0Z"/>
      <path class="cls-13" d="M602.92,17.21c3.79,4.03,9.3,6.4,13.49,10.01,7.24,6.22,12.57,15.12,18.51,22.49,2.43,3.01,5.65,5.14,7.99,8.51,1.04.55,5.45,5.55,3.88,5.75-5.54.71-12.49.23-17.88-.75-5.62-2.68-11.69-6.01-16.49-10.01-11.14-9.25-22.09-29.28-35.51-33.99,6.04-2.67,12.81-.67,19.54-.95,2.33-.1,4.24-.98,6.46-1.05Z"/>
      <path class="cls-19" d="M517.92,17.21l2,1c1,.05,2-.04,3,0,9.2.95,16.05,4.8,22.35,11.92,10.49,12.93,20.66,24.75,35.99,32.12,2.26,3.63-10.85,2.78-13.34,1.95-4.65.03-9.35-.13-14,0-5.56,0-9.56-2-12-6-5.63-1.61-11.47-8.2-12-14-1.34-.11-2.74-1.75-2-3l-1-1c-5.08-4.84-10.08-9.84-15-15l-1-1c-.87.68-1.85.05-2-1l-1-1c-2.54-.66-7.9-2.49-8-5,5.98.02,12.02-.12,18,0Z"/>
      <path class="cls-15" d="M317.92,17.21l1,1c.66.13,2.33.12,3,0,13.02,1.23,22.82,13.73,29.98,23.7,7.53,8.74,17.08,14.99,27.25,20.25,3.09,3.74-11.2,3.14-13.23,2.04-5.75-.76-10.65-.46-16-1l-2-1c-.31-.1-.72.11-1,0-15.38-5.97-22.33-24.22-33.98-34.52-4.56-4.03-10.18-6.85-15.02-10.48,6.23-.19,13.88-.45,20,0Z"/>
      <path class="cls-3" d="M727.92,18.21c8.16-.63,13.62,4.88,18.91,10.33,10.99,13.85,22.07,26.03,38.41,33.7,2.42,3.94-10.77,2.81-13.33,1.96-5.2-.69-11.94-.21-16-1-.32-.06-5.16-2.18-5.92-2.58-13.8-7.32-20.59-24.31-32.59-34.41-3.92-3.3-8.86-5.5-12.49-9.01,6.4-.18,17.13-.71,23,1Z"/>
      <path class="cls-33" d="M115.92,18.21l2,1c.34,0,.86.09,1,0,6.67-1.11,14.93,5.39,19.72,10.15,10.19,13.26,21.08,25.52,36.57,32.87,2.44,3.6-10.83,2.86-13.28,1.99-4.65.04-9.35-.12-14,0l-8.43-1.47c-4.39-4.7-8.91-9.54-13.57-14.53-7.28-9.6-14.91-19.09-25.06-25.84-6.67-3.05-7.98-4.77-3.94-5.16,6.6.14,12.46.56,19,1Z"/>
      <path class="cls-39" d="M648.92,17.21c3.1,3.37,8.12,5.03,11.94,7.56,4.87,3.23,12.31,8.67,16.05,12.95,8.16,9.34,13.16,21.74,26.01,26.49-9.05,1.46-18.32,1.08-27.5,1-1.67-.01-4.55.7-5.5-1,3.16-.03,6.35.1,9.51,0,1.14-.03,2.75.64,2.48-.99-6.16-2.87-12.86-7.03-18.02-11.48-8.45-7.29-13.65-17.56-22.48-24.52-5.23-4.12-10.6-6.18-16.49-9.01,8.26-1.28,15.58-1.01,24-1Z"/>
      <path class="cls-14" d="M752.92,17.21c-1.91,2.86-.69,1.46,1.01,2.45,6.19,3.6,14.87,9.15,20.01,14.03,8.24,7.81,14.91,22.86,25.28,27.72,1.33.62,6.61,2.63,7.69,2.8-10.3.57-22.34,2.06-32.6,1.06-1.6-.16-2.27-1.04-2.4-1.06,3.16-.07,6.35.1,9.51,0,1.14-.04,2.75.64,2.48-.99-7.05-2.94-14.7-7.92-20.49-13.01-11.55-10.15-19.25-27.25-35.5-32,7.95-1.69,16.79-1.05,25-1Z"/>
      <path class="cls-14" d="M546.92,17.21l23.49,16.01c8.46,7.71,14.27,20.94,23.56,27.44.95.67,6.23,3.39,6.95,3.55-8.98,1.59-18.35,1.08-27.5,1-1.67-.01-4.55.7-5.5-1,3.16-.02,6.35.1,9.51,0,1.14-.03,2.75.64,2.48-.99-6.29-2.75-12.85-6.95-18.02-11.48-10.72-9.41-16.82-22.74-30.29-29.71-2.94-1.52-6.09-2.01-8.69-3.81,6.86.29,16.33-1,24-1Z"/>
      <path class="cls-14" d="M142.92,17.21c-1.91,2.86-.69,1.46,1.01,2.45,9.8,5.69,19.58,12.42,26.98,21.06,5.73,6.69,9.89,15.66,17.66,20.34.94.56,5.81,3.04,6.34,3.16-9.05,1.46-18.32,1.08-27.5,1-1.67-.01-4.55.7-5.5-1,3.16-.02,6.35.1,9.51,0,1.14-.03,2.75.64,2.48-.99-10.15-3.8-19.29-12.02-26.52-19.98-4.72-5.19-8.25-11.46-13.98-16.02-4.35-3.46-9.66-5.42-14.49-8.01.18-.11.32-1.16.97-1.5,2.37-1.25,18.75-.49,23.03-.5Z"/>
      <path class="cls-14" d="M242.92,17.21l19.93,13.57c12.32,8.2,19.29,29.4,34.07,33.43-8.98,1.59-18.35,1.08-27.5,1-1.67-.01-4.55.7-5.5-1,3.07.16,6.42.09,9.51,0,1.14-.03,2.75.65,2.48-.99-5.9-1.98-12.28-6.43-17.02-10.48-14.28-12.21-20.31-29.46-40.98-34.52,8.3-1.32,16.61-.95,25-1Z"/>
      <path class="cls-14" d="M344.92,17.21c4.06,3.78,9.41,6.31,13.91,9.59,2.9,2.11,8.28,6.01,10.61,8.39,10.21,10.41,13.98,24.56,30.48,29.02-10,.56-21.63,2.03-31.6,1.06-1.6-.16-2.27-1.04-2.4-1.06,2.83-.04,5.67.05,8.51,0,1.2-.02,3.73.74,3.49-.99-10.38-4.03-20.09-11.71-27.52-19.98-1.97-2.2-3.56-5.37-5.48-7.52-6.63-7.38-13.8-13.55-22.99-17.51,7.53-1.4,15.15-1.01,23-1Z"/>
      <path class="cls-14" d="M445.92,17.21c5.81,4,12.31,7.28,17.93,11.57,9.13,6.98,12.1,13.79,19.08,21.92,5.76,6.71,11.19,11.36,19.99,13.51-10.12,1.24-20.28,1.09-30.5,1-1.67-.01-4.55.7-5.5-1,3.49-.03,7.01.11,10.51,0,1.14-.03,2.75.65,2.49-.99-6.36-2.66-13.22-6.57-18.49-11.01-10.85-9.15-16.88-22.41-29.16-29.84-2.67-1.62-5.86-2.38-8.34-4.16,7.78-.96,14.09-.96,22-1Z"/>
      <path class="cls-16" d="M806.92,17.21c13.73,4.75,24.17,18.69,31,31-.04,5.65.03,11.35,0,17-1.74.87-3.69-.97-4-1l.61-1.1c-5.27-1.38-11.12-4.34-15.57-7.45-14.37-10.02-22.06-27.2-37.04-36.46,7.83-.34,17.2-1.77,25-2Z"/>
      <path class="cls-13" d="M407.92,23.21c7.45,7.14,14.24,14.98,20.35,23.5,5.07,6.67,10.98,11.61,18.42,15.19l-.56,1.55c-8.08.93-14.68,1.11-22.21-2.25-.27.04-.74.06-1,0l-1-1c-19.45-7.71-25.72-25-40.49-37.01-1.84-1.49-4.51-1.68-5.51-3.99,5.82-1.4,17.58-1.82,24-2,2.55,2.14,5.34,4,8,6Z"/>
      <path class="cls-1" d="M87.92,33.21l2.9.26c5.76,7.67,12.27,14.6,19.52,20.8l.58,2.94c1.85.22,12.58,7.16,11.19,7.36-6.1.33-12.17.21-18.19-.36-6.53.99-13.85,1.25-20.48-.22-5.73-6.43-11.43-12.86-17.1-19.29l-.42-2.48c.2-7.29-.38-14.72,0-22,.54-1.78,5.2-1.42,7.01-.87,2.98.91,12.66,10.34,14.99,13.87Z"/>
      <path class="cls-17" d="M47.92,31.21c-.25,5.88-.67,11.77-1.24,17.65-19.3,15.75-33.97-11.81-25.76-28.65.3-.6.19-1.77.75-2.7,5.56-9.11,14.6-13.72,24.2-6.75,5.61,4.08,2.21,13.88,2.05,20.45Z"/>
      <path class="cls-17" d="M882.92,20.21c8.05,17.1-6.01,42.7-25.34,29.54-.86-6.13-1.42-12.31-1.66-18.54-.23-9.65-5.07-18.74,6.45-23.04,8.38-3.13,15.67,2.47,19.77,9.36.59.99.49,2.12.77,2.68Z"/>
      <path class="cls-34" d="M855.92,31.21c2.69,3.89-.42,11.19,1.5,15,3.19,6.35,14.64,6.65,19.52,1.52,6.54-6.87,7.64-18.64,5.98-27.52,4.66,9.18,6.19,15.58,4.76,26.26-2.29,17.09-16.95,33.84-32.69,18.11,1.42-10.76,1.19-22.41.93-33.36Z"/>
      <path class="cls-25" d="M47.92,31.21c-.11,4.83.84,33.42-.17,34.84-.18.25-4.54,3.12-5.1,3.39-15.16,7.26-25.67-12.15-26.75-24.72-.86-9.95.7-15.98,5.02-24.52-3.38,7.78,1.64,27.84,9.94,30.56,5.35,1.75,14.46.04,15.86-6.25.94-4.21-1.11-9.56,1.19-13.31Z"/>
      <path class="cls-21" d="M829.92,18.21c3.19-.19,7.8.06,8,4-.07,8.65.06,17.35,0,26-7.44-6.48-11.88-15.4-19.5-22-3.68-3.18-8.34-5.24-11.5-9,6.39-.18,17.14-.71,23,1Z"/>
      <path class="cls-8" d="M60.92,26.21c1.7.95.98,3.83,1,5.5.1,9.88-.11,22.16-1.09,31.91-.38,3.74-1.31,9.18-5.91,9.58-2.71-10.97-3.42-23.14-3.03-34.53.06-1.61.99-3.15,1.02-4.47,1.56-.66,3.49-.77,5.77-.34-.37-4.06.37-6.61,2.23-7.66Z"/>
      <path class="cls-11" d="M842.92,26.21c1.1,2.1,2.08,4.34,1.93,6.75,3.03-1,5.06-.58,6.07,1.25.26,10.85,1.33,20.2-.08,31.42-.32,2.56-1.59,5.02-1.93,7.58-.87.93-4.48-2.67-5.09-3.48-.21-.28-.88-6.08-.93-7-.52-10.33-.76-20.71-1.02-30.96-.04-1.64-.61-4.63,1.04-5.56Z"/>
      <path class="cls-2" d="M103.92,64.21c.87.28.86.62,0,1-10.75.02-24.15,1-34.53.03-1.54-.14-2.94-.63-4.37-1.13-.02-5.1-.35-10.31-.12-15.41.09-2.08.95-3.98,1.02-6.48,8.63,3.74,13.65,20.97,23.45,22.05,4.31.47,10-.1,14.55-.05Z"/>
      <path class="cls-18" d="M850.92,34.21l-8,1c0-2.99.02-6.01,0-9-.03-6.57-1.39-15.35,2.99-20.51,1.21-1.42,1.11-1.75,2.53-.51,1.28,1.12,2.2,2.87,2.45,4.56,1.01,6.88-.14,17.05.04,24.46Z"/>
      <path class="cls-12" d="M59.92,10.21c.26,5.1.6,10.1,1,15,0,.33,0,.67,0,1-.03,1.65.27,8.64-.07,8.93-1.41,1.2-6.55,1.24-7.93-.93.16-6.99-1.16-19.23.19-25.31.42-1.89,1.92-3.43,3.31-4.68,2.38,1.66,2.72,3.52,3.5,5.99Z"/>
      <path class="cls-20" d="M96.92,17.21c-1.83,2.73-.81,1.45.91,2.55,11.57,7.39,22.09,15.88,28.09,28.45l-2.81.24-17.04-18.58c-5.68-5.26-9.61-8.15-17.47-8.76-8.74-.68-10.62,0-2.9,5.01,3.63,2.92,4.38,5.28,2.22,7.09-3.83-4.26-10.89-10.34-16.28-12.22-1.99-.69-3.58-1.08-5.72-.78.03-.65-.12-1.31.02-1.96,10.15-1.51,20.68-1.26,30.98-1.04Z"/>
      <path class="cls-31" d="M499.92,17.21c2.41,1.97,5.33,3.25,8,5l1,1c.6.4,1.42.59,2,1l1,1c6.73,5.06,9.99,8.09,15,15l1,1c.7.97,1.28,2.06,2,3,1.69,2.1-.14,3.06-2.57,1.83l-8.62-9.89c-9.01-10.31-18.69-17.01-32.76-15.13,2.14,1.63,2.67,3.21-.05,4.19-4.87-3.48-10.81-4.51-16-7,9.8-1.65,20.03-1.04,30-1Z"/>
      <path class="cls-32" d="M411.92,26.21l1,1c2.53,1.74,4.22,3.52,6,6l1,1c1.97,2.7,4.07,5.23,6,8l1,1c.7.97,1.28,2.06,2,3l1,1c5.51,6.54,12.64,13.77,21.56,14.94,4.66.61,10.93-1.59,14.44,2.06-19.09.38-39.98,2.36-59,1,.95-1.7,3.84-.99,5.5-1,5.83-.05,11.68.05,17.5,0l-6-2.99c4.28-.72,5.94,1.58,9.67,1.71,3.24.11,7.12-1.97,10.82.3,2.12-2.45-3.97-3.51-6.01-4.99-11.51-8.31-17.49-23.75-29.23-31.28l-1.25-3.74c1.33,1,2.67,2.01,4,3Z"/>
      <path class="cls-22" d="M147.92,64.21c-14.65.39-29.2.97-44,1v-1c5.99.07,12.01-.04,18,0l-9.39-5.15c-.92-.2-1.26-1.59-1.61-1.84,1.06-2.88,3.07-2.34,5.37-.92,4.67,5.27,11.54,5.26,18.18,4.71-3.59-3.17-6.79-6.67-9.6-10.51l1.05-2.29c5.22,4.14,9.36,10.17,15.3,13.2,2.19,1.11,5,1.04,6.7,2.8Z"/>
      <path class="cls-6" d="M667.92,64.21c-18.83.54-37.52,1.17-56.5,1-1.66-.01-4.55.7-5.5-1,7.96.34,16.04-.23,24.01-.01-.02-.57-1-.87-1.01-.99-.06-.44.02-.88.5-1,5.43,1.09,10.93,1.17,16.5.99-1.69-1.33-2.29-3.98-3-4.99,6.91,3.94,11.65,4.88,19.5,5,1.67.02,4.55-.7,5.5,1Z"/>
      <path class="cls-36" d="M517.92,58.21c-.86-5.9,8.15-.08,10.98,2.11,3.57,1.29,13.2,2.21,13.02-2.11,3.75,2.09,6.92,4.4,11.3,5.2l.7.8c-14.53.4-29.36,1.92-44,1,.95-1.7,3.84-.99,5.5-1,3.83-.03,7.68.03,11.5,0l-9-5.99Z"/>
      <path class="cls-9" d="M195.92,17.21c.59,2.83-1.66,2.22-3.5,2.02-4.03-.44-4.11-.31-7.98,0-1.91.16-4.19-.39-5.94.06-3.52.91,1.59,3.35-.59,3.91-3.46-2.26-7.61-2.86-11-5,9.61-.28,19.21-1.11,29-1Z"/>
      <path class="cls-37" d="M11.91,29.21c.35,3.33-.27,6.29-1.01,9.5-.23.99.73,3.34-1.47,2.49-7.4-2.86-6.19-13.2,2.48-11.99Z"/>
      <path class="cls-27" d="M891.92,32.21c0-1-.02-2.01,0-3,4.64-.16,5.28.36,7,4,.6.63.56,1.33,0,2-.06.34.09.72,0,1-2.05,2.9-4.98,5.98-6.05.88l-.95-4.88Z"/>
      <path class="cls-7" d="M829.92,18.21c2.35-1.47,5.29-1.07,7.94-.94,1.17,1.89.08,3.45.06,4.94-2.45-.83-5.76-3.35-8-4Z"/>
      <path class="cls-5" d="M898.92,36.21c-1.07,3.38-1.7,5.72-6,6,.14-3.52-1.04-6.4-1-10l.81.66c.3,2.04-.2,4.09,1.71,5.34l4.49-2Z"/>
      <path class="cls-8" d="M60.92,25.21c-.84.14-.95-.77-1-1.48-.28-4.48.19-9.05,0-13.52,1.54,4.88,1.08,9.76,1,15Z"/>
      <path class="cls-39" d="M621.92,18.21l-2.35-.16-.65-.84c2.39.09,2.83.98,3,1Z"/>
      <path class="cls-9" d="M164.92,18.21l-1.41-.17-.59-.83c2.09.08,1.88.99,2,1Z"/>
      <path class="cls-14" d="M519.92,18.21l-1.41-.17-.59-.83c2.1.04,1.88.99,2,1Z"/>
      <path class="cls-14" d="M117.92,19.21c-.48,0-.95.06-1.41-.12l-.59-.88c.47.03.95.01,1.41.17l.59.83Z"/>
      <path class="cls-5" d="M898.92,35.21v-2c.08.17.72.25.88.72.27.77-.86,1.16-.88,1.28Z"/>
      <path class="cls-35" d="M349.92,63.21c-2.02-.2-1.88-.96-2-1l2,1Z"/>
      <path class="cls-13" d="M261.92,64.21c-2.09-.1-1.88-.99-2-1l1.41.17.59.83Z"/>
      <path class="cls-14" d="M318.92,18.21l-1-1c1.01.07.93.99,1,1Z"/>
      <path class="cls-14" d="M420.92,18.21l-1-1c1.01.06.93.99,1,1Z"/>
      <path class="cls-13" d="M373.92,19.21l-1-1c1.08.17.93.98,1,1Z"/>
      <path class="cls-26" d="M676.92,19.21l-1-1c1.05.18.93.99,1,1Z"/>
      <path class="cls-32" d="M422.92,61.21c-1.35-.3-.93-.97-1-1l1,1Z"/>
      <path class="cls-23" d="M529.92,44.21c3.76,4.89,7.91,9.4,12,14l2.49,6.01c-5.22-1.94-11.5-.31-16.78-2.22-1.35-.49-2.02-1.93-3.43-2.57-1.13-.52-5.45-2.95-6.28-1.22-9.19-5.6-15.06-14.62-22-22.5-3.07-3.48-7.53-6.66-10-10.5-.14-.22.32-1.19-.19-1.78-1.2-1.41-3.94-1.11-3.81-5.22,5.1,1.68,10.45.4,15.44,1.05,10.85,1.41,23.06,15.2,29.56,23.43.32.41,2.61,3.51,2.99,1.51Z"/>
      <path class="cls-13" d="M412.92,27.21c-.41-.28-.87-.44-1-1,.38.28.7.63,1,1Z"/>
      <path class="cls-13" d="M419.92,34.21c-.57-.13-.71-.6-1-1,.37.3.72.62,1,1Z"/>
      <path class="cls-13" d="M426.92,43.21c-.49-.19-.72-.6-1-1,.49.19.71.6,1,1Z"/>
      <path class="cls-13" d="M429.92,47.21l-1-1c.18.24.65.58,1,1Z"/>
      <path class="cls-23" d="M508.92,23.21c-.56-.38-.85-.9-1-1l1,1Z"/>
      <path class="cls-23" d="M511.92,25.21c-.48-.36-.79-.85-1-1l1,1Z"/>
      <path class="cls-23" d="M527.92,41.21c-.49-.19-.71-.6-1-1,.49.19.71.6,1,1Z"/>
      <path class="cls-26" d="M87.92,33.21c-.98-4.91-5.91-7.08-9.33-10.17-.99-.89-2.13-.91-1.67-2.82,8.25-1.74,17.3-2.09,24.4,3.12,6.1,4.48,9.79,8.63,14.6,14.37,3.17,3.78,6.51,7.74,9.99,10.51,2.58,5.4,6.82,7.58,10.5,12,.84,1.01,1.91,1.29,1.49,3-5.79.05-11.64.33-17.26-1.27-3.45-.98-4.88-5.8-9.73-4.73-10.91-7.99-14.59-14.66-23-24Z"/>
    </g>
  </g>
</svg>