<?xml version="1.0" encoding="UTF-8"?>
<svg id="Layer_2" data-name="Layer 2" xmlns="http://www.w3.org/2000/svg" viewBox="0 0 556.44 348.98">
  <defs>
    <style>
      .cls-1 {
        fill: #040404;
      }
    </style>
  </defs>
  <g id="Layer_2-2" data-name="Layer 2">
    <g id="Layer_1-2" data-name="Layer 1-2">
      <g>
        <path class="cls-1" d="M302.38,42.97l-5.56-2.45c-1.37-2.21-2.69-3.06-3.95-2.54h0c-3.5-3.26-4.02-6.71-6.77-10.43-.68-.92-1.81-1.61-2.5-2.57-2.85-3.99-3.64-8.12-8.18-11.54-1.51-1.13-3.26-1.09-2.59.89,1.28,3.77,2.4,7.68,1.97,11.77-5.49,1.78-11.65,5.02-17.71,3.98-1.42-.24-2.24-1.95-3.38-2.81-2.71-2.03-8.48-5.03-11.84-5.11-2.07-.04-2.72,1.31-1.03,2.77,2.8,2.42,4.91,4.31,6,8.09,1.27,4.38.87,5.43-.17,9.47-4.63,7.27,1.07,9.53,5.06.81,1.54-2.95,9.79-3.77,8.16.47-9.03,5.44-5.96,7.39,9.2,5.85,11.75-1.91,23.48-2.9,35.2-2.99,2.3-1.34-.23-2.94-1.91-3.66ZM273.99,28.34c1.06-.4,2.41.13,2.51.05,1.38-1.13.11-8.2.03-10.14,1.04,1.07,2.57,3.06,3.29,4.31,1.8,3.12,1.65,3.34,4.05,6.1,2.59,2.98,3.54,6.93,6.18,9.87h0c-2.39.18-2.53-2.29-5.29-1.69-.4.09-.28.82-.51.97-.41.28-1.05.07-1.37.29-.59.4-1.24,2.89-2.42,3.53-4.1,2.25-13.45,0-18.02-.84-.29-.26,1.87-3.75,2.25-4.23,1.47-1.89,7.25-7.44,9.3-8.22ZM252.85,38.81c-1.15.36-1.83.78-2.79,1.43.06-5.42-1.2-10.71-5.07-14.65,1.34-.16,2.46.63,3.56,1.23,2.06,1.12,6.15,5.11,7.54,5.42,2.71.61,6.43-.02,9.17-.45,0,0,0,0,0,0h.02s-.02,0-.02,0c-1.23,1.09-3.42,5.36-4.49,5.93-1.07.57-5.77.43-7.92,1.09ZM292.03,44.75c-6.09-.5-12.03,1.08-18.03,1.69-4.78.49-9.61.38-14.38,1.11,1.02-1.28,4.58-3.61,6.04-3.86s5.94.96,7.76,1.06c3.9.21,7.69.02,10.13-3.41.45-.64.81-2.23,1.18-2.26,2.2-.2,9.74,4.39,12.64,4.54l-5.34,1.13Z"/>
        <path class="cls-1" d="M247.1,123.18c-.37-.35-2.61-.65-3.25-.69h.01c-3.27-.47-6.58-.54-9.94-.21-3.59-1.66-8.6,1.04-12.04,3.02-.12.05-.35.49-.72.68-3.07,1.55-3.9,1.18-.37,4.07,3.74,3.06,8.85,5.32,13.78,4.84,1.97-.19,3.81-1.48,5.34-1.7,1.1-1.14,2.27-1.98,2.93-3.54.36-.87.95-4.31,1.31-4.36.44-.07,1.56-.09,1.87.12.23.15,2.82,4.43,2.81,4.7-.03.51-1.98,1.65-2.15,2.53.07.04.35.47.85.55,1.21.17,3.73-.2,4.14-1.48.82-2.51-3.46-6.25-4.57-8.53ZM228.63,125.88c-1.21,3.02,1.64,4.1,2.25,6.76-5.58-.63-10.83-5.26-2.25-6.76ZM230.89,125.88c1.19.16,2.26-.36,3.38-.56h0c.81.8.57,1.28-.56,1.12.37,2.96,5.29,4.07,2.82.56-.29-.75.46-1.31,2.25-1.69.7.1,1.53-.08,2.26,0,.94,8.06-9.91,8.42-10.15.57Z"/>
        <path class="cls-1" d="M173.98,97.7l-.47-.36c-.19-1.25-.19-2.54,0-3.79l.47-.36c-.07,1.46-.06,3.05,0,4.51Z"/>
        <path class="cls-1" d="M350.9,186.73c-.74,1.11-2.72.39-3.94.56,0-.46.76-1.19,1.13-1.12.05,0,.31.5.88.54.66.05,1.29,0,1.94.02h-.01Z"/>
        <path class="cls-1" d="M357.66,105.03c.08-1.41.09-3.1,0-4.51l.47.36c.19,1.25.19,2.54,0,3.79l-.47.36Z"/>
        <path class="cls-1" d="M179.62,114.61c-.36-.05-.98-.8-1.69-.56v2.25s-.4.15-.47-.36c-.39-2.74.32-3.73,2.16-1.33Z"/>
        <path class="cls-1" d="M189.76,185.04c-.93-.52-.59-2.35-.56-3.38,1,.55.5,2.32.56,3.38Z"/>
        <path class="cls-1" d="M183.56,114.61l-.35.48c-.69.18-1.42.18-2.11,0l-.35-.48c.84.05,2.01.09,2.82,0h-.01Z"/>
        <path class="cls-1" d="M358.79,111.79l-.35.48c-.69.18-1.42.18-2.11,0l-.35-.48c.9.03,1.95.08,2.82,0h0Z"/>
        <path class="cls-1" d="M197.65,174.33c.09.17.87.06.56,1.13-1.06.38-1.4-.42-1.69-.56l.79-.09.34-.47h0Z"/>
        <path class="cls-1" d="M190.32,148.41c.06.54-.09,1.19,0,1.69l-.47-.38c-.26-.59,0-1.35-.09-1.87.34,0,.53.26.56.56Z"/>
        <path class="cls-1" d="M186.94,137.14c-.11-.51-.48-.88-.56-2.25l.47.38.09,1.87Z"/>
        <path class="cls-1" d="M363.86,114.04c.25-1.39-.28-2.35-1.13-3.38,1.08.31,1.82,1.43,1.71,2.52-.05.55-.57.79-.59.86h0Z"/>
        <path class="cls-1" d="M194.83,166.44c-.26-.85-.34-1.42-.56-2.25l.47.38.09,1.87Z"/>
        <path class="cls-1" d="M189.2,181.09c.13-1.59-.16-2.63,1.69-3.38-.3,1-1.35,2.3-1.69,3.38Z"/>
        <path class="cls-1" d="M176.24,84.74c-.02-.09-.47-.48-.56-1.69l.47.37.09,1.32Z"/>
        <path class="cls-1" d="M351.46,145.03l.09-1.32.47-.37c-.2.77-.5,1.43-.56,1.69Z"/>
        <path class="cls-1" d="M349.21,152.92l.09-1.32.47-.37c-.2.72-.48,1.38-.56,1.69Z"/>
        <path class="cls-1" d="M355.41,130.95l-.37.48-1.32.09c-.05-.17.04-.38,0-.56.56,0,1.13,0,1.69,0h0Z"/>
        <path class="cls-1" d="M178.49,89.82l1.13,1.12c-1.06.31-.98-.49-1.13-.56v-.56Z"/>
        <path class="cls-1" d="M345.27,165.88c-.12-.98.07-1.99,1.13-2.25-.22.78-1.04,1.94-1.13,2.25Z"/>
        <path class="cls-1" d="M344.7,168.13l.09-1.32.47-.37c-.08.27.03.83-.09,1.32s-.46.34-.47.37Z"/>
        <path class="cls-1" d="M190.32,187.85c-.02-.09-.45-.5-.56-1.69l.47.37.09,1.32Z"/>
        <path class="cls-1" d="M354.85,168.13l-.47-.37-.09-1.32c.06.2.48.44.56,1.69Z"/>
        <path class="cls-1" d="M190.89,189.54c-.02-.06-.33-.25-.56-1.13l.47.33.09.79h0Z"/>
        <path class="cls-1" d="M354.85,188.98c.41-.7,2.17-2.89,1.69-3.38-1.05-.33-1.44.94-2.25,1.13l2.82-.84-2.26,3.09h0Z"/>
        <path class="cls-1" d="M179.62,80.8c-1.56-.99-2.84-3.64-3.94-1.13.38-3.4,2.89-.58,3.94,1.13Z"/>
        <path class="cls-1" d="M189.2,80.8c-.55.36-.54.33-1.13.56l.34-.47.79-.09Z"/>
        <path class="cls-1" d="M176.8,89.82l-1.69-.56c1.32-1.3,1.16.24,1.69.56Z"/>
        <path class="cls-1" d="M352.59,92.07l-.28.56c-.48.11-.26-.4-.28-.84l.56-.28s-.03.52,0,.56Z"/>
        <path class="cls-1" d="M357.1,97.7l-.47-.33-.1-.8c.06.13.32.32.56,1.13h.01Z"/>
        <path class="cls-1" d="M174.55,101.65c0-.07-.46.04-.56-1.13l.47.33.09.79h0Z"/>
        <path class="cls-1" d="M175.11,103.9c-.02-.06-.32-.24-.56-1.13l.47.33.1.8h-.01Z"/>
        <path class="cls-1" d="M357.1,107.28l.1-.8.47-.33c-.12,1.14-.54,1.06-.56,1.13h-.01Z"/>
        <path class="cls-1" d="M354.85,111.79c-1.56-.3.71-2.34,1.69-2.82-.62,1.03-1.7,1.6-1.69,2.82Z"/>
        <path class="cls-1" d="M353.72,178.27c.07-.87.32-1.81,1.13-2.25-.17,1.48-.99,1.87-1.13,2.25Z"/>
        <path class="cls-1" d="M195.39,174.33c-1.44-1.08-1.04-.81-1.69-2.25l1.69,2.25Z"/>
        <path class="cls-1" d="M193.14,170.39l-1.69-.56c.1-.08.04-.74.8-.55.56.14.65.79.89,1.11Z"/>
        <path class="cls-1" d="M344.7,169.26l-.28.56c-.47.1-.26-.4-.28-.84l.56-.28c.02.19-.04.54,0,.56Z"/>
        <path class="cls-1" d="M354.28,165.88l-.47-.34-.09-.79c.23.44.33.48.56,1.13h0Z"/>
        <path class="cls-1" d="M193.7,161.37c-.02-.07-.32-.25-.56-1.13l.47.33.09.79h0Z"/>
        <path class="cls-1" d="M346.96,160.24l.09-.79.47-.33c-.25.85-.54,1.06-.56,1.13h0Z"/>
        <path class="cls-1" d="M193.14,159.12c-.02-.07-.32-.22-.56-1.13l.47.33.09.79h0Z"/>
        <path class="cls-1" d="M347.52,158.55l.09-.79.47-.33c-.25.86-.54,1.06-.56,1.13h0Z"/>
        <path class="cls-1" d="M355.97,122.49c-.4.31-.74.79-1.13,1.13l-.56-.28c.43-.59.94-.89,1.68-.85h.01Z"/>
        <path class="cls-1" d="M192.58,156.86c-.02-.07-.32-.24-.56-1.13l.47.33.09.79h0Z"/>
        <path class="cls-1" d="M348.08,156.3l.09-.79.47-.33c-.25.86-.54,1.06-.56,1.13h0Z"/>
        <path class="cls-1" d="M348.65,154.61l.09-.79.47-.33c-.25.87-.54,1.06-.56,1.13h0Z"/>
        <path class="cls-1" d="M185.82,125.31c-.98-.22-1.06-.54-1.13-.56l.8.1.33.47h0Z"/>
        <path class="cls-1" d="M186.94,126.44c.02-.28.04-1.08,0-1.13l.56.28v.56l-.56.28h0Z"/>
        <path class="cls-1" d="M186.38,128.13c.09-1.16.55-1.06.56-1.13l-.09.79-.47.33h0Z"/>
        <path class="cls-1" d="M189.2,146.16c-.02-.07-.33-.15-.56-1.13l.47.33.1.8h-.01Z"/>
        <path class="cls-1" d="M357.66,130.38c-.2.07-.34.41-1.13.56l.34-.47.79-.09h0Z"/>
        <path class="cls-1" d="M353.72,133.2v-1.13c.18,1.11.04.49,0,1.13Z"/>
        <path class="cls-1" d="M187.51,138.83c-.02-.07-.34-.12-.56-1.13l.47.33.09.79h0Z"/>
        <path class="cls-1" d="M348.65,195.18s-.69-.15-.33-.56c.51-.58,1.38-.77,2.02-1.13l-1.69,1.69Z"/>
        <path class="cls-1" d="M196.52,197.43c-2.01-1.3-3.27-3.09-4.51-5.07,1.72,1.29,3.01,3.44,4.51,5.07Z"/>
        <path class="cls-1" d="M192.01,191.8c-.22-.38-.57-.42-1.13-1.69l1.13,1.69Z"/>
        <path class="cls-1" d="M180.74,81.36l-.56-.56c.45.26.53.55.56.56Z"/>
        <path class="cls-1" d="M181.87,81.93l-.56-.56c.52.17.52.56.56.56Z"/>
        <path class="cls-1" d="M186.94,81.93c0-.35.26-.5.56-.56.02.33-.27.54-.56.56Z"/>
        <path class="cls-1" d="M176.8,86.43s-.36.05-.56-.56l.56.56Z"/>
        <path class="cls-1" d="M177.36,87.56s-.33-.07-.56-.56l.56.56Z"/>
        <path class="cls-1" d="M178.49,89.25c-.08-.13-.68-.33-1.13-1.13l1.13,1.13Z"/>
        <path class="cls-1" d="M177.93,90.38l-.56-.56c.33.2.52.54.56.56Z"/>
        <path class="cls-1" d="M173.98,90.94c.11-.6.55-.53.56-.56,0,0-.56.56-.56.56Z"/>
        <path class="cls-1" d="M355.97,94.89l-2.25-2.25c1.09.82,1.45,1.1,2.25,2.25Z"/>
        <path class="cls-1" d="M356.54,96.01l-.56-.56s.29.01.56.56Z"/>
        <path class="cls-1" d="M357.66,98.83l-.56-.56s.49-.02.56.56Z"/>
        <path class="cls-1" d="M175.67,105.03s-.33.02-.56-.56l.56.56Z"/>
        <path class="cls-1" d="M176.24,106.15s-.33-.07-.56-.56l.56.56Z"/>
        <path class="cls-1" d="M176.8,107.28s-.31-.14-.56-.56l.56.56Z"/>
        <path class="cls-1" d="M356.54,108.41l.56-.56c-.23.58-.54.53-.56.56Z"/>
        <path class="cls-1" d="M180.18,111.23c-1.3-.99-1.82-1.52-2.82-2.82l2.82,2.82Z"/>
        <path class="cls-1" d="M361.04,111.23s-.04-.44.56-.56l-.56.56Z"/>
        <path class="cls-1" d="M359.92,111.79s.05-.43.56-.56l-.56.56Z"/>
        <path class="cls-1" d="M181.87,112.35c-.43-.26-.53-.54-.56-.56l.56.56Z"/>
        <path class="cls-1" d="M183,112.92c-.45-.26-.53-.54-.56-.56l.56.56Z"/>
        <path class="cls-1" d="M184.12,113.48c-.48-.28-.53-.54-.56-.56l.56.56Z"/>
        <path class="cls-1" d="M184.12,114.61c.06-.04.59-1.07.56-1.13l.56.28s-1.12.85-1.12.85Z"/>
        <path class="cls-1" d="M363.3,115.73l.56-.56c-.2.59-.55.53-.56.56Z"/>
        <path class="cls-1" d="M361.61,117.99l1.69-1.69c-.66,1.06-1.19,1.13-1.69,1.69Z"/>
        <path class="cls-1" d="M178.49,117.99s-.39.04-.56-.56l.56.56Z"/>
        <path class="cls-1" d="M179.62,120.24c-.08-.13-.73-.24-1.13-1.13l1.13,1.13Z"/>
        <path class="cls-1" d="M358.23,121.37l1.69-1.69c-.55.49-.79,1.01-1.69,1.69Z"/>
        <path class="cls-1" d="M183,124.18c-1.42-.98-2.38-1.99-3.38-3.38l3.38,3.38Z"/>
        <path class="cls-1" d="M357.1,121.93l.56-.56c-.11.08-.24.35-.56.56Z"/>
        <path class="cls-1" d="M184.12,124.75c-.58-.23-.53-.54-.56-.56l.56.56Z"/>
        <path class="cls-1" d="M357.1,125.88l-1.69-1.69c.62.55,1.37,1.44,1.69,1.69Z"/>
        <path class="cls-1" d="M358.79,127l-.56-.56c.28.21.49.52.56.56Z"/>
        <path class="cls-1" d="M360.48,128.13l-1.13-1.13c.45.31,1.04.39,1.13,1.13Z"/>
        <path class="cls-1" d="M348.65,186.16l1.69-1.69c-.5.58-.74,1.45-1.69,1.69Z"/>
        <path class="cls-1" d="M352.59,191.8c.68-.75,1.11-1.85,2.25-2.25-.6.94-1.22,1.76-2.25,2.25Z"/>
        <path class="cls-1" d="M198.77,198.56c-.49-.23-.53-.54-.56-.56l.56.56Z"/>
        <path class="cls-1" d="M199.9,199.12c-.51-.21-.53-.55-.56-.56l.56.56Z"/>
        <path class="cls-1" d="M201.03,199.68c-.59-.08-.53-.55-.56-.56l.56.56Z"/>
        <path class="cls-1" d="M206.1,200.25c.07-.11-.05-.38,0-.56l.56.28-.56.28Z"/>
        <path class="cls-1" d="M350.9,193.49l1.13-1.13c-.41.44-.3.69-1.13,1.13Z"/>
        <path class="cls-1" d="M351.46,182.78l1.13-1.13c-.48.69-.96.91-1.13,1.13Z"/>
        <path class="cls-1" d="M352.59,181.09l1.13-1.13c-.22.88-1.03.98-1.13,1.13Z"/>
        <path class="cls-1" d="M190.89,177.15s-.46.04-.56-.56l.56.56Z"/>
        <path class="cls-1" d="M190.32,174.33s-.45.03-.56-.56l.56.56Z"/>
        <path class="cls-1" d="M197.65,173.77s-.33.03-.56-.56l.56.56Z"/>
        <path class="cls-1" d="M189.76,172.64c.11-.6.55-.53.56-.56l-.56.56Z"/>
        <path class="cls-1" d="M197.08,172.08s-.34.04-.56-.56l.56.56Z"/>
        <path class="cls-1" d="M193.7,171.51l-.56-.56s.31,0,.56.56Z"/>
        <path class="cls-1" d="M196.52,170.39s-.34.04-.56-.56l.56.56Z"/>
        <path class="cls-1" d="M345.83,169.26s.35-.39.56-.56l-.56.56Z"/>
        <path class="cls-1" d="M195.96,168.7s-.38-.04-.56-.56l.56.56Z"/>
        <path class="cls-1" d="M346.96,168.13c.33-.32,1.56-1.52,1.69-1.69l-1.69,1.69Z"/>
        <path class="cls-1" d="M195.39,167.57s-.33.04-.56-.56l.56.56Z"/>
        <path class="cls-1" d="M188.63,142.78s-.42.04-.56-.56l.56.56Z"/>
        <path class="cls-1" d="M352.03,142.21l.56-.56c-.13.61-.55.52-.56.56Z"/>
        <path class="cls-1" d="M348.65,165.88c.44-.57,1.01-.97,1.13-1.13l-1.13,1.13Z"/>
        <path class="cls-1" d="M188.07,141.09s-.41.05-.56-.56l.56.56Z"/>
        <path class="cls-1" d="M349.77,164.19c.5-.64.73-1.42,1.69-1.69l-1.69,1.69Z"/>
        <path class="cls-1" d="M353.15,163.63l-1.13-1.13c.81.21.77.66,1.13,1.13Z"/>
        <path class="cls-1" d="M194.27,163.06s-.4.04-.56-.56l.56.56Z"/>
        <path class="cls-1" d="M352.59,139.96l.56-.56c-.11.6-.56.52-.56.56Z"/>
        <path class="cls-1" d="M346.39,161.93l.56-.56c-.18.61-.55.53-.56.56Z"/>
        <path class="cls-1" d="M192.01,155.17s-.4.04-.56-.56l.56.56Z"/>
        <path class="cls-1" d="M191.45,153.48s-.4.06-.56-.56l.56.56Z"/>
        <path class="cls-1" d="M359.92,129.26l.56-.56c-.14.44-.4.4-.56.56Z"/>
        <path class="cls-1" d="M190.89,151.23s-.45.02-.56-.56l.56.56Z"/>
        <path class="cls-1" d="M349.77,150.1l.56-.56c-.17.62-.55.53-.56.56Z"/>
        <path class="cls-1" d="M350.34,147.85l.56-.56c-.14.51-.55.53-.56.56Z"/>
        <path class="cls-1" d="M189.76,147.29s-.43.02-.56-.56l.56.56Z"/>
        <path class="cls-1" d="M350.9,146.72l.56-.56c-.16.61-.55.52-.56.56Z"/>
        <path class="cls-1" d="M363.12,113.47h.07c-1.04-2.3-4.16-1.53-3.84.58,1.13,2.1-5.15,6.01-6.23,5.02-1.18-2.91-2.54-5.7-4.07-8.36-7.67,1.37.75,13.56,4.42,16.32-4.39.87-8.59-1.47-9.55-6.11-8.53-4.24-7.57-15.35-5.38-23.09l-.59-1.25c-.96-1.32-2.95-1-3.38.56-.48.22-.49.4,0,.56-1.43.47-1.45.73,0,1.13l-.56,2.25c-1.85,1.49-1.87,6.42,0,7.89l.56,2.25c-1.04.35-1.06.79,0,1.13l.56,1.13c-1.08.32-1.1.82,0,1.13l.56,1.13c-.49.22-.5.41,0,.56l.56,1.13c-.49.19-.49.38,0,.56l.56.56c-.5.25-.51.44,0,.56l.56.56c-1.32.59-1.47.97,0,1.13-.09,3.06-.28,6.25-.56,9.58-.74.04-1.41.18-1.46.9l-.88,8.63c-2.33,5.59-3.05,11.14-2.18,16.67-1.33.07-2.13.96-2.3,2.25l.56,6.64c-2.16,1.85-2.87,4.6-2.12,8.28-2.62.86-3.03,3.62-2.2,5.92-1.42-1.78-5.72-.01-2.65,5.08l-.57.26c-2.57-3.71-3.69,0-3.84,2.84-1.58-.02-2.26.43-3,1.93-2.03-.45-2.8.87-2.19,2.74-2.36-.64-3.01.46-3.28,2.62-1.59.08-2.15.88-2.62,2.28l-1.21.58c-.02.77-1.36,7.69-2.29,6.85.68-2.39.12-4.05-1.68-4.97l.22-9c-.37-1.06-1.18-1.51-2.28-1.4-.02-2.01-.73-3.27-2.89-2.65.24-2.42-1.12-3.37-3.5-2.88-.41-2.15-2.1-2.96-3.8-1.43-.37-2.62-1.15-4.35-4.22-3.6-.65-1.83-2.13-2.12-3.9-1.65-.67-1.47-1.98-2.27-3.37-1.12-.93-.82-2.08-.85-3.47-.07-5.69-2.3-2.47,9.89,1.86,8.29.63,1.79,2.04,3.58,3.69,1.99.61,1.29,2.42,1.29,2.96-.04,1.12,2.36,2.43,3.03,3.93,2.02.53,1.47,1.25,3.17,3.02,1.91l1.18,1.56c1.56-.59,2.54.36,2.94,2.84,2.45-.87,3.44,6.65.96,7.17-.12,5.24-.55,10.57-1.26,16-1.32,1-2.37,2.07-3.16,3.22-2.1-.83-3.2.69-3.12,2.68-.64-1.53-2.12-2.03-3.39-.84-2.8-1.38-4.04-.13-4.15,2.71-.7-1.93-1.98-2.68-3.92-2.03-.65-1.28-1.66-1.42-2.84-.79-.14-.39-.68-7.87-.54-8.25.06-.16,2.83.51,3.33.7,9.25,5.9,12.42-1.87,1.6-4.56-1.55-.38-4.79-1.11-5.61.29-.55-2.28-1.49-3.22-2.82-2.82-1.76-.62-4.46-.94-4.23,1.72-2.98-.27-11.67,1.61-12.09,5-.55,4.49,4.58,2.32,6.64.91,4.65-2.04,6.64-1.56,5.98,1.42,1.69.62,1.65,1.53-.11,2.74-.14,4.65-1.36,4.06-4.8,2.1-1.07.77-1.94,1.89-2.6,3.35-.48-1.85-1.53-3.16-3.5-2.15-.58-2.34-2.69-2.93-4.06-.79-.7-.78-1.62-.89-2.75-.33-1.37-2.1-2.92-4.08-4.64-5.95-1.27-2.25-3.15-8.42-.84-9.92-.18-3.81-.61-7.6-1.3-11.39.48-1.76,3.57-4.91,5.32-4.18.99-1.65,2.21-2.33,3.67-2.06,1.55-2.19,3.54-2.44,5.97-.76l1.91-1.96c1.21.61,2.31.05,3.3-1.67,3.06,2.83,6.52-4.7,4.92-7.01-1.79-2.57-5.51-1.04-7.57-.13-1.46-1.92-3.23-.98-4.03.97-2.07-.8-3.29-.22-3.48,2.06-.93-.88-1.96-.96-3.06-.33-2.39-1.01-4.12.43-5.18,4.32-2.19-.76-3.54.46-4.05,3.67-1.94,1.83-2.82,3.9-2.64,6.21l-2.03,9.72c.34-1.21-2.33-12.04-3.59-8.12-.07.22-.06.47-.02.73l-1.32-.13c-.94-2.95-4.5-5.7-7.16-7.04-.54-1.66-2.67-3.61-4.23-4.17.09-1.82-1.08-3.23-2.96-3.12-2.88-4.55-4.08.27-2.92,3.52l-.56.23-.56-2.25c.45-.19.45-.37,0-.56.29-.39.33-.77,0-1.13.49-.2.49-.39,0-.56-1.2-2.01-2.69-2.94-1.69,0-.96.41-1.11,1.15,0,1.13l-.97,1.51,1.52,9.54c-.85,3.82-.31,7.61,1.62,11.37,2.02,6.02-9.19,4.37-11.18.9,4.49.99,12.93-6.2,6.5-8.77-7.11.02-11.04-2.02-14.04-8.66,4.36,2.92,12.77,2.25,10.93-4.56,1.5.57,4.26.68,3.93-1.32,2.48-.55-.15-3.83-.56-1.13l-.56-.56c-.49-1.5-1.53-1.56-1.69,0l-.56-.56c.12-1.46-.23-1.76-1.13-.56l-1.13-1.13c.7-1.4.15-2.02-1.13-1.13l-.56-.56c.49-.19.49-.37,0-.56l-1.13-1.13c.49-.21.5-.4,0-.56l-.56-.56c.49-.21.5-.4,0-.56l-.56-.56c.49-.19.49-.38,0-.56l-.56-1.13c1.42-.55,1.54-1.02,0-1.13l-.56-.56c1.42-.52,1.53-.91,0-1.13l-1.13-1.13c1.53-.52,1.62-1.77,0-2.25l-.56-.56c.49-.22.5-.41,0-.56l-.56-1.69c.49-.22.5-.41,0-.56l-.56-1.13c1.44-.45,1.52-1,0-1.13l-.56-1.13c1.08-.31,1.1-.82,0-1.13l-.56-1.69c.49-.22.5-.41,0-.56l-.56-.56c1.08-.31,1.09-.82,0-1.13l-.56-.56c1.53-.36,1.65-1.6,0-1.69-.36-.95-.73-1.71-1.13-2.25-.6-1.37-.89-1.55-1.13,0-.48.47-.36,1.19,0,1.69.03.18-.04.38,0,.56l.56.56c.11.49-.12,1.23,0,1.69l.56.56c.09.32-.09.81,0,1.13l.56.56c.05.17-.05.39,0,.56l.56,1.13c.09.32-.09.81,0,1.13l.56,1.13c.09.32-.09.81,0,1.13l.56,1.13c.09.32-.09.8,0,1.13l.56.56c.08.32-.08.8,0,1.13.35.65.54,1.4.56,2.25.05.18-.06.41,0,.56l.56.56c.06.16-.06.4,0,.56l.56.56c.1.29-.11.84,0,1.13l.56.56c.11.28-.11.84,0,1.13l.56.56c.11.29-.11.85,0,1.13l.56.56c.07.16-.08.43,0,.56.38.68,0,.86-1.13.56-.35-.17-.85-.35-1.13-.56l-1.69-2.25c-.07-.16.07-.41,0-.56l-.56-.56c-.08-.16.08-.45,0-.56-.44-.47-1.18-1.13-1.69-.56-1.53,1.12-.74,1.12-1.13,2.25l-.56.56c-.05.27-.05.86,0,1.13l.56.56c.12.68-.12,1.56,0,2.25l.56.56c.04.1.03.46,0,.56-1.03.88-1.49,2.08-1.69,3.38-.02.19,0,.38,0,.56l.56,3.38c.02.37-.04.76,0,1.13l.56,1.69c.04.18-.05.39,0,.56l.56,1.13c.06.17-.07.41,0,.56l1.13,1.69c.08.14-.08.43,0,.56l4.51,5.07c.26.17,1.11.22,1.69.56l.56.56c.15.07.41-.07.56,0l.56.56c.15.06.38-.05.56,0l.56.56c1.57.2,3.44-.14,5.07,0,.27.15.27.34,0,.56-.4.62-3.09,1.85-3.94,2.01-.75.14-3.38.28-4.23.29-1.06.02-2.4-1.3-2.57.81-.16,1.95,3.01,3.47,3.8,5.37,4.14,2.39,7.13,4.08,12.16,3.23,1.92-.33,3.34-1.88,4.63-2.14,1.8-.36.03,2.32,1.41,2.26l.85-3.94,1.98,7.88,1.12-1.12.57,4.5,1.12-2.81.57,3.94c1.47-1.68,2.48-.51,3.63,1.15,2.31,3.34,1.41,5.21.3,7.84.36.63.69,1.26.97,1.87.22.48.51,1.12.78,1.82.01-.18.03-.34.06-.46.18-.87,1.06-2.57,1.45-3.65.33-.91-.33-1.52,1.26-1.25-.35,2.31-1.88,4.35-1.69,6.76l4.5-3.94c-.37,2.17-2.26,3.46-2.36,5.6.13-.03.26-.07.4-.1.73-.17,2.03-.28,2.48-.98.16-.25.39-.33.67-.27.23-.4.7-.31,1.2-.02.85.51,1.44,1.41,1.93,2.29.15.22.29.47.42.72.08-.03.17-.05.26-.06-.08-.44-.17-.88-.29-1.32-.12-.48-.13-1.18.42-1.34.59-.17,1.26.55,1.61.91-.37-.37.4.3.49.37.22.16.44.32.65.5.72.59,1.4,1.28,1.92,2.06.13.19.31.45.5.75.07-.22.2-.43.39-.65.14-.27-.3-1.16.28-1.13,2.25,1.85,4.63,2.15,4.79,5.63l.56-2.81c.64.53,3.08.9,3.3,1.21.27.4.21,2.52.65,3.29l1.45-2.83c2.17.69,2.92.15,2.49,2.83,1.52-1.39,1.08-2.34,3.55-1.11.54.27.34,1.13.63,1.07,1.97-.42,2.91-1.47,3.98,1.17.57-1.19,1.08-1.63,2.26-2.25l1.12,1.68c1.18-1.99,2.77-.67,3.96-.78,1.47-.14.66-1.08,3.96-.38.3.06.15-.73.39-.9.5-.36,1.46-.31,2.11-.76l.56,1.69c.01-.76.79-1.99,1.42-2.25,1.21-.5.67,1.4,1.12,1.12.92-2.06,2.33-2.01,4.22-2.82l.28,1.69c1.2-1,1.79-2.91,3.39-3.37,1.61-.47.25,1.93,1.17,2.22.96-.86,1.96-1.7,2.49-2.87.68-1.5,1.95-1.23,3.29-.26.02-.04.03-.08.06-.11.15-.24.3-.45.45-.64.26-.83.66-1.62,1.22-2.34,1.46-1.89,3.94-.36,6.19,2.34.02-.01.04-.02.06-.03.47-2.36-1.83-3.91-1.69-6.2l3.94,2.82-1.69-6.76c1.68-.28.9.42,1.17,1.34.03.1.06.19.08.28.01-1.42.59-2.4,2.41-1.89-.28-1.33-.3-2.71.29-4.25l.56.3.57-1.42,1.68,2.81c.78-2.83,2.1-5.46,2.26-8.45l.84,1.13.29-1.69c.13-.16.72.3.85.56.53,1.05-.25,2.76.83,2.82l1.13-7.32c.91-.19.35.74.92,1.16,2.42,1.77,9.29,2.72,12.2,2.11,1.57-.33,6.36-2.95,6.4-4.67,0-.15-.35-1.34-.41-1.38-.93-.7-9.07,1.29-10.1-2.85,2.08.02,4.43,1.22,6.47,1.16,5.58-.17,13.15-5.89,12.69-11.87,0-.52.56-1.08,1.69-1.69.14-.08.42.08.56,0l1.13-1.13c.18-.19.39-.37.56-.56l2.25-2.25c.08-.13-.08-.42,0-.56,1.76-2.08,3.08-5.02-.56-2.25-.77.17-2.44.03-3.38,0-.98.38-2.83.72-2.82-.56h.56l1.69-1.69c.41-.47.73-1.17,1.13-1.69l1.13-1.13c.09-.13-.09-.43,0-.56l1.13-1.13c.12-.48-.14-1.28,0-1.69l1.13-2.25c.24-2.11.15-5.7,0-7.89l-.56-1.69c-.05-.18.06-.41,0-.56l-.56-1.13c-.19-.36-.35-.84-.56-1.13l-1.13-1.13c-.12-.03-.44-.03-.56,0l-1.69,1.69c-.09.12.09.44,0,.56l-1.13,1.13c-.09.12.09.45,0,.56l-1.69,1.69c-.19.19-.34.39-.56.56l-.56.56c-.17.05-1.06.04-1.13,0-.48.35-.48.16,0-.56-.01-.17-.04-.44,0-.56l.56-1.69c.05-.17-.05-.39,0-.56.14-.87.46-1.66,1.13-2.25.13-.45-.13-1.24,0-1.69l.56-.56c.09-.31-.09-.81,0-1.13l.56-1.13c.05-.17-.05-.39,0-.56l.56-1.13c.09-.32-.09-.81,0-1.13l.56-1.13c.05-.17-.05-.39,0-.56l.56-1.13c.05-.17-.05-.39,0-.56l.56-1.69c.09-.32-.09-.81,0-1.13l.56-.56c.13-.46-.13-1.24,0-1.69l.56-.56c.05-.18-.05-.39,0-.56l.56-.56c.09-.32-.09-.8,0-1.13l.56-1.69c.08-.33-.08-.8,0-1.13l.56-.56c.11-.49-.1-1.18,0-1.69l.56-.56c.38-2.06.44-4.11.56-6.2v-1.13c-.03-.19.05-.4,0-.56.49-.22.5-.41,0-.56l.43-.93c.5.39,3,.08,2.39-1.33.7-.13.88-.31.56-.56l.21-.87c-1.46-1.43-2.79-2.89-3.99-4.38,2.62-.97,11.34-6.15,9.87-9.41ZM193.15,182.21h-.01c-.41-.34-.42-.75,0-1.12.24.13.39.36.56.56l.56.56c.14.08.43-.08.56,0l2.82,2.25c.32.09.81-.09,1.13,0l1.13.56c.49.1,1.16-.08,1.69,0,.36.17.35.35,0,.56-.56.35-1.13.37-1.69.56l-.56.56c-.34.08-1.32.07-1.69,0l-.56-.56c-.17-.06-.42.07-.56,0l-.56-.56c-.34-.21-.86-.34-1.13-.56l-1.13-1.13c-.08-.12.07-.4,0-.56l-.56-.56c-.04-.16,0-.37,0-.56ZM344.86,200.53c-.03.12-.08.23-.16.33-.29.37-.68.64-1.09.88-1.36,1.36-3.31,1.59-5.09,2.02-.89.22-1.77.43-2.68.51-.87.07-1.75,0-2.61-.11-.39-.06-.81-.12-1.23-.22-.08.08-.17.14-.25.12-.96-.31-1.8-.85-2.61-1.45-.16-.12-.33-.23-.49-.35-.05.03-.11.05-.16.08-.35.17-.66.33-.96.58-.69.58-1.15,1.31-1.3,2.2-.03.15-.03.29-.04.43.1.11.14.24.1.4-.01.1-.03.2-.04.3.02.06.04.12.06.19.08.01.15.03.23.08.62.39,1.17.91,1.83,1.23.39.19.79.31,1.17.52.38.21.74.45,1.11.68,1.39.89,2.75,1.27,4.4,1.28.02,0,.03,0,.04,0,.29-.08.64-.16.89-.11.28.05.55.11.83.17.31.06.03.35-.07.45-.35.35-.83.59-1.27.82-.32.17-.65.32-.99.45-.98.55-2.11,1.03-3.22,1.15-.76.08-1.36-.15-1.97-.45-.18.02-.35.03-.52,0-1.35-.24-2.63-.84-3.8-1.54-1.15-.68-2.26-1.46-3.21-2.4-.07-.07,0-.18.15-.31,0,0,0,0,0,0-.77-.5-.5-1.54-.23-2.27.35-.96.9-1.82,1.31-2.75.22-.5.33-1.04.53-1.55.27-.66.6-1.3,1.02-1.87.36-.49.78-.89,1.24-1.22.11-.19.23-.38.36-.56.32-.57.64-1.18,1.07-1.68.27-.31.51-.32.83-.08,0,0,.01.01.02.02.09-.09.18-.16.26-.13.66.28,1.26.67,1.84,1.08.15.02.27.05.31.12.03.04.03.08.02.12.09.07.19.14.28.21.81.59,1.65,1.13,2.61,1.45.11.04.14.19.14.36.58.09,1.15.23,1.67.41.06.02.11.04.17.06.11.03.22.04.33.07.21.06.63.16.9.31.15.04.31.09.46.13.1.03.2.05.31.08.46.08.36.07.21.04.13.03.27.05.4.08.08.01.16.02.24.03.07,0,.14.01.21.02.01,0,.02,0,.03,0,.1,0,.2,0,.29,0,.05-.05.1-.09.15-.14.22-.22.89-.14,1.18-.14.07,0,.13.01.2.01,0,0,.02,0,.03-.01.47-.18.96-.34,1.46-.4.1-.01.19-.01.28,0,.11-.05.23-.11.34-.16.52-.24,1.11-.46,1.67-.59.01,0,.77-.19.81.03.07.34.07.68-.01,1.02ZM345.27,196.86c-1.33.95-1.94,1.7-3.66,2.29-2.9.99-6.88-.21-9.03-2.28-.65-.62-2.6-3.35-.27-2.83l2.25,1.69c.15.07.39-.06.56,0l.56.56c.16.06.39-.05.56,0l1.69.56c1.12.29,3.86.2,5.07,0l.56-.56c.49-.11,1.26.13,1.69,0h.02c.49.17.48.36,0,.57ZM344.41,172.05c.98-.66,2.09-.75,3.1-1.41,1.36-.89,2.15-2.92,2.82-3.38.48-.33,2.13-.41,2.25-.25h-.01c.75,1.05.19,3.36.2,4.32,0,.74.4,1.4.36,2.1-.22,4-3.11,9.45-6.53,11.53-1.39.85-4.88.98-1.88,3.14,1.94,1.4,4.23.38,6.58.45.66.02,1.48.33,1.01.99-.14.2-3.38,2.69-3.83,2.94-1.48.82-7.03,2.6-8.62,2.68-3.11.15-7.64-4.02-10.68-5.03-.43-.63.39-6.23.84-6.54,1.01-.68,3.38.21,5.64-1.13,4.7-2.78,5.4-8.16,8.75-10.41ZM352.02,136.02l-.56,1.69c-.09.52.1,1.2,0,1.69l-.56.56c-.12.48.12,1.22,0,1.69l-.56.56c-.08.32.09.8,0,1.13l-.56.56c-.12.47.12,1.22,0,1.69l-.56.56c-.05.17.05.39,0,.56l-.56,1.13c-.09.32.09.81,0,1.13l-.56,1.13c-.05.17.05.39,0,.56l-.56,1.69c-.09.32.09.81,0,1.13l-.56,1.13c-.05.17.05.39,0,.56l-.56.56c-.09.31.09.81,0,1.13l-.56,1.13c-.05.17.05.39,0,.56l-.56,1.13c-.09.31.09.82,0,1.13l-.56.56c-.13.45.13,1.25,0,1.69-.67.59-1,1.38-1.13,2.25-.09.31.1.83,0,1.13l-.56,1.69c-.17.38-.4.74-.56,1.13l-.56.56c-.07.15.07.41,0,.56l-.56,1.13c-.07.15.07.41,0,.56l-1.13,1.13c-.12.24.12.89,0,1.13l-.56.56c-.08.14.08.42,0,.56l-.56.56c-.21.35-.34.83-.56,1.13l-1.69,1.69c-.12.09-.42-.08-.56,0l-1.69,1.13c-1.36.45-3.05,1.17-3.92-.32,2.33-7.33,2.98-15.19,6.18-22.21l.95,5.45-.39,3c1.49-.75,2.29-2.43,2.81-3.94,0-.02,0-.05,0-.07-.03.02-.06.05-.07.06l-1.03-8.59c2.5-5.78,4.4-11.39,7.35-16.95.44-.82.17-1.81,1.58-1.5h-.01s-.11.39-.11.39c.06-.13.11-.25.17-.38.12-.6.89-1.31.56-2.25-3.08-.62-4.1,1.52-5.53,3.76l-4.04,7.5,1.23-9.76c1-1.39,1.64-3.72,2.71-4.89l.56-.56c.1-.06,1.6-.57,1.69-.56l1.13,1.13h-.06c.37.17,1.12.32,1.69.55.8.67,1.82.91,2.82,1.13.24.12,1.06-.34,1.15.33-.12,1.57.09,3.18-.03,4.74Z"/>
        <path class="cls-1" d="M326.66,180.88c0-.12-.02-.24-.04-.34.04.08.08.16.13.24-.03.03-.06.07-.09.1Z"/>
        <path class="cls-1" d="M270.33,208.14c.03-.08,1.49-.54.85-1.12-1.93,1.39-4.22.16-6.19-.02-1.29-.12-2.62.14-3.92-.02-2.01-.25-8.28-3.06-9.36-4.72-1.54-2.36-.51-3.31,1.92-1.92,1.49.85,2.53,2.11,4.47,2.85,4.08,1.56,18.79,1.61,22.93.17,1.35-.47,6.72-4.28,7.32-3.66.35.36-.12,1.94-.53,2.57-1.11,1.71-6.85,4.31-8.89,4.63-1.5.24-5.46-.11-6.36.69-.13.11,1.1,2.46.57,3.38-.19-.05-2.88-2.62-2.82-2.82h.01Z"/>
        <path class="cls-1" d="M211.73,181.09c-1.23-.69-1.86-2.07-1.69,0-.05-.22-.71-.89-.88-1.63-.36-1.62-.98-5.89.88-6.82.04.14.87.67,1.04,1.5.59,2.91-1.4,2.83.65,6.95h0Z"/>
        <path class="cls-1" d="M337.38,120.8c.7.94,1.4,1.78,1.16,3.07-.08.41-1.08.18-1.17.65-.42,2.08.45,3.37-.55,5.86.11-2.73-.13-5.5-.03-8.23.03-.91.56-1.19.6-1.35h-.01Z"/>
        <path class="cls-1" d="M345.27,196.87v-.56c.23-.07,1.74-1.74,1.69-.84-.08,1.56-1.24,1.08-1.69,1.41h0Z"/>
        <path class="cls-1" d="M343.01,127.56c-.06.06-1.11-.15-1.41.56l-.27-.27c.64-.5.61-1.2.56-1.98.25-.32,1.59,1.22,1.12,1.69h0Z"/>
        <path class="cls-1" d="M334,101.08c.06-1.4.46-1.75.56-2.25l-.09,1.87-.47.38Z"/>
        <path class="cls-1" d="M212.3,185.6l-.48-.38-.08-1.87s.39-.15.47.38c.11.69.02,1.3.09,1.87Z"/>
        <path class="cls-1" d="M192.58,150.67c-.94-.45-.88-1.42-1.13-2.25-.22-.74-.41-1.5-.56-2.25,1.2.95,1.34,3.02,1.69,4.51h0Z"/>
        <path class="cls-1" d="M334.56,111.23c-.06-.36-.49-.92-.56-2.25l.47.38.09,1.87Z"/>
        <rect class="cls-1" x="190.89" y="181.09" width=".56" height="2.25"/>
        <path class="cls-1" d="M334.56,97.14v.56h-2.25l.37-.48c.62-.19,1.26-.07,1.88-.09h0Z"/>
        <path class="cls-1" d="M347.52,152.36l.09-1.32.47-.37c-.2.71-.47,1.36-.56,1.69Z"/>
        <path class="cls-1" d="M350.9,130.95c-1.04.04-2.25-.15-2.82-1.13,1.01.42,1.67.54,2.82,1.13Z"/>
        <path class="cls-1" d="M194.27,156.86c-.06-.23-.37-.91-.56-1.69l.47.37.09,1.32Z"/>
        <path class="cls-1" d="M351.46,137.71l.09-1.32.47-.37c-.1,1.25-.55,1.6-.56,1.69Z"/>
        <path class="cls-1" d="M195.96,163.63c-.08-.3-.37-.99-.56-1.69l.47.36.09,1.33Z"/>
        <path class="cls-1" d="M343.58,165.32c-.12-.98.07-1.99,1.13-2.25-.24.8-1.01,1.88-1.13,2.25Z"/>
        <path class="cls-1" d="M343.01,168.13l.09-1.32.48-.37c-.22.66-.22.9-.56,1.69h0Z"/>
        <path class="cls-1" d="M337.94,196.87l-1.32-.1-.37-.47c.59.18,1.5.51,1.69.56h0Z"/>
        <path class="cls-1" d="M193.14,181.09c0,.38-.01.75,0,1.13l-.56-.28c0-.47-.01-.94,0-1.41l.56.56Z"/>
        <path class="cls-1" d="M199.9,185.04l-.79-.09-.33-.47c.89.25,1.06.55,1.13.56h0Z"/>
        <path class="cls-1" d="M197.65,184.47c-1.09-.31-2.36-1.19-2.82-2.25.99.61,2.3,1.24,2.82,2.25Z"/>
        <path class="cls-1" d="M211.73,182.78v-1.13c.03.09.4.16.48.42.13.4-.45.6-.48.71Z"/>
        <path class="cls-1" d="M335.12,113.48c-.02-.07-.35-.09-.56-1.13l.47.33.09.79h0Z"/>
        <path class="cls-1" d="M335.69,115.73c-.02-.07-.32-.25-.56-1.13l.47.33.09.79h0Z"/>
        <path class="cls-1" d="M334.56,179.96l1.69-1.13c-.41.24-.17.62-1.69,1.13Z"/>
        <path class="cls-1" d="M336.25,117.42c-.02-.06-.32-.43-.56-1.13l.47.33.1.8h-.01Z"/>
        <path class="cls-1" d="M198.77,172.08c-.04-.09-.33-.52-.56-1.13l.47.33.1.8h-.01Z"/>
        <path class="cls-1" d="M341.32,171.51l.1-.79.47-.33c-.22.48-.44.86-.56,1.13h-.01Z"/>
        <path class="cls-1" d="M195.39,161.37c-.02-.07-.32-.25-.56-1.13l.47.33.09.79h0Z"/>
        <path class="cls-1" d="M345.27,159.68l.09-.79.47-.33c-.25.83-.54,1.06-.56,1.13h0Z"/>
        <path class="cls-1" d="M194.83,159.12c-.02-.07-.32-.2-.56-1.13l.47.33.09.79h0Z"/>
        <path class="cls-1" d="M345.83,157.99l.09-.79.47-.33c-.25.84-.54,1.06-.56,1.13h0Z"/>
        <path class="cls-1" d="M346.96,154.61l.1-.8.47-.33c-.25.85-.54,1.06-.56,1.13h-.01Z"/>
        <path class="cls-1" d="M348.08,150.1l.09-.79.47-.33c-.25.88-.54,1.06-.56,1.13h0Z"/>
        <path class="cls-1" d="M348.65,147.85l.09-.79.47-.33c-.24.89-.55,1.06-.56,1.13h0Z"/>
        <path class="cls-1" d="M357.1,128.13s.66-.07.56.56c-.36.06-.84-.09-1.13,0l.56-.56h.01Z"/>
        <path class="cls-1" d="M334.56,195.74c-.86-.39-1.92-.71-2.25-1.69.8.18,1.97.88,2.25,1.69Z"/>
        <path class="cls-1" d="M336.82,118.55s-.33.02-.56-.56l.56.56Z"/>
        <path class="cls-1" d="M337.38,119.68s-.37-.04-.56-.56l.56.56Z"/>
        <path class="cls-1" d="M196.52,186.16c-.49-.23-.53-.54-.56-.56l.56.56Z"/>
        <path class="cls-1" d="M343.01,196.87s-.05-.43.56-.56l-.56.56Z"/>
        <path class="cls-1" d="M295.4,238c.37,0,.37.56,0,.56s-.37-.56,0-.56Z"/>
        <path class="cls-1" d="M201.59,185.6v-.56c.24.04.46-.06.56.28,0,.37-.46.22-.56.28Z"/>
        <path class="cls-1" d="M194.83,185.04c-.55-.47-.63-.4-1.13-1.13l1.13,1.13Z"/>
        <path class="cls-1" d="M193.7,183.35s-.43.02-.56-.56l.56.56Z"/>
        <path class="cls-1" d="M194.27,182.22c-.43-.25-.38-.36-.56-.56l.56.56Z"/>
        <path class="cls-1" d="M197.65,186.73c-.6-.11-.53-.55-.56-.56l.56.56Z"/>
        <path class="cls-1" d="M207.79,181.09c-.4-.14-.52-.55-.56-.56l.56.56Z"/>
        <path class="cls-1" d="M205.54,180.53c-.62-.23-.53-.55-.56-.56l.56.56Z"/>
        <path class="cls-1" d="M203.85,179.4c-.7-.49-.73-.74-1.13-1.13l1.13,1.13Z"/>
        <path class="cls-1" d="M336.82,178.84l1.69-1.69c-.68.88-.77,1-1.69,1.69Z"/>
        <path class="cls-1" d="M201.59,177.15c-.14-.17-.37-.3-.56-.56l.56.56Z"/>
        <path class="cls-1" d="M339.07,176.02l.56-.56c-.26.45-.54.53-.56.56Z"/>
        <path class="cls-1" d="M201.03,176.02c-.13-.19-.65-.35-1.13-1.13l1.13,1.13Z"/>
        <path class="cls-1" d="M339.63,174.89l.56-.56c-.29.55-.54.53-.56.56Z"/>
        <path class="cls-1" d="M199.9,174.33s-.32-.08-.56-.56l.56.56Z"/>
        <path class="cls-1" d="M340.2,173.2l1.13-1.13c-.4.85-1.09,1.06-1.13,1.13Z"/>
        <path class="cls-1" d="M199.34,173.2s-.33.02-.56-.56l.56.56Z"/>
        <path class="cls-1" d="M191.73,172.64c.37,0,.37.56,0,.56s-.37-.56,0-.56Z"/>
        <path class="cls-1" d="M335.69,196.3l-.56-.56c.51.18.53.55.56.56Z"/>
        <path class="cls-1" d="M341.89,169.82l.56-.56c-.16.37-.54.51-.56.56Z"/>
        <path class="cls-1" d="M198.21,169.82s-.33.04-.56-.56l.56.56Z"/>
        <path class="cls-1" d="M199.34,186.73l.56-.56s.05.43-.56.56Z"/>
        <path class="cls-1" d="M197.65,168.13c-.05-.1-.94-.27-1.13-1.13l1.13,1.13Z"/>
        <path class="cls-1" d="M350.34,142.21l.56-.56c-.16.62-.55.52-.56.56Z"/>
        <path class="cls-1" d="M196.52,164.75s-.38.04-.56-.56l.56.56Z"/>
        <path class="cls-1" d="M344.7,161.37l.56-.56c-.19.61-.55.53-.56.56Z"/>
        <path class="cls-1" d="M350.9,139.96l.56-.56c-.13.61-.55.52-.56.56Z"/>
        <path class="cls-1" d="M346.39,155.74l.56-.56c-.17.59-.55.53-.56.56Z"/>
        <path class="cls-1" d="M193.7,154.61s-.42.04-.56-.56l.56.56Z"/>
        <path class="cls-1" d="M193.14,152.92s-.41.05-.56-.56l.56.56Z"/>
        <path class="cls-1" d="M353.44,187.85c.37,0,.37.56,0,.56s-.37-.56,0-.56Z"/>
        <path class="cls-1" d="M346.39,129.26l-1.13-1.13c.78.02,1.03,1.08,1.13,1.13Z"/>
        <path class="cls-1" d="M343.01,129.26c.19-.2.23-.38.56-.56l-.56.56Z"/>
        <path class="cls-1" d="M349.21,146.16l.56-.56c-.16.62-.55.52-.56.56Z"/>
        <path class="cls-1" d="M349.77,143.9l.56-.56c-.16.6-.55.52-.56.56Z"/>
        <path class="cls-1" d="M363.85,114.04c.74-1.27.02-2.59-1.13-3.38-.21-.06-.89-.05-1.13,0l-.56.56c-.15.06-.38-.05-.56,0l-.56.56c-.34.06-.76-.03-1.13,0-.85.48-1.96.46-2.82,0-.37-.01-.81.06-1.13,0-.25-.96.32-1.9,1.69-2.82.08-.13-.08-.41,0-.56l.56-.56c.06-.15-.05-.38,0-.56l.56-1.13c.04-.37-.02-.76,0-1.13.51-1.35.51-3.17,0-4.51-.03-.55.07-1.16,0-1.69l-.56-.56c-.04-.18.05-.39,0-.56l-.56-1.13c-.07-.16.07-.41,0-.56l-.56-.56c-.08-.14.09-.44,0-.56l-2.25-2.25c-.3-.22-1.01-.39-1.13-.56-.48.35-.48.16,0-.56.15-.19.93-.27,1.04-.9.1-.55-.55-2.11-.52-3.34.03-1.23.58-2.27.62-3.36.78-21.87-5.18-34.66-20.3-49.57-7.37-7.26-16.33-14.14-24.5-20.59-5.49-4.33-30.07-12.99-37.17-13.54-14.78-1.15-17.34,2.3-28.84,8.92-19.19,11.03-33.23,17.15-45.15,37.11-5.89,9.85-4.96,17.9-6.32,28.62-.35,2.79.7,4-2.24,5.93l.09.07-1.13.56c-.14.06-.37-.04-.56,0l-.56.56c-1.33.12-3.81.19-5.07,0l-.56-.56c-.17-.06-.4.06-.56,0l-.56-.56c-.14-.08-.43.08-.56,0-2.01-2.68-3.33-3.05-3.94-1.13-.11.96-.08,2.4,0,3.38l.56,1.69c.08.34-.1.85,0,1.13l.56.56c.07.16-.07.41,0,.56l.56.56c.08.15-.08.42,0,.56l1.13,1.13c.07.11-.05.37,0,.56v.56c-.15-.07-.41.08-.56,0l-.56-.56c-.13-.08-.42.08-.56,0-.54-.65-1.1-.84-1.69-.56-.59.59-.36.66-.56,1.13l-.56.56c-.12.64.04,1.53,0,2.25-.5,1.43-.49,3.12,0,4.51.04.93-.08,1.91,0,2.82l.56,1.13c.06.36-.08.82,0,1.13l.56,1.13c.06.17-.06.4,0,.56l.56.56c.07.15-.07.41,0,.56l.56.56c.08.14-.08.43,0,.56l.56.56c.22.34.33.83.56,1.13l2.82,2.82c.31.23.8.34,1.13.56l.56.56c.13.08.42-.08.56,0l.56.56c.14.08.41-.08.56,0l.56.56c.14.08.53-.09.56,0,.23.28.04.65-.56,1.13-.09.06-.36-.02-.56,0-.85.49-1.96.47-2.82,0-.37-.02-.77.05-1.13,0-2.01-1.96-2.43-.41-1.69,1.69.08.33-.09.82,0,1.13l.56.56c.11.29-.12.87,0,1.13l1.13,1.13c.09.13-.09.44,0,.56l3.38,3.38c.12.09.42-.08.56,0l.56.56c.15.06.39-.06.56,0l1.13.56c.34.08,1.03-.1,1.13,0,.39.48.36.65,0,1.13-.02.19.04.4,0,.56l-.56,1.13c-.16,2.01-.12,4.72,0,6.76l.56,2.25c.04.18-.04.38,0,.56l.56,1.13c.12.47-.12,1.21,0,1.69l.56.56c.08.33-.08.8,0,1.13l.56.56c.13.67-.15,1.62,0,2.25l.56,1.13c.05.17-.04.38,0,.56l.56.56c.04.18-.04.38,0,.56.19.56.38.75.56.56h1.13c.03-.12.04-.25.05-.37l-.7-1.87c-.04-.18.03-.38,0-.56-.22-1.2-.59-2.33-1.13-3.38-.11-.5.11-1.21,0-1.69l-.56-.56c-.08-.33.07-.78,0-1.13l-.56-1.13c-.1-.49.08-1.16,0-1.69l-.56-2.82c-.03-.56,0-1.13,0-1.69.34-.49.36-.64,0-1.13.03-.55-.07-1.16,0-1.69l.56-1.13c.08-.15-.09-.44,0-.56.09-.69.44-1.05,1.13-1.13.02,0,.05,0,.07,0,0,0,.01,0,.02,0,0,0,0,0,0,0,.13-.01.3.03.47,0,.33-.14.65-.22.97-.28,2.08-.4,4.01.85,5.32,2.52,0,.02-.01.03-.02.04.19.17.33.33.5.51l.04.04s.03-.02.04-.03l.56.56s-.04.03-.07.04c.03.13-.06.34-.01.48.03.01.05.03.08.04l.56.56s-.05.02-.08.03c.07.29-.09.78,0,1.09h0s.05,0,.08,0l.56.56s-.05.02-.08.04c.05.32-.06.75,0,1.08.03,0,.05,0,.08.01.87.73,2.24-.51,2.47-1.32.48-1.67.02-5.3-.22-7.13,1.37-.7,1.51-1.34,0-1.69l.56-1.13c1.39-.53,1.48-1.04,0-1.13l.56-1.13c1.49.19,1.61-.04.56-1.13l.56-.56c.48-.21.48-.4,0-.56l1.13-1.13c.48-.21.48-.4,0-.56l.56-.56c.48-.21.49-.4,0-.56l.56-.56c.49-.18.49-.37,0-.56l.56-1.13c1.55-.6,1.5-1.09,0-1.69l1.13-1.13c.18.49.37.49.56,0l1.69-1.69c1.63.44,2.1-.34,1.13-1.69l.56-.56c.48-.21.48-.4,0-.56l.56-.56c.47-.24.48-.43,0-.56l.56-.56c.47-.24.49-.43,0-.56l.56-1.13c1.1-.3,1.08-.81,0-1.13l.56-1.13c1.51-.73,1.7-2.49,0-2.82.49-1.17.45-2.71,0-3.94,1.41-.49,1.43-.72,0-1.13.54-.51,1.07-.28,1.69,0,.22.48.41.49.56,0l.56.56c.48,1.41,1.04,1.49,1.13,0l1.13.56c.31,1.1.81,1.08,1.13,0l1.69.56c-.04,1.88,4.07,2.39,4.51.56,1.82.54,3.81.46,5.63,0,.64,1.64,3.38,1.71,3.94,0l1.69-.56c.8,1.54,2.07,1.64,2.82,0l1.69-.56c.62,1.44,1.05,1.44,1.69,0l1.69-.56c.68,1.52,1.57,1.55,2.25,0l1.13-.56c.68,1.52,1.57,1.55,2.25,0l1.13-.56c.81,1.53,2.04,1.61,2.82,0l1.69-.56c.49,1.58,2.96,1.68,3.38,0,1.07-.4,2.19-.59,3.38-.56,1.36,1.6,4.32,1.68,5.63,0,2.38-.49,5.01-.48,7.32,0,1.13,1.67,3.9,1.59,5.07,0l2.25.56c.69,1.53,1.56,1.51,2.25,0l1.69.56c.53,1.49,1.43,1.57,1.69,0l1.13.56c.47,1.53,1.98,1.6,2.25,0l1.13.56c.37,1.55,1.51,1.57,1.69,0l1.13.56c.37,1.56,1.52,1.57,1.69,0l.56.56c.31,1.09.82,1.08,1.13,0l.56.56c.36,1.56,1.52,1.57,1.69,0l.56.56c.31,1.09.82,1.08,1.13,0l1.13.56c.36,1.56,1.52,1.57,1.69,0l.56.56c.36,1.56,1.52,1.57,1.69,0l.56.56c.49,1.55,1.21,1.52,1.69,0l.56.56c.49,1.55,1.21,1.52,1.69,0l1.69.56c.68,1.58,2.41,1.63,2.82,0l1.69.56c.54,1.68,2.8,1.61,3.38,0,2.39.54,4.91.44,7.32,0,.37,1.58,2.25,1.65,2.25,0,.79-.19,1.54-.38,2.25-.56,1.38-.04,1.83-.19,3.38-.56,1.69.89,3.83.74,6.43-.45,7.98-6.37,13.09,6.4,8.43,11.72-.97-3.53-3.67-7.27-5.3-1.78-.98,3.31,3.2,7.42,6.02,8.58,1.6.66,5.8,1.79,5.83-.6.47-.14,1.49-1.3,2.26-.87,2.66,1.47-.21,3.86-1.74,5.05-2.08,1.62-5.21,3.48-7.85,3.71-.3,1.9,1.32,2.1,1.97,2.79.52.56.76,1.29,1.16,1.68.66.64,1.21.87,1.94,1.72.17.22,0,.4-.56.56-.92.29-3.21.83-3.38,1.43-.15.55.56.77.57.82.54.39,1.12.36,1.69,0,.37,0,.81.06,1.13,0l1.13-.56c1.1-.4,1.23-.15,2.25-1.13l.56-.56c.05-.17-.04-.38,0-.56l-1.13-1.13c-.12-.09-.43.09-.56,0l-.56-.56c-.32-.23-.83-.32-1.13-.56l-1.69-1.69c-.19-.16-.5-.23-.56-.56-.15-.4.22-.77,1.13-1.13.3-.23.79-.34,1.13-.56l.56-.56c.12-.09.44.09.56,0l1.69-1.69c.77-.68,1.01-.92,1.69-1.69l1.69-1.69c.08-.13-.08-.4,0-.56l.56-.56c.1-.29-.08-.79,0-1.13ZM221.3,25.84c7.09-6.64,13.86-9.68,22.17-14.46,4.85-2.79,9.46-6.82,14.9-8.2,6.23-1.58,11.48-1.27,17.73,0,3.2.65,28.21,9.36,29.08,10.65h-.01c.23.36.02,1.4.37,2.16.9,1.94,4.81,5.46,6.39,7.71,6.93,9.87,10.86,19.22,13.75,30.76,1.71,6.85,7.14,10.26,9.55,15.8,1.48,3.39.14,5.87-.11,9.41-4.18-1.08-8.19-2.98-12.39-4.24-24.88-7.47-64.15-9.16-89.83-5.86-8.03,1.03-15.95,3.22-23.99,3.9.71-7.08-4.22-12.88-2.68-19.87,1.18-5.38,5.64-12.55,8.24-17.68,2.41-4.76,2.7-6.21,6.83-10.08ZM194.28,71.51c.52-9.3.31-15.19,5.16-23.57,3.9-6.74,9.13-13.42,15.11-18.41-.35,1.4-.99,3.01-1.58,4.33-2.97,6.68-9.58,16.09-9.37,23.32.17,5.8,4.23,11.28,3.03,17.39l-12.92,3.41c-.48-2.23.46-4.47.57-6.47ZM200.2,118c-.89,1.01-5.26,4.67-6.32,4.95-2.17.57-5.95.62-8.06-.17-2.11-.79-4.63-2.33-5.01-4.59-.31-1.85,2.91-1.14,4.05-1.44.82-.22,2.44-1.59,4.03-2.17,4.5-1.64-2.32-2.6-3.63-3.07-7.02-2.51-10.74-11.95-9-18.87,1.33.47,7.72,1.04,7.88-.3.29-2.45-2.59-2.45-3.66-3.66-.68-.77-2.26-3.74-1.98-4.77.28-1.03.99-.54,1.54-.46,2.32.31,4.11,1.03,6.6.7,1.14-.15,4.01-.82,3.7-2.22.69.1,1.09.76,1.15,1.41.14,1.5-1.7,4.97-1.76,7.31-.06,2.34,1.03,3.75,1.17,5.92-1.9,1-6.07-1.36-7-1.11-2.53.66.68,6.46,1.91,7.61,1.23,1.15,7.31,3.49,7.34,3.92.09,1.14-2.04.24-2.41.35-3.3.91,1.05,5.01,2.14,5.01h10.97c-1.31,1.81-2.16,3.95-3.65,5.65ZM211.14,99.07c-.15,1.13-1.91,5.85-2.61,6.54-.76.75-5.41,3.95-6.35,4.22-1.86.53-3.77.17-5.65.26-.6-2.31,4.65-4.48,3.12-6.78-1.14-1.71-2.91.41-3.98.59-2.79.46-6.82-1.61-8.71-3.67-.03-1.09,5.52-1.35,6.61-1.84,2.14-.94,4.75-4.41,4.09-6.9-1.5-1.6-4.18,5.85-4.93,1.28-.58-3.49.25-6.52,1.6-9.68.66-.46,5.62,1.22,5.74,2.61h-.02s10.87,4.64,10.87,4.64c.45.64.38,7.47.22,8.73ZM348.65,90.94l-1.13.56c-.32.08-.78-.06-1.13,0l-.56.56c-.35.07-.83-.09-1.13,0l-1.13.56c-.17.06-.39-.05-.56,0l-1.13.56c-.17.05-.39-.05-.56,0l-1.13.56c-.17.05-.39-.05-.56,0l-1.13.56c-.32.08-.8-.08-1.13,0l-1.13.56c-.33.07-.78-.07-1.13,0l-1.13.56c-.68.12-1.54-.09-2.25,0l-2.25.56c-1.48.08-3.02,0-4.51,0l-4.51-.56c-.93-.02-1.89.06-2.82,0l-1.69-.56c-.72-.08-1.57.11-2.25,0l-1.69-.56c-.34-.07-.8.08-1.13,0l-1.13-.56c-.33-.08-.79.08-1.13,0l-.56-.56c-.48-.12-1.21.12-1.69,0l-.56-.56c-.48-.12-1.21.12-1.69,0l-1.13-.56c-.33-.08-.8.08-1.13,0l-.56-.56c-.33-.08-.8.08-1.13,0l-1.13-.56c-.33-.08-.79.08-1.13,0l-1.13-.56c-.34-.07-.79.07-1.13,0l-1.13-.56c-.66-.13-1.58.13-2.25,0l-1.13-.56c-.68-.12-1.56.11-2.25,0l-1.13-.56c-.54-.08-1.15.07-1.69,0l-1.69-.56c-1.1-.11-2.28.1-3.38,0-.87-.35-1.81-.53-2.82-.56-3.93-.23-9.02-.22-12.96,0-1.01.04-1.94.23-2.82.56-1.29.1-2.67-.12-3.94,0l-2.25.56c-.73.08-1.53-.09-2.25,0l-2.25.56c-.72.1-1.54-.1-2.25,0l-1.13.56c-.72.1-1.54-.1-2.25,0l-1.69.56c-.54.07-1.15-.07-1.69,0l-1.69.56c-.89.12-1.92-.11-2.82,0l-1.13.56c-1.08.12-2.29-.1-3.38,0l-2.25.56c-1.73.09-3.93.14-5.63,0l-1.13-.56c-.54-.07-1.18.09-1.69,0l-1.13-.56c-.5-.1-1.21.11-1.69,0l-1.13-.56c-.33-.08-.81.09-1.13,0l-.56-.56c-.32-.09-.82.09-1.13,0l-.56-.56c-.31-.1-.82.1-1.13,0l-.56-.56c-.3-.1-.83.1-1.13,0l-.56-.56c-.3-.1-.84.1-1.13,0l-.56-.56c-.17-.06-.4.06-.56,0l-.56-.56c-.16-.06-.4.06-.56,0l-1.13-.56c-.16-.06-.4.07-.56,0l-1.13-.56c-.16-.07-.41.07-.56,0l-.56-.56c-.16-.07-.41.07-.56,0l-1.13-.56c-.38-.18-.75-.37-1.13-.56l-.56-.56c-.15-.08-.42.08-.56,0l-.56-.56c-.14-.08-.42.08-.56,0l-1.13-1.13c-.12-.09-.42.08-.56,0l-.56-.56c-.18-.07-.46.08-.56,0l-.56-.56v-.05c-.17-.21-.66-1.05-.57-1.12,4.6-.76,8.87-2.77,13.39-3.8,26.66-6.09,54.54-6.88,81.56-4.11,19.92,2.04,39.86,6.71,56.99,17.4.64.4,1.75.55,1.88.65,1.37,1.04-.89,1.04-1.13,1.12ZM350.9,88.13c-4.29-2.63-8.81-4.86-13.45-6.83.25-5.58,1.73-9.45-1.51-14.55-2.71-4.27-6.08-6.6-7.74-11.98-2.64-8.56-3.86-16.13-9.31-23.94l-6.59-10.88c4.11,3.44,8.85,6.15,12.96,9.58,7.37,6.13,15.27,14.95,20.11,23.28,6.12,10.54,6.96,23.42,5.53,35.32Z"/>
        <path class="cls-1" d="M201.03,124.75c1.14,1.37.38,3.6.61,5.31.53,4,2.48,8.01,1.09,12.16,3.74-1.56,1.3,2.51,1.69,4.78.21,1.18,1.46,2.3,1.66,3.99.31,2.74.07,6.68.7,9.43.26,1.12,1.38,1.79,1.58,2.93.26,1.53.12,4.79,0,6.47-.05.74-.09,2.76-1.12,2.82-.41-4.93-3.37-9.45-3.39-14.65-1.36-.07-.99-.18-1.11.85-.27,2.5-1.23,4.48-.59,7.04-1.79-.31-1.59-1.26-2.25-2.25l-1.3-3.96c3.18-3.7,1.65-7.1-.58-10.8-1.54-4.91-3.54-9.38-6-13.4-.44-.92-1.48-1.46-1.13-2.82,1.21-.12,1.44-.88,2.55-.04,2.43,1.86,4.27,6.29,5.69,8.99.3.58.65,1.81,1.34,1.75-.82-3.33-1.06-6.77-1.69-10.14l2.13-2.66c.34-1.91,0-3.88.12-5.79h0Z"/>
        <path class="cls-1" d="M330.05,97.7l-.36.47c-2.16-.07-5.23.71-6.97-.47,2.42.09,4.9,0,7.32,0h0Z"/>
        <path class="cls-1" d="M275.96,89.82c-2.42-.05-4.9-.06-7.32,0,1.73-1.18,4.81-.4,6.97-.47l.36.47h-.01Z"/>
        <path class="cls-1" d="M231.45,93.76l-.36.47c-1.6-.01-4.12.66-5.27-.47,1.85.08,3.78.06,5.63,0Z"/>
        <path class="cls-1" d="M324.98,96.01c-1.4-.01-3.63.45-4.51-.56,1.4.02,3.62-.45,4.51.56Z"/>
        <path class="cls-1" d="M213.42,96.58c.07-1.31-.04-2.64,0-3.94l.47.36c.2,1.06.2,2.17,0,3.23l-.47.36h0Z"/>
        <path class="cls-1" d="M196.52,128.13c-2.03-1.75-3.33-2.62-6.2-2.25,2.04-1.66,5.1.15,6.2,2.25Z"/>
        <path class="cls-1" d="M263.01,89.82c-.45.02-2.15.47-3.38.56.57-1.04,2.33-.44,3.38-.56Z"/>
        <path class="cls-1" d="M188.63,136.02c-.09-.62-.48-1.4-.56-2.82l.47.37.09,2.44h0Z"/>
        <path class="cls-1" d="M265.26,87.56c-.15,0-1.65.47-2.82.56l.37-.47,2.44-.09h0Z"/>
        <path class="cls-1" d="M281.04,88.13c-1.11-.1-2.67-.55-2.82-.56l2.44.09.37.47h0Z"/>
        <path class="cls-1" d="M258.5,88.13c-.12.01-1.17.44-2.25.56l.38-.47,1.87-.09Z"/>
        <path class="cls-1" d="M253.99,88.69c-.12.01-1.25.43-2.25.56l.38-.47,1.87-.09Z"/>
        <path class="cls-1" d="M283.29,90.38l-1.87-.09-.38-.47c1.26.07,2.13.55,2.25.56Z"/>
        <path class="cls-1" d="M190.89,145.6l-.44-.39c-.19-1.01-.47-1.99-.69-2.99,1.38.75.92,2.25,1.13,3.38Z"/>
        <path class="cls-1" d="M233.71,91.51c-.12.01-.99.5-2.25.56l.38-.47,1.87-.09Z"/>
        <path class="cls-1" d="M331.74,95.45c-.14.02-1.01.49-2.25.56l.38-.47,1.87-.09Z"/>
        <path class="cls-1" d="M189.76,125.88c-.07.04-1.08,1.06-1.13,1.13-.13-1.2-.08-1.25,1.13-1.13Z"/>
        <path class="cls-1" d="M286.11,88.69c-1.14-.15-1.59-.55-1.69-.56l1.32.09.37.47Z"/>
        <path class="cls-1" d="M246.1,89.82c-.1.01-.57.41-1.69.56l.37-.47,1.32-.09Z"/>
        <path class="cls-1" d="M242.72,90.38c-.1.01-.57.41-1.69.56l.37-.47,1.32-.09Z"/>
        <path class="cls-1" d="M256.24,90.38l-.37.47-1.32.09c.1-.01.41-.46,1.69-.56Z"/>
        <path class="cls-1" d="M287.23,90.94l-1.32-.09-.37-.47c1.08.16,1.6.55,1.69.56Z"/>
        <path class="cls-1" d="M215.11,91.51h-1.69c.05-.24-.07-.46.29-.56,1.01-.28,1.27.52,1.4.56Z"/>
        <path class="cls-1" d="M317.66,95.45c-1.3-.09-1.59-.55-1.69-.56l1.32.09.37.47Z"/>
        <path class="cls-1" d="M241.6,92.63l-.37.47-1.32.09c.1-.01.58-.41,1.69-.56Z"/>
        <path class="cls-1" d="M221.31,93.2l-1.33-.09-.36-.47c.78.18,1.6.54,1.69.56Z"/>
        <path class="cls-1" d="M244.98,92.07l-.37.47-1.32.09c.1-.01.58-.41,1.69-.56Z"/>
        <path class="cls-1" d="M314.84,97.14l-1.32-.09-.37-.47c1,.17,1.6.55,1.69.56Z"/>
        <path class="cls-1" d="M319.35,97.7l-1.32-.09-.37-.47c1.21.13,1.59.56,1.69.56Z"/>
        <path class="cls-1" d="M237.09,93.2l-.37.47-1.32.09c.1,0,.48-.43,1.69-.56Z"/>
        <path class="cls-1" d="M313.71,94.89c-1.02-.16-1.6-.54-1.69-.56l1.32.09.37.47Z"/>
        <path class="cls-1" d="M204.41,85.31c-.43-.2-.74-.38-1.13-.56l.79.09s.34.47.34.47Z"/>
        <path class="cls-1" d="M207.23,86.43c-.56-.23-.95-.49-1.13-.56l.8.1.33.47h0Z"/>
        <path class="cls-1" d="M208.92,87c-.59-.23-1.02-.52-1.13-.56l.79.09.33.47h0Z"/>
        <path class="cls-1" d="M288.92,89.25c-1.12-.18-1.06-.55-1.13-.56l.79.09.33.47h0Z"/>
        <path class="cls-1" d="M249.48,89.25c-.07,0,.02.41-1.13.56l.33-.47.79-.09h0Z"/>
        <path class="cls-1" d="M292.3,89.82c-1.07-.2-1.06-.55-1.13-.56l.79.09.33.47h0Z"/>
        <path class="cls-1" d="M295.68,90.38c-1.02-.22-1.06-.55-1.13-.56l.79.09.33.47h0Z"/>
        <path class="cls-1" d="M220.18,90.94c-.98-.23-1.06-.55-1.13-.56l.79.09.33.47h0Z"/>
        <path class="cls-1" d="M297.94,90.94c-.99-.23-1.06-.55-1.13-.56l.79.09.33.47h0Z"/>
        <path class="cls-1" d="M223,91.51c-1.09-.19-1.06-.55-1.13-.56l.79.09.33.47h0Z"/>
        <path class="cls-1" d="M238.21,90.94c-.07,0,.03.44-1.13.56l.33-.47.79-.09h.01Z"/>
        <path class="cls-1" d="M251.74,90.94l-.33.47-.79.09c.07,0-.02-.42,1.13-.56h0Z"/>
        <path class="cls-1" d="M290.05,91.51l-.79-.09-.33-.47c1.11.18,1.06.55,1.13.56h0Z"/>
        <path class="cls-1" d="M300.19,91.51c-.98-.23-1.06-.55-1.13-.56l.79.09.33.47h0Z"/>
        <path class="cls-1" d="M348.65,90.94c-.21.08-.42.39-1.13.56l.34-.47.79-.09h0Z"/>
        <path class="cls-1" d="M225.82,92.07c-1.17-.09-1.06-.55-1.13-.56l.79.09.33.47h0Z"/>
        <path class="cls-1" d="M248.36,91.51l-.33.47-.79.09c.07,0,0-.4,1.13-.56h0Z"/>
        <path class="cls-1" d="M293.43,92.07l-.79-.09-.33-.47c1.06.2,1.06.55,1.13.56h0Z"/>
        <path class="cls-1" d="M218.49,92.63l-.79-.09-.33-.47c.91.24,1.06.55,1.13.56h0Z"/>
        <path class="cls-1" d="M296.25,92.63l-.79-.09-.33-.47c1.02.22,1.06.55,1.13.56h0Z"/>
        <path class="cls-1" d="M304.14,92.63c-.97-.23-1.06-.55-1.13-.56l.79.09.33.47h.01Z"/>
        <path class="cls-1" d="M344.7,92.07c-.07.02-.37.32-1.13.56l.33-.47.79-.09h.01Z"/>
        <path class="cls-1" d="M343.01,92.63c-.07.02-.34.32-1.13.56l.33-.47.79-.09h.01Z"/>
        <path class="cls-1" d="M341.32,93.2c-.07.02-.29.32-1.13.56l.33-.47.79-.09h.01Z"/>
        <path class="cls-1" d="M310.9,94.32c-.99-.23-1.06-.55-1.13-.56l.79.09.33.47h.01Z"/>
        <path class="cls-1" d="M339.63,93.76c-.07.02-.2.32-1.13.56l.33-.47.79-.09h.01Z"/>
        <path class="cls-1" d="M304.7,94.89l-.79-.09-.33-.47c.97.23,1.06.55,1.13.56h-.01Z"/>
        <path class="cls-1" d="M337.38,94.32c-.07.02-.13.34-1.13.56l.33-.47.79-.09h.01Z"/>
        <path class="cls-1" d="M335.12,94.89c-.07.01-.03.38-1.13.56l.33-.47.79-.09h.01Z"/>
        <path class="cls-1" d="M212.86,100.52c.22-1.05.55-1.06.56-1.13l-.09.79-.47.33h0Z"/>
        <path class="cls-1" d="M212.3,102.77c.25-.75.55-1.06.56-1.13l-.09.79-.47.33h0Z"/>
        <path class="cls-1" d="M205.54,113.48c.24-.66.54-1.06.56-1.13l-.09.79-.47.33h0Z"/>
        <path class="cls-1" d="M201.59,120.8c.23-.69.45-.86.56-1.13l-.09.79-.47.34Z"/>
        <path class="cls-1" d="M201.03,123.06c.11-1.16.55-1.06.56-1.13l-.09.79-.47.33h0Z"/>
        <path class="cls-1" d="M188.07,128.69c.14-1.07.48-.98.56-1.13l-.56,1.13Z"/>
        <path class="cls-1" d="M188.07,131.51c0-.37-.02-.75,0-1.13l.56.28v.56l-.56.28h0Z"/>
        <path class="cls-1" d="M189.2,138.83c-.01-.07-.35-.09-.56-1.13l.47.33.09.79h0Z"/>
        <path class="cls-1" d="M192.86,80.8c.37,0,.37.56,0,.56s-.37-.56,0-.56Z"/>
        <path class="cls-1" d="M197.08,81.36c-.28-.22-.34-.28-.56-.56l.56.56Z"/>
        <path class="cls-1" d="M198.21,81.93c-.25-.15-.54-.19-.56-.56.29.11.52.22.56.56Z"/>
        <path class="cls-1" d="M199.9,83.05c-.8-.46-.96-1.01-1.13-1.13l1.13,1.13Z"/>
        <path class="cls-1" d="M201.03,83.62c-.46-.25-.53-.54-.56-.56l.56.56Z"/>
        <path class="cls-1" d="M202.15,84.18c-.36-.19-.5-.53-.56-.56l.56.56Z"/>
        <path class="cls-1" d="M205.54,85.87c-.58-.25-.53-.55-.56-.56l.56.56Z"/>
        <path class="cls-1" d="M210.04,87.56c-.52-.19-.53-.55-.56-.56l.56.56Z"/>
        <path class="cls-1" d="M211.17,88.13c-.6-.21-.53-.55-.56-.56l.56.56Z"/>
        <path class="cls-1" d="M212.86,88.69c-.6-.21-.53-.55-.56-.56l.56.56Z"/>
        <path class="cls-1" d="M214.55,89.25c-.6-.2-.53-.55-.56-.56l.56.56Z"/>
        <path class="cls-1" d="M216.24,89.82c-.6-.18-.53-.55-.56-.56l.56.56Z"/>
        <path class="cls-1" d="M217.93,90.38c-.61-.16-.53-.55-.56-.56l.56.56Z"/>
        <path class="cls-1" d="M216.24,92.07l-.56-.56c.38.12.53.55.56.56Z"/>
        <path class="cls-1" d="M301.88,92.07c-.6-.15-.52-.55-.56-.56l.56.56Z"/>
        <path class="cls-1" d="M345.83,92.07c0-.35.25-.51.56-.56,0,.35-.25.5-.56.56Z"/>
        <path class="cls-1" d="M298.5,93.2l-.56-.56c.61.14.52.55.56.56Z"/>
        <path class="cls-1" d="M306.39,93.2c-.62-.15-.52-.55-.56-.56l.56.56Z"/>
        <path class="cls-1" d="M300.19,93.76l-.56-.56c.6.14.52.55.56.56Z"/>
        <path class="cls-1" d="M308.64,93.76c-.6-.14-.52-.55-.56-.56l.56.56Z"/>
        <path class="cls-1" d="M302.45,94.32l-.56-.56c.61.15.52.55.56.56Z"/>
        <path class="cls-1" d="M306.95,95.45l-.56-.56c.61.15.52.55.56.56Z"/>
        <path class="cls-1" d="M309.21,96.01l-.56-.56c.61.14.52.56.56.56Z"/>
        <path class="cls-1" d="M311.46,96.58l-.56-.56c.61.12.52.56.56.56Z"/>
        <path class="cls-1" d="M211.73,103.9c.22-.51.55-.53.56-.56l-.56.56Z"/>
        <path class="cls-1" d="M211.17,105.03c.26-.47.55-.53.56-.56l-.56.56Z"/>
        <path class="cls-1" d="M210.61,106.15c.2-.28.5-.47.56-.56l-.56.56Z"/>
        <path class="cls-1" d="M207.79,109.54c.32-.28,1.33-1.31,1.69-1.69l-1.69,1.69Z"/>
        <path class="cls-1" d="M206.1,110.66c.21-.84.74-.79,1.13-1.13l-1.13,1.13Z"/>
        <path class="cls-1" d="M204.97,114.61c.23-.5.55-.53.56-.56l-.56.56Z"/>
        <path class="cls-1" d="M204.41,115.73c.25-.48.55-.53.56-.56l-.56.56Z"/>
        <path class="cls-1" d="M203.28,117.42c.42-.8,1.09-1.06,1.13-1.13l-1.13,1.13Z"/>
        <path class="cls-1" d="M202.72,118.55c.19-.36.53-.5.56-.56l-.56.56Z"/>
        <path class="cls-1" d="M189.76,140.52s-.42.04-.56-.56l.56.56Z"/>
        <path class="cls-1" d="M198.77,132.07l-.56-.56s.43-.03.56.56Z"/>
        <path class="cls-1" d="M198.21,130.38l-.56-.56s.34-.03.56.56Z"/>
        <path class="cls-1" d="M197.65,129.26l-.56-.56c.16.17.36.24.56.56Z"/>
        <path class="cls-1" d="M216.8,106.72c8.66-2.43,17.69-3.66,26.63-2.12,4.01.69,8.74,1.33,8.91,6.35.1,3.19-.83,3.4-3.66,3.04-11.33-1.41-16.72-4.44-29.36-3.35-2.64.23-5.32,1-8.16.58.23-.24-.92-1.18.25-2.26.85-.79,4.14-1.9,5.38-2.25h.01Z"/>
        <path class="cls-1" d="M306.95,103.9c.74.01,1.52-.06,2.25,0l1.13.56c.92.07,1.93-.11,2.82,0l1.13.56c.34.07.8-.08,1.13,0l.56.56c.32.08.8-.08,1.13,0l1.13.56c.32.08.8-.08,1.13,0l.56.56c.32.08.78-.07,1.13,0l1.69.56c.11.04.45.03.56,0h1.13c.19.01.38-.03.56,0,1.05.18,1.99.56,2.82,1.13h.56c-.11.09.6,2.2,0,2.82-1.77-.08-3.61.14-5.36.01-6.43-.48-10.69-1.44-17.41-.53-4.33.59-13.98,3.9-17.45,3.36-1.56-.24-1.25-6.34,1.75-7.79.88-.43,4.77-1.6,5.8-1.81,1.22-.45,2.53-.63,3.94-.56.19-.02.38.01.56,0,2.19-.57,4.6-.47,6.76,0h-.01Z"/>
        <path class="cls-1" d="M257.37,161.93c.89.02,2.54.12,2.25,1.4-.23,1.01-1.79.69-2.25.85-.98,1.23-1.3,2.52-.97,3.87l-.73,1.21c.12.49,3.13,1.07,3.94,1.13.57-2.91,5.57-.82,2.82,1.13-1.33,2.39-6.37,1.87-7.92.31-2.5-2.51-2.16-7.16.59-9.33-.18-1.88,1.48-2.28,2.25-.56h.02Z"/>
        <path class="cls-1" d="M284.98,161.37c1.76,1.95,1.32,7.12-1.13,7.89-.45-.12-1.51.16-1.69,0-.31-.27.24-6.79,0-8.17-.15-.84-2.55-3.73.29-3.69,1.58.02,2.37,2.62,2.52,3.97h.01Z"/>
        <path class="cls-1" d="M283.85,169.26c.71-2.79,1.48-4.81,1.13-7.89,2.8.98,4.09,8.96,1.36,9.56-.9.2-1.54-1.43-2.49-1.67Z"/>
        <path class="cls-1" d="M280.47,168.13c1.51,1.47-4.03,3.97-5.35,3.99-2.6.04-2.62-2.18-.44-3.3,1.78-.92,3.86-.69,5.79-.69Z"/>
        <path class="cls-1" d="M292.87,132.07l1.18-.64c2.34,1.23,4.39,1.63,6.14,1.21,2.67,1.46,4.47,2.82,7.89,2.25-5.99,1.3-11.11-.03-16.9-1.69.83.04,1.48-.31,1.69-1.13Z"/>
        <path class="cls-1" d="M262.44,171.51c-.16-.24-.03-1.53-.82-1.59-.28-.02-1.13.52-1.99.46l-.28-2.26c1.64-.46,7.76.46,7.04,3.1-.6,1.23-3.39,1.08-3.94.29h-.01Z"/>
        <path class="cls-1" d="M257.37,161.93c-.78,0-1.63.07-2.25.56-1.03.69-1.51.96-.9-.62.38-1,1.47-4.14,2.36-4.41.71-.22,1.77.19,1.93.81.33,1.24-1.53,2.24-1.13,3.66h-.01Z"/>
        <path class="cls-1" d="M257.37,164.19v5.07h-1.69c-.68-2.86-1.35-4.03,1.69-5.07Z"/>
        <path class="cls-1" d="M306.95,103.9c-2.17-.03-4.63-.16-6.76,0,1.54-1.17,4.43-.42,6.4-.47l.36.47Z"/>
        <path class="cls-1" d="M318.79,130.38c.56-1.31,2.29-1.83,2.25-3.38,1.9,1.5-1,2.75-2.25,3.38Z"/>
        <path class="cls-1" d="M299.63,103.9c-.73.07-3.12.4-3.94.56.74-1.11,2.72-.39,3.94-.56Z"/>
        <path class="cls-1" d="M327.8,108.41l-2.42-.68-.4-.45c1.03.17,2.41-.42,2.82,1.13h0Z"/>
        <path class="cls-1" d="M322.73,107.28l-1.31-.09-.38-.47c1.03.2,1.24.42,1.69.56Z"/>
        <path class="cls-1" d="M310.33,104.46c-.27-.02-.54,0-.79-.09l-.33-.47c.27.02.54,0,.79.09l.33.47Z"/>
        <path class="cls-1" d="M314.28,105.03l-.79-.09-.33-.47c1.14.14,1.06.55,1.13.56h-.01Z"/>
        <path class="cls-1" d="M318.22,106.15l-.79-.09-.33-.47c.95.24,1.06.55,1.13.56h-.01Z"/>
        <path class="cls-1" d="M324.42,107.28h-1.13c1.32-.36.6-.04,1.13,0Z"/>
        <path class="cls-1" d="M315.97,105.59l-.56-.56c.6.14.52.55.56.56Z"/>
        <path class="cls-1" d="M319.91,106.72l-.56-.56c.6.15.52.55.56.56Z"/>
        <path class="cls-1" d="M204.97,170.95c.05,2.1,2.22,3.29.6,5.39-2.68,3.46-5.98-5.73-.6-5.39Z"/>
        <path class="cls-1" d="M338.44,170.45c.88,1.23-.37,5.59-2.59,6.04-4.35.88-2.25-5.93.22-6.6.46-.13,2.24.38,2.37.56h0Z"/>
        <path class="cls-1" d="M300.19,37.98l.56.56c.3.1.83-.1,1.13,0l.56.56c1.12.4,3.1.77,3.94,1.13l.56.56c.47.21,1.07.27,1.69.56l.56.56c.4.22,1.21.18,1.89.63,2.07,1.4,3.25,3.28,3.23,5.85,0,.77-.6,4.34-.88,4.8-.51.83-3.49,1.41-4.58,1.62-6.33,1.22-13.28.58-19.71,1.14-11.86,1.03-25.86,3.1-37.66,5.17-2.91.51-5.89,2.36-8.82,1.39-2.12-.71-6.55-7.19-7.85-9.33.18-1.04,1.77.32,1.95.58.36.51.36,1.34.85,1.97.84,1.09,2.7,2.52,3.24,3.23,1.03,1.35-.09,2.72,3.25,2.71,10.06-1.97,20.24-3.2,30.38-4.6,4.17-.58,8.88-1.78,13.05-2.16,6.96-.63,17.18.52,23.46-1.89.33-.13,1.96-.97,2.03-1.06.28-.39.19-4.38-.02-5.15-1.38-5.07-11.83-6.5-15.94-8.86-1.43-.22-1.06,1.27-.29,1.98.9.83,4.96,1.95,6.59,2.99,1.02.65,3.25,2.09,2.17,3.53-1.27,1.7-4.54.44-6.24.49-11.31.27-22.56,2.88-33.79,3.44-2.74.14-8.16.39-10.65.02-.37-.06-.77-1.21-.82-1.56-.4-2.65,5.43-5.09,5.54-5.51.7-2.51-4.58-2.15-6.49-.85-2.15,1.45-3.87,8.24-7.21,7.28-2.63-.75.02-3.93-1.82-4.44-1.37-.38-2.4,1.18-3.48,1.57-.49.18-1.03.02-1.28.11,1.82-2.11,4.83-3.34,7.32-4.51-.15.59.16,1.53-.12,2.4-.19.61-.92,1.02-1.03,1.83-.27,2.16,1.08,2.44,2.51.8,1.68-1.93,3.17-4.44,4.81-6.45,3.76-.46,7.02-2.48,8.47,2.25-.15.68-5.04,2.64-5.94,4.25-.18.33.25,1.66.66,1.72,2.53.36,7.91.14,10.65,0,7.87-.45,15.78-2.38,23.64-2.84,3.85-.22,8.08.36,11.86.03,1.02-.09,3.35-.4,2.25-1.72-.77-.92-5.6-2.58-7.24-3.47-1.93-1.06-2.83-1.88-4.33-3.28,1.26-2.35,5.2-.68,7.32,0l.07-.02Z"/>
        <path class="cls-1" d="M300.76,38.54l-.56-.56c.47.15.53.55.56.56Z"/>
        <path class="cls-1" d="M302.45,39.11l-.56-.56c.6.21.53.55.56.56Z"/>
        <path class="cls-1" d="M306.95,40.8l-.56-.56c.56.24.53.55.56.56Z"/>
        <path class="cls-1" d="M309.21,41.92l-.56-.56c.39.18.49.53.56.56Z"/>
        <path class="cls-1" d="M286.84,191.9c-3.79-1.75-8.05-5.13-12.28-5.22-3.06-.06-4.93.3-8.45.03-4.33-.33-9.48,3.38-13.42,5.19-1.5.69-7.45,2.35-7.71,3.56-.47,2.17,4.74,2.02,5.87,1.92,4.53-.4,8.06-1.52,13.01-1.09,1.8.15,3.96,1.12,5.64,1.17,3.9.13,8.49-1.57,13.52-1.17,2.48.2,9.03,2.33,10.86.47.11-.11.58-1.24.58-1.31-.07-1.16-6.28-2.93-7.62-3.55ZM284.98,194.05c-1.66.21-3.13-.5-4.76-.59-5.16-.28-10.13,1.26-15.21,0l-10.45.31c2.46-.77,7.09-3.93,9.33-4.22,1.88-.24,4.8.74,7.32.58,1.39-.08,2.65-.68,3.91-.63,1.78.06,4.16,1.83,5.92,2.58,1.27.54,3.34.28,3.95,1.97h-.01Z"/>
        <path class="cls-1" d="M238.78,125.31c.31,1.57-.53,1.03-1.86,1.24l-.4.45c-.85,1.56-2.64,1.21-2.82-.56.16-.38.41-.74.56-1.13,2.42-.43,2.17-.34,4.51,0h.01Z"/>
        <path class="cls-1" d="M321.04,127.01c-.88-.7-2.66-1.15-3.78-1.58-.38-.15-.6-.63-.73-.68-2.73-1.77-6.76-3.65-9.75-2.51-3.94-.31-7.82-.22-11.66.25h-.01c-2.1.21-3.48,1.78-4.76,3.42-.31.39-2.4,3.52-2.46,3.73-1.2,4.03,1.05,2.93,3.28,3.57,2.38.44,2.94.07,1.69-1.13,0,0,0-.01,0-.02-.75-.45-2.2-1.41-2-2.26.1-.42,2.47-4.25,2.68-4.39.31-.21,2.08-.18,2.15-.09.1.15.33,2.53.7,3.53.25.67,1.12,2.36,1.54,2.83.84.91,1.62.6,2.28.96.02.12.02.2.03.3.39,2.61,5.54,2.25,7.85,1.96,4.82-1.05,6.55-2.4,10.71-4.51,1.83-1.05,2.58-2.17,2.25-3.38ZM298.49,125.3c.74-.06,1.53.09,2.26,0h0c.58.37,1.41.65,2.48.86l-.23.84-.28,1.17c-2.3,1.11,3.88,1.57,2.53-1.73-1.52-.18-1.43-.65,0-1.13,1.13.19,2.25.46,3.38.56-.21,7.77-11.24,7.72-10.15-.57ZM308.09,132.63l3.16-4.49-.34-2.26c.28-.26,4.73,1.41,5.06,1.71,0,0,0,0,0,0h.01s0,0,0,0c1.78,1.66-6.11,5.71-7.88,5.04Z"/>
        <path class="cls-1" d="M305.26,125.31c.06.31-.09,1.05,0,1.13.74,1.77-1.73,2.31-2.25.56l-.4-.45c-1.33-.21-2.17.34-1.86-1.24,2.32-.28,2.21-.39,4.51,0Z"/>
        <path class="cls-1" d="M236.52,127c1.01.11,2.44-.61,2.26.85-.51,4.15-5.92,2.35-5.68-.58.05-.64.57-.76.6-.84.93.29,1.84.46,2.82.56h0Z"/>
        <path class="cls-1" d="M305.26,126.44c.22.18,1.82-.58,1.04,1.88-.72,2.28-5.09,2.66-5.49,0-.23-1.49,1.47-1.17,2.2-1.33s1.56.04,2.25-.56h0Z"/>
      </g>
      <g>
        <path class="cls-1" d="M443.92,348.22l-55.91-.68c-.32-2.07.5-1.1,1.69-1.36s6.4-.94,6.52-1.79v-66.68c-.24-1.53-7.64-.09-8.22-2.43l52.5-.69c.5,6.38,1.45,12.68,1.36,19.09-1.21.24-1.75-.59-2.2-1.55-1.35-2.89-1.4-6.56-3.36-9.59s-4.36-3.85-7.79-4.49c-1.47-.27-4.55-.65-6.07-.75-5-.33-10.32.27-15.35.01v30.68h10.57c.58,0,3.27-1.19,4.47-.98,2.05-.64,3.25-3.07,3.87-4.99s1.03-7.55,1.55-8.34c1.39-2.13,2.09,3.74,2.09,4.44-.03,6.2-1.06,12.54-.74,19.1.07,1.47,1.45,6.94.7,7.83-.07.08-1.76.3-2.08-.41-1.6-3.57-.18-8.95-3.58-12.34-1.6-1.59-3.03-1.27-4.86-1.62-.65-.12-1.3-.63-1.41-.63h-10.57v35.45c4.87-.17,9.8.22,14.67.01,3.05-.13,7.94-.37,10.85-.74,4.77-.61,7.04-4.53,8.25-8.79.67-2.37.22-7.45,3.04-7.53v19.77h0Z"/>
        <path class="cls-1" d="M55.99,278.34c-.54-1.96-6.89-1.62-8.53-1.7-1.32-.06-1.07.07-1.01-1.36,3.33-1.35,7.14-.02,10.5-.04,2.47-.01,5.02-.97,8.21-.61.55.06,3.7.84,2.42,2-.37.33-7.32-.48-8.86.68v70.91l-2.07-.43-41.56-61.61v58.63c3,1.72,9.18-1.12,9.54,2.73H2.13c-.41-1.43.66-1.68,1.85-1.88,1.45-.24,7.55.13,7.72-1.27.24-1.85.58-4.23.68-6.02.85-14.66.88-36.15-.66-50.53-.31-2.95.21-5.77-1.77-8.46s-4.66-1.77-7.45-2.09c-1.16-.14-2.92-.46-2.42-2h19.43c11.69,15.25,21.24,32.48,32.5,47.95,1.12,1.54,2.37,3.55,3.97,4.55v-49.43h0Z"/>
        <path class="cls-1" d="M514.83,348.9c-.05.09-1.98.07-2.04,0-.78-.9.62-6.97.7-8.51.1-2.24-.5-14.12-.01-14.68.07-.07,1.98-.08,2.03,0,.4.61,1.28,6.93,1.86,8.71,1.16,3.55,3.29,7.12,6.36,9.32,5.5,3.93,15.97,4.38,20.43-1.33,2.65-3.4,3.33-9.19,2.42-13.34-3.44-15.67-29.71-14.46-32.26-32.51-1.84-13.08,8.75-24.15,21.94-22.62,2.32.27,10.93,3.92,12.03,3.07.72-.56.74-3.62,2.34-3.12,1.9.6.37,3.2.33,4.42-.14,4.27.47,7.64.73,11.6.23,3.57-1.36,3.94-2.58.51-2.02-5.7-3.31-10.2-9.23-13.27-6.2-3.2-15.77.11-16.83,7.33-2.67,18.3,15.34,18.72,25.9,27.91,15.86,13.81,4.49,35.35-14.66,36.5-3.38.2-7.18-.89-10.44-1.86-1.53-.46-6.42-2.87-7.33-2.8-1.66.14-1.49,4.34-1.68,4.65h0Z"/>
        <path class="cls-1" d="M321.51,342.73c-.94,1.38,1.08,3.69-.65,4.12-1.61.41-4.25-1.79-5.02-3.16-1.81-3.24-1.55-9.01-2.2-12.8-2.23-12.86-6.76-19.62-20.39-21.55l9.54-2.38c12.67-3.42,18.1-20.34,6.37-28.19-1.29-.86-7.57-3.51-8.76-3.51h-33.75c-.32,2.09.52,1.09,1.69,1.35,1.92.43,3.75.82,5.73.76-.05.59.76,1.47.76,1.64v65.45c0,.76-5.37,1.74-6.48,1.74s-5.52-.61-6.68-.85c-.95-.2-1.92-.81-2.45-1.64l-25.25-68.85c.38-1.15-1.18-1.25-1.4-.96-.53.68-1.26,4.84-1.72,6.13-7.34,20.77-15.14,41.4-22.31,62.23-2.42,4.34-6.04,2.63-10.07,3.91-.2.17.76,1.29,1.02,1.36h22.16c.41-1.43-.66-1.68-1.85-1.88-2.59-.43-7.25.93-7.42-2.54-.2-4.08,5.22-14.3,6.25-18.8l22.75.08c.08,3.68,6.19,16.85,5.45,19.31-.8,2.65-8.46,1.27-10.42,1.87-.87.27-1.3,1.06-1.12,1.95h59.31c.07,0,.05-1.32,0-1.36-1.34-.96-6.91-.31-8.86-1.36v-34.77c3.54.18,8.13.84,11.14,2.84,7.59,5.02,3.35,21.23,9,29.18,3.62,5.09,12.1,8.86,18.01,5.8,5.27-2.73-.1-8.49-2.39-5.12h0ZM219.61,321.63l9.4-27.77,1.51-.87,9.54,28.63h-20.45ZM285.75,279.02c0-1.73,5.96-1.81,7.19-1.73,10.72.74,12.33,10.21,11.04,19.29-1.34,9.48-9.96,11.43-18.24,11.42v-28.98Z"/>
        <path class="cls-1" d="M195.6,324.16c-1.68-10.29-13.14-14.39-22.35-14.81l10.94-3.72c12.4-6.05,12.52-23.35-.91-28.46-8.76-3.33-23.22-1.7-32.9-1.87-1.3-.02-2.41-.63-3.38-.64-.57,0-4.47.76-3.06,1.96.32.28,7.1.03,8.22,1.78-.27,22.13.38,44.36-.33,66.44-.85,1.27-6.03.16-7.88,1.33-.2.17.76,1.29,1.02,1.36h30c1.33,0,7.12-1.61,8.71-2.2,9.52-3.5,13.57-11.15,11.93-21.18h0ZM163.03,277.32h9.89c.66,0,4.02,1.43,4.79,2.03,1.38,1.09,2.32,2.96,2.9,4.6,1.63,4.67,1.9,10.35.36,15.04-2.75,8.46-10.03,9.21-17.93,9v-30.68h0ZM184.88,330.18c-.91,12.04-10.49,17.56-21.84,14.63v-34.77c14.37-.72,23,4.89,21.84,20.14h0Z"/>
        <path class="cls-1" d="M368.92,311.75c-3.53-1.38-7.82-2.16-11.58-2.39-.2-1.01.77-.69,1.51-.87,3.1-.75,6.04-1.22,8.97-2.62,7.9-3.78,11.51-11.2,8.98-19.72-.36-1.22-2.48-4.53-3.42-5.44-8.07-7.75-28.81-5.18-39.58-5.41-1.32-.03-2.39-.63-3.4-.65-.82-.02-3.52.94-2.37,1.98.3.27,6.98.02,7.88,1.32.49,22.19.5,44.69,0,66.9-.85,1.27-6.03.16-7.88,1.33-.2.17.76,1.29,1.02,1.36h30c1.54,0,8.54-1.96,10.25-2.7,14.61-6.35,14.33-27.33-.37-33.09h0ZM347.11,277.32c11.22-.55,17.85.05,19.03,12.67,1.23,13.1-6.42,19.12-19.03,18.01v-30.68ZM347.11,344.81v-34.77c10.78-.37,20.9,2.19,21.84,14.63,1.12,14.74-6.82,23.42-21.84,20.14h0Z"/>
        <path class="cls-1" d="M503.55,342.74c-.72,1.04.1,1.69.25,2.57.35,2.21-2.64,1.25-3.92.48-3.44-2.09-2.9-7.48-3.51-10.81-2.57-14.23-4.61-23.41-21.07-25.63l9.03-2.22c10.89-3.06,17.71-15.08,10.35-25-2.39-3.22-8.3-6.32-12.22-6.87h-33.75c-.07,1.55-.28,1.26,1.03,1.34,2.03.14,6.86.18,7.17,2.39l.02,64.13c.22,3.19-3.87,2.26-6.6,2.98-1.18.31-1.93-.57-1.62,1.42h27.95c.28-1.77-.26-1.23-1.5-1.54-1.7-.42-7.36-.36-7.36-2.21v-33.75c4.58.15,11.79,1.53,14.23,5.88,4.11,7.34.42,18.81,6.61,26.79,3.49,4.5,11.47,8,16.85,5.35,6.02-2.97.38-8.66-1.93-5.32h0ZM467.78,279.7c0-1.65,2.36-2.28,3.73-2.41,12.22-1.15,15.58,6.44,14.71,17.43-.87,10.94-8.75,13.19-18.44,13.27v-28.29Z"/>
        <path class="cls-1" d="M109.03,276.43c-5.74-1.78-11.84-1.35-17.69-1.54-6.53-.21-13.2-.84-19.68.38-.56,2.35,2.8,1.15,4.41,1.38,1.87.28,3.93,1.62,3.81,3.69v64.04c-.14.91-5.26,1.38-6.6,1.72-1.19.31-1.92-.56-1.62,1.42h27.95c.41-1.42-.66-1.69-1.85-1.88-1.98-.32-4.63.33-6.04-.8-1.58-1.26-.76-3.37-1-5.14-.08-.65-.65-1.18-.66-1.38-.68-8.21,0-18.16,0-26.59,0-1.4,2.29-.33,3.04-.32,6.14.1,11.33.57,16.98-2.15,14.39-6.91,14.91-27.89-1.07-32.84h0ZM104.36,306.25c-2.26,1.61-12.41,4.82-13.98,2.46-.65-.98-.52-20.73-.31-23.58.07-1.06.76-5.94,1.02-6.48.52-1.06,3.12-1.79,4.3-1.9,3.22-.31,9.27,1.31,11.38,3.97,4.85,6.14,4.37,20.69-2.41,25.51h0Z"/>
      </g>
    </g>
  </g>
</svg>