<?xml version="1.0" encoding="UTF-8"?>
<svg id="Layer_2" data-name="Layer 2" xmlns="http://www.w3.org/2000/svg" viewBox="0 0 1042.15 246.45">
  <defs>
    <style>
      .cls-1 {
        fill: #d0d1d2;
      }

      .cls-2 {
        fill: #a57967;
      }

      .cls-3 {
        fill: #020302;
      }

      .cls-4 {
        fill: #e5a993;
      }

      .cls-5 {
        fill: #a97a6a;
      }

      .cls-6 {
        fill: #131010;
      }

      .cls-7 {
        fill: #1d0f0e;
      }

      .cls-8 {
        fill: #101015;
      }

      .cls-9 {
        fill: #b37f76;
      }

      .cls-10 {
        fill: #b88673;
      }

      .cls-11 {
        fill: #a78173;
      }

      .cls-12 {
        fill: #67686f;
      }

      .cls-13 {
        fill: #fcf9de;
      }

      .cls-14 {
        fill: #eb1f25;
      }

      .cls-15 {
        fill: #a87962;
      }

      .cls-16 {
        fill: #d3987e;
      }

      .cls-17 {
        fill: #020202;
      }

      .cls-18 {
        fill: #170e0e;
      }

      .cls-19 {
        fill: #030303;
      }

      .cls-20 {
        fill: #f1f1ef;
      }

      .cls-21 {
        fill: #edd6be;
      }

      .cls-22 {
        fill: #35221d;
      }

      .cls-23 {
        fill: #3d4350;
      }

      .cls-24 {
        fill: #271713;
      }

      .cls-25 {
        fill: #a47966;
      }

      .cls-26 {
        fill: #edeae8;
      }

      .cls-27 {
        fill: #331e19;
      }

      .cls-28 {
        fill: #150e0c;
      }

      .cls-29 {
        fill: #f0edd6;
      }

      .cls-30 {
        fill: #e5a991;
      }

      .cls-31 {
        fill: #e0dee2;
      }

      .cls-32 {
        fill: #1a0e0d;
      }

      .cls-33 {
        fill: #2a1a18;
      }

      .cls-34 {
        fill: #332115;
      }

      .cls-35 {
        fill: #271512;
      }

      .cls-36 {
        fill: #ebe8e6;
      }

      .cls-37 {
        fill: #121419;
      }

      .cls-38 {
        fill: #b58675;
      }

      .cls-39 {
        fill: #261511;
      }

      .cls-40 {
        fill: #040404;
      }

      .cls-41 {
        fill: #cfced0;
      }

      .cls-42 {
        fill: #0e0c0a;
      }

      .cls-43 {
        fill: #020303;
      }

      .cls-44 {
        fill: #65686d;
      }

      .cls-45 {
        fill: #3b4552;
      }

      .cls-46 {
        fill: #b72726;
      }

      .cls-47 {
        fill: #301a16;
      }

      .cls-48 {
        fill: #dedcde;
      }

      .cls-49 {
        fill: #bb7b63;
      }

      .cls-50 {
        fill: #faf7de;
      }

      .cls-51 {
        fill: #160d0c;
      }

      .cls-52 {
        fill: #fbf8de;
      }

      .cls-53 {
        fill: #120e10;
      }

      .cls-54 {
        fill: #150f0f;
      }

      .cls-55 {
        fill: #bd7d63;
      }

      .cls-56 {
        fill: #ecab8d;
      }
    </style>
  </defs>
  <g id="Layer_1-2" data-name="Layer 1">
    <g>
      <path class="cls-6" d="M189.82,113.47c-1.04-2.3-4.16-1.53-3.84.58,1.13,2.1-5.15,6.01-6.23,5.02-1.18-2.91-2.54-5.7-4.07-8.36-7.67,1.37.75,13.56,4.42,16.32-4.39.87-8.59-1.47-9.55-6.11-8.53-4.24-7.57-15.35-5.38-23.09l-.59-1.25c-.96-1.32-2.95-1-3.38.56-.48.22-.49.4,0,.56-1.43.47-1.45.73,0,1.13l-.56,2.25c-1.85,1.49-1.87,6.42,0,7.89l.56,2.25c-1.04.35-1.06.79,0,1.13l.56,1.13c-1.08.32-1.1.82,0,1.13l.56,1.13c-.49.22-.5.41,0,.56l.56,1.13c-.49.19-.49.38,0,.56l.56.56c-.5.25-.51.44,0,.56l.56.56c-1.32.59-1.47.97,0,1.13-.09,3.06-.28,6.25-.56,9.58-.74.04-1.41.18-1.46.9l-.88,8.63c-2.33,5.59-3.05,11.14-2.18,16.67-1.33.07-2.13.96-2.3,2.25l.56,6.64c-2.16,1.85-2.87,4.6-2.12,8.28-2.62.86-3.03,3.62-2.2,5.92-1.42-1.78-5.72-.01-2.65,5.08l-.57.26c-2.57-3.71-3.69,0-3.84,2.84-1.58-.02-2.26.43-3,1.93-2.03-.45-2.8.87-2.19,2.74-2.36-.64-3.01.46-3.28,2.62-1.59.08-2.15.88-2.62,2.28l-1.21.58c-.02.77-1.36,7.69-2.29,6.85.68-2.39.12-4.05-1.68-4.97l.22-9c-.37-1.06-1.18-1.51-2.28-1.4-.02-2.01-.73-3.27-2.89-2.65.24-2.42-1.12-3.37-3.5-2.88-.41-2.15-2.1-2.96-3.8-1.43-.37-2.62-1.15-4.35-4.22-3.6-.65-1.83-2.13-2.12-3.9-1.65-.67-1.47-1.98-2.27-3.37-1.12-.93-.82-2.08-.85-3.47-.07-5.69-2.3-2.47,9.89,1.86,8.29.63,1.79,2.04,3.58,3.69,1.99.61,1.29,2.42,1.29,2.96-.04,1.12,2.36,2.43,3.03,3.93,2.02.53,1.47,1.25,3.17,3.02,1.91l1.18,1.56c1.56-.59,2.54.36,2.94,2.84,2.45-.87,3.44,6.65.96,7.17-.12,5.24-.55,10.57-1.26,16-1.32,1-2.37,2.07-3.16,3.22-2.1-.83-3.2.69-3.12,2.68-.64-1.53-2.12-2.03-3.39-.84-2.8-1.38-4.04-.13-4.15,2.71-.7-1.93-1.98-2.68-3.92-2.03-.65-1.28-1.66-1.42-2.84-.79-.14-.39-.68-7.87-.54-8.25.06-.16,2.83.51,3.33.7,9.25,5.9,12.42-1.87,1.6-4.56-1.55-.38-4.79-1.11-5.61.29-.55-2.28-1.49-3.22-2.82-2.82-1.76-.62-4.46-.94-4.23,1.72-2.98-.27-11.67,1.61-12.09,5-.55,4.49,4.58,2.32,6.64.91,4.65-2.04,6.64-1.56,5.98,1.42,1.69.62,1.65,1.53-.11,2.74-.14,4.65-1.36,4.06-4.8,2.1-1.07.77-1.94,1.89-2.6,3.35-.48-1.85-1.53-3.16-3.5-2.15-.58-2.34-2.69-2.93-4.06-.79-.7-.78-1.62-.89-2.75-.33-1.37-2.1-2.92-4.08-4.64-5.95-1.27-2.25-3.15-8.42-.84-9.92-.18-3.81-.61-7.6-1.3-11.39.48-1.76,3.57-4.91,5.32-4.18.99-1.65,2.21-2.33,3.67-2.06,1.55-2.19,3.54-2.44,5.97-.76l1.91-1.96c1.21.61,2.31.05,3.3-1.67,3.06,2.83,6.52-4.7,4.92-7.01-1.79-2.57-5.51-1.04-7.57-.13-1.46-1.92-3.23-.98-4.03.97-2.07-.8-3.29-.22-3.48,2.06-.93-.88-1.96-.96-3.06-.33-2.39-1.01-4.12.43-5.18,4.32-2.19-.76-3.54.46-4.05,3.67-1.94,1.83-2.82,3.9-2.64,6.21l-2.03,9.72c.34-1.21-2.33-12.04-3.59-8.12-.07.22-.06.47-.02.73l-1.32-.13c-.94-2.95-4.5-5.7-7.16-7.04-.54-1.66-2.67-3.61-4.23-4.17.09-1.82-1.08-3.23-2.96-3.12-2.88-4.55-4.08.27-2.92,3.52l-.56.23-.56-2.25c.45-.19.45-.37,0-.56.29-.39.33-.77,0-1.13.49-.2.49-.39,0-.56-1.2-2.01-2.69-2.94-1.69,0-.96.41-1.11,1.15,0,1.13l-.97,1.51,1.52,9.54c-.85,3.82-.31,7.61,1.62,11.37,2.02,6.02-9.19,4.37-11.18.9,4.49.99,12.93-6.2,6.5-8.77-7.11.02-11.04-2.02-14.04-8.66,4.36,2.92,12.77,2.25,10.93-4.56,1.5.57,4.26.68,3.93-1.32,2.48-.55-.15-3.83-.56-1.13l-.56-.56c-.49-1.5-1.53-1.56-1.69,0l-.56-.56c.12-1.46-.23-1.76-1.13-.56l-1.13-1.13c.7-1.4.15-2.02-1.13-1.13l-.56-.56c.49-.19.49-.37,0-.56l-1.13-1.13c.49-.21.5-.4,0-.56l-.56-.56c.49-.21.5-.4,0-.56l-.56-.56c.49-.19.49-.38,0-.56l-.56-1.13c1.42-.55,1.54-1.02,0-1.13l-.56-.56c1.42-.52,1.53-.91,0-1.13l-1.13-1.13c1.53-.52,1.62-1.77,0-2.25l-.56-.56c.49-.22.5-.41,0-.56l-.56-1.69c.49-.22.5-.41,0-.56l-.56-1.13c1.44-.45,1.52-1,0-1.13l-.56-1.13c1.08-.31,1.1-.82,0-1.13l-.56-1.69c.49-.22.5-.41,0-.56l-.56-.56c1.08-.31,1.09-.82,0-1.13l-.56-.56c1.53-.36,1.65-1.6,0-1.69-.36-.95-.73-1.71-1.13-2.25-.6-1.37-.89-1.55-1.13,0-.48.47-.36,1.19,0,1.69.03.18-.04.38,0,.56l.56.56c.11.49-.12,1.23,0,1.69l.56.56c.09.32-.09.81,0,1.13l.56.56c.05.17-.05.39,0,.56l.56,1.13c.09.32-.09.81,0,1.13l.56,1.13c.09.32-.09.81,0,1.13l.56,1.13c.09.32-.09.8,0,1.13l.56.56c.08.32-.08.8,0,1.13.35.65.54,1.4.56,2.25.05.18-.06.41,0,.56l.56.56c.06.16-.06.4,0,.56l.56.56c.1.29-.11.84,0,1.13l.56.56c.11.28-.11.84,0,1.13l.56.56c.11.29-.11.85,0,1.13l.56.56c.07.16-.08.43,0,.56.38.68,0,.86-1.13.56-.35-.17-.85-.35-1.13-.56l-1.69-2.25c-.07-.16.07-.41,0-.56l-.56-.56c-.08-.16.08-.45,0-.56-.44-.47-1.18-1.13-1.69-.56-1.53,1.12-.74,1.12-1.13,2.25l-.56.56c-.05.27-.05.86,0,1.13l.56.56c.12.68-.12,1.56,0,2.25l.56.56c.04.1.03.46,0,.56-1.03.88-1.49,2.08-1.69,3.38-.02.19,0,.38,0,.56l.56,3.38c.02.37-.04.76,0,1.13l.56,1.69c.04.18-.05.39,0,.56l.56,1.13c.06.17-.07.41,0,.56l1.13,1.69c.08.14-.08.43,0,.56l4.51,5.07c.26.17,1.11.22,1.69.56l.56.56c.15.07.41-.07.56,0l.56.56c.15.06.38-.05.56,0l.56.56c1.57.2,3.44-.14,5.07,0,.27.15.27.34,0,.56-.4.62-3.09,1.85-3.94,2.01-.75.14-3.38.28-4.23.29-1.06.02-2.4-1.3-2.57.81-.16,1.95,3.01,3.47,3.8,5.37,4.14,2.39,7.13,4.08,12.16,3.23,1.92-.33,3.34-1.88,4.63-2.14,1.8-.36.03,2.32,1.41,2.26l.85-3.94,1.98,7.88,1.12-1.12.57,4.5,1.12-2.81.57,3.94c1.47-1.68,2.48-.51,3.63,1.15,2.31,3.34,1.41,5.21.3,7.84.36.63.69,1.26.97,1.87.22.48.51,1.12.78,1.82.01-.18.03-.34.06-.46.18-.87,1.06-2.57,1.45-3.65.33-.91-.33-1.52,1.26-1.25-.35,2.31-1.88,4.35-1.69,6.76l4.5-3.94c-.37,2.17-2.26,3.46-2.36,5.6.13-.03.26-.07.4-.1.73-.17,2.03-.28,2.48-.98.16-.25.39-.33.67-.27.23-.4.7-.31,1.2-.02.85.51,1.44,1.41,1.93,2.29.15.22.29.47.42.72.08-.03.17-.05.26-.06-.08-.44-.17-.88-.29-1.32-.12-.48-.13-1.18.42-1.34.59-.17,1.26.55,1.61.91-.37-.37.4.3.49.37.22.16.44.32.65.5.72.59,1.4,1.28,1.92,2.06.13.19.31.45.5.75.07-.22.2-.43.39-.65.14-.27-.3-1.16.28-1.13,2.25,1.85,4.63,2.15,4.79,5.63l.56-2.81c.64.53,3.08.9,3.3,1.21.27.4.21,2.52.65,3.29l1.45-2.83c2.17.69,2.92.15,2.49,2.83,1.52-1.39,1.08-2.34,3.55-1.11.54.27.34,1.13.63,1.07,1.97-.42,2.91-1.47,3.98,1.17.57-1.19,1.08-1.63,2.26-2.25l1.12,1.68c1.18-1.99,2.77-.67,3.96-.78,1.47-.14.66-1.08,3.96-.38.3.06.15-.73.39-.9.5-.36,1.46-.31,2.11-.76l.56,1.69c.01-.76.79-1.99,1.42-2.25,1.21-.5.67,1.4,1.12,1.12.92-2.06,2.33-2.01,4.22-2.82l.28,1.69c1.2-1,1.79-2.91,3.39-3.37,1.61-.47.25,1.93,1.17,2.22.96-.86,1.96-1.7,2.49-2.87.68-1.5,1.95-1.23,3.29-.26.02-.04.03-.08.06-.11.15-.24.3-.45.45-.64.26-.83.66-1.62,1.22-2.34,1.46-1.89,3.94-.36,6.19,2.34.02-.01.04-.02.06-.03.47-2.36-1.83-3.91-1.69-6.2l3.94,2.82-1.69-6.76c1.68-.28.9.42,1.17,1.34.03.1.06.19.08.28.01-1.42.59-2.4,2.41-1.89-.28-1.33-.3-2.71.29-4.25l.56.3.57-1.42,1.68,2.81c.78-2.83,2.1-5.46,2.26-8.45l.84,1.13.29-1.69c.13-.16.72.3.85.56.53,1.05-.25,2.76.83,2.82l1.13-7.32c.91-.19.35.74.92,1.16,2.42,1.77,9.29,2.72,12.2,2.11,1.57-.33,6.36-2.95,6.4-4.67,0-.15-.35-1.34-.41-1.38-.93-.7-9.07,1.29-10.1-2.85,2.08.02,4.43,1.22,6.47,1.16,5.58-.17,13.15-5.89,12.69-11.87,0-.52.56-1.08,1.69-1.69.14-.08.42.08.56,0l1.13-1.13c.18-.19.39-.37.56-.56l2.25-2.25c.08-.13-.08-.42,0-.56,1.76-2.08,3.08-5.02-.56-2.25-.77.17-2.44.03-3.38,0-.98.38-2.83.72-2.82-.56h.56l1.69-1.69c.41-.47.73-1.17,1.13-1.69l1.13-1.13c.09-.13-.09-.43,0-.56l1.13-1.13c.12-.48-.14-1.28,0-1.69l1.13-2.25c.24-2.11.15-5.7,0-7.89l-.56-1.69c-.05-.18.06-.41,0-.56l-.56-1.13c-.19-.36-.35-.84-.56-1.13l-1.13-1.13c-.12-.03-.44-.03-.56,0l-1.69,1.69c-.09.12.09.44,0,.56l-1.13,1.13c-.09.12.09.45,0,.56l-1.69,1.69c-.19.19-.34.39-.56.56l-.56.56c-.17.05-1.06.04-1.13,0-.48.35-.48.16,0-.56-.01-.17-.04-.44,0-.56l.56-1.69c.05-.17-.05-.39,0-.56.14-.87.46-1.66,1.13-2.25.13-.45-.13-1.24,0-1.69l.56-.56c.09-.31-.09-.81,0-1.13l.56-1.13c.05-.17-.05-.39,0-.56l.56-1.13c.09-.32-.09-.81,0-1.13l.56-1.13c.05-.17-.05-.39,0-.56l.56-1.13c.05-.17-.05-.39,0-.56l.56-1.69c.09-.32-.09-.81,0-1.13l.56-.56c.13-.46-.13-1.24,0-1.69l.56-.56c.05-.18-.05-.39,0-.56l.56-.56c.09-.32-.09-.8,0-1.13l.56-1.69c.08-.33-.08-.8,0-1.13l.56-.56c.11-.49-.1-1.18,0-1.69l.56-.56c.38-2.06.44-4.11.56-6.2v-1.13c-.03-.19.05-.4,0-.56.49-.22.5-.41,0-.56l.43-.93c.5.39,3,.08,2.39-1.33.7-.13.88-.31.56-.56l.21-.87c-1.46-1.43-2.79-2.89-3.99-4.38,2.62-.97,11.34-6.15,9.87-9.41ZM19.77,182.22c-.41-.35-.42-.76,0-1.13.24.13.39.36.56.56l.56.56c.14.08.43-.08.56,0l2.82,2.25c.32.09.81-.09,1.13,0l1.13.56c.49.1,1.16-.08,1.69,0,.36.17.35.35,0,.56-.56.35-1.13.37-1.69.56l-.56.56c-.34.08-1.32.07-1.69,0l-.56-.56c-.17-.06-.42.07-.56,0l-.56-.56c-.34-.21-.86-.34-1.13-.56l-1.13-1.13c-.08-.12.07-.4,0-.56l-.56-.56c-.04-.16,0-.37,0-.56ZM153.29,180.88c0-.12-.02-.24-.04-.34.04.08.08.16.13.24-.03.03-.06.07-.09.1ZM171.9,196.3c.49.16.48.35,0,.56-1.33.95-1.94,1.7-3.66,2.29-2.9.99-6.88-.21-9.03-2.28-.65-.62-2.6-3.35-.27-2.83l2.25,1.69c.15.07.39-.06.56,0l.56.56c.16.06.39-.05.56,0l1.69.56c1.12.29,3.86.2,5.07,0l.56-.56c.49-.11,1.26.13,1.69,0Z"/>
      <path class="cls-42" d="M15.83,80.8c2.94-1.93,1.89-3.14,2.24-5.93,1.36-10.72.43-18.77,6.32-28.62,11.92-19.96,25.96-26.08,45.15-37.11C81.04,2.52,83.6-.93,98.38.22c7.1.55,31.68,9.21,37.17,13.54,8.17,6.45,17.13,13.33,24.5,20.59,15.12,14.91,21.08,27.7,20.3,49.57-.04,1.09-.59,2.13-.62,3.36s.62,2.79.52,3.34c-.11.63-.89.71-1.04.9-.48.72-.48.91,0,.56.12.17.83.34,1.13.56l2.25,2.25c.09.12-.08.42,0,.56l.56.56c.07.15-.07.4,0,.56l.56,1.13c.05.17-.04.38,0,.56l.56.56c.07.53-.03,1.14,0,1.69.51,1.34.51,3.16,0,4.51-.02.37.04.76,0,1.13l-.56,1.13c-.05.18.06.41,0,.56l-.56.56c-.08.15.08.43,0,.56-1.37.92-1.94,1.86-1.69,2.82.32.06.76-.01,1.13,0,.86.46,1.97.48,2.82,0,.37-.03.79.06,1.13,0l.56-.56c.18-.05.41.06.56,0l.56-.56c.24-.05.92-.06,1.13,0,1.15.79,1.87,2.11,1.13,3.38-.08.34.1.84,0,1.13l-.56.56c-.08.16.08.43,0,.56l-1.69,1.69c-.68.77-.92,1.01-1.69,1.69l-1.69,1.69c-.12.09-.44-.09-.56,0l-.56.56c-.34.22-.83.33-1.13.56-.91.36-1.28.73-1.13,1.13.06.33.37.4.56.56l1.69,1.69c.3.24.81.33,1.13.56l.56.56c.13.09.44-.09.56,0l1.13,1.13c-.04.18.05.39,0,.56l-.56.56c-1.02.98-1.15.73-2.25,1.13l-1.13.56c-.32.06-.76,0-1.13,0-.57.36-1.15.39-1.69,0-.01-.05-.72-.27-.57-.82.17-.6,2.46-1.14,3.38-1.43.55-.16.73-.34.56-.56-.73-.85-1.28-1.08-1.94-1.72-.4-.39-.64-1.12-1.16-1.68-.65-.69-2.27-.89-1.97-2.79,2.64-.23,5.77-2.09,7.85-3.71,1.53-1.19,4.4-3.58,1.74-5.05-.77-.43-1.79.73-2.26.87-.03,2.39-4.23,1.26-5.83.6-2.82-1.16-7-5.27-6.02-8.58,1.63-5.49,4.33-1.75,5.3,1.78,4.66-5.32-.45-18.09-8.43-11.72-2.6,1.19-4.74,1.34-6.43.45-1.55.37-2,.52-3.38.56-.71.18-1.46.37-2.25.56,0,1.65-1.88,1.58-2.25,0-2.41.44-4.93.54-7.32,0-.58,1.61-2.84,1.68-3.38,0l-1.69-.56c-.41,1.63-2.14,1.58-2.82,0l-1.69-.56c-.48,1.52-1.2,1.55-1.69,0l-.56-.56c-.48,1.52-1.2,1.55-1.69,0l-.56-.56c-.17,1.57-1.33,1.56-1.69,0l-.56-.56c-.17,1.57-1.33,1.56-1.69,0l-1.13-.56c-.31,1.08-.82,1.09-1.13,0l-.56-.56c-.17,1.57-1.33,1.56-1.69,0l-.56-.56c-.31,1.08-.82,1.09-1.13,0l-.56-.56c-.17,1.57-1.32,1.56-1.69,0l-1.13-.56c-.18,1.57-1.32,1.55-1.69,0l-1.13-.56c-.27,1.6-1.78,1.53-2.25,0l-1.13-.56c-.26,1.57-1.16,1.49-1.69,0l-1.69-.56c-.69,1.51-1.56,1.53-2.25,0l-2.25-.56c-1.17,1.59-3.94,1.67-5.07,0-2.31-.48-4.94-.49-7.32,0-1.31,1.68-4.27,1.6-5.63,0-1.19-.03-2.31.16-3.38.56-.42,1.68-2.89,1.58-3.38,0l-1.69.56c-.78,1.61-2.01,1.53-2.82,0l-1.13.56c-.68,1.55-1.57,1.52-2.25,0l-1.13.56c-.68,1.55-1.57,1.52-2.25,0l-1.69.56c-.64,1.44-1.07,1.44-1.69,0l-1.69.56c-.75,1.64-2.02,1.54-2.82,0l-1.69.56c-.56,1.71-3.3,1.64-3.94,0-1.82.46-3.81.54-5.63,0-.44,1.83-4.55,1.32-4.51-.56l-1.69-.56c-.32,1.08-.82,1.1-1.13,0l-1.13-.56c-.09,1.49-.65,1.41-1.13,0l-.56-.56c-.15.49-.34.48-.56,0-.62-.28-1.15-.51-1.69,0,1.43.41,1.41.64,0,1.13.45,1.23.49,2.77,0,3.94,1.7.33,1.51,2.09,0,2.82l-.56,1.13c1.08.32,1.1.83,0,1.13l-.56,1.13c.49.13.47.32,0,.56l-.56.56c.48.13.47.32,0,.56l-.56.56c.48.16.48.35,0,.56l-.56.56c.97,1.35.5,2.13-1.13,1.69l-1.69,1.69c-.19.49-.38.49-.56,0l-1.13,1.13c1.5.6,1.55,1.09,0,1.69l-.56,1.13c.49.19.49.38,0,.56l-.56.56c.49.16.48.35,0,.56l-.56.56c.48.16.48.35,0,.56l-1.13,1.13c.48.16.48.35,0,.56l-.56.56c1.05,1.09.93,1.32-.56,1.13l-.56,1.13c1.48.09,1.39.6,0,1.13l-.56,1.13c1.51.35,1.37.99,0,1.69.24,1.83.7,5.46.22,7.13-.23.81-1.6,2.05-2.47,1.32-1.53-.21-1.39-.53,0-1.13l-.56-.56c-1.54-.11-1.42-.58,0-1.13l-.56-.56c-.5-.16-.49-.35,0-.56l-.56-.56c-.82.71-1.11.39-.56-.56-1.49-1.9-3.8-3.26-6.2-2.25-.15.49-.34.48-.56,0-.74.17-.95.4-1.13,1.13.49.18.48.37,0,.56l-.56,1.13c1.5.34,1.35.98,0,1.69.45.3.32.71,0,1.13,1.51.53,1.51,1.16,0,1.69l.56,2.82c1.52.53,1.51,1.21,0,1.69l.56,1.13c1.09.32,1.08.82,0,1.13l.56.56c1.67.1,1.51,1.33,0,1.69.53,1.06.9,2.18,1.13,3.38.49.19.49.38,0,.56.57.76.75,1.51.56,2.25h-1.13c-.18.19-.37,0-.56-.56-.04-.18.04-.38,0-.56l-.56-.56c-.04-.18.05-.39,0-.56l-.56-1.13c-.15-.63.13-1.58,0-2.25l-.56-.56c-.08-.33.08-.8,0-1.13l-.56-.56c-.12-.48.12-1.22,0-1.69l-.56-1.13c-.04-.18.04-.38,0-.56l-.56-2.25c-.12-2.04-.16-4.75,0-6.76l.56-1.13c.04-.16-.02-.37,0-.56.36-.48.39-.65,0-1.13-.1-.1-.79.08-1.13,0l-1.13-.56c-.17-.06-.41.06-.56,0l-.56-.56c-.14-.08-.44.09-.56,0l-3.38-3.38c-.09-.12.09-.43,0-.56l-1.13-1.13c-.12-.26.11-.84,0-1.13l-.56-.56c-.09-.31.08-.8,0-1.13-.74-2.1-.32-3.65,1.69-1.69.36.05.76-.02,1.13,0,.86.47,1.97.49,2.82,0,.2-.02.47.06.56,0,.6-.48.79-.85.56-1.13-.03-.09-.42.08-.56,0l-.56-.56c-.15-.08-.42.08-.56,0l-.56-.56c-.14-.08-.43.08-.56,0l-.56-.56c-.33-.22-.82-.33-1.13-.56l-2.82-2.82c-.23-.3-.34-.79-.56-1.13l-.56-.56c-.08-.13.08-.42,0-.56l-.56-.56c-.07-.15.07-.41,0-.56l-.56-.56c-.06-.16.06-.39,0-.56l-.56-1.13c-.08-.31.06-.77,0-1.13l-.56-1.13c-.08-.91.04-1.89,0-2.82-.49-1.39-.5-3.08,0-4.51.04-.72-.12-1.61,0-2.25l.56-.56c.2-.47-.03-.54.56-1.13.59-.28,1.15-.09,1.69.56.14.08.43-.08.56,0l.56.56c.15.08.41-.07.56,0v-.56c-.05-.19.07-.45,0-.56l-1.13-1.13c-.08-.14.08-.41,0-.56l-.56-.56c-.07-.15.07-.4,0-.56l-.56-.56c-.1-.28.08-.79,0-1.13l-.56-1.69c-.08-.98-.11-2.42,0-3.38.61-1.92,1.93-1.55,3.94,1.13.13.08.42-.08.56,0l.56.56c.16.06.39-.06.56,0l.56.56c1.26.19,3.74.12,5.07,0l.56-.56c.19-.04.42.06.56,0l1.13-.56Z"/>
      <path class="cls-34" d="M.61,97.7l-.47-.36c-.19-1.25-.19-2.54,0-3.79l.47-.36c-.07,1.46-.06,3.05,0,4.51Z"/>
      <path class="cls-34" d="M177.53,186.73c-.74,1.11-2.72.39-3.94.56,0-.46.76-1.19,1.13-1.12.05,0,.31.5.88.54.66.05,1.29,0,1.94.02Z"/>
      <path class="cls-34" d="M184.29,105.03c.08-1.41.09-3.1,0-4.51l.47.36c.19,1.25.19,2.54,0,3.79l-.47.36Z"/>
      <path class="cls-34" d="M6.25,114.61c-.36-.05-.98-.8-1.69-.56v2.25s-.4.15-.47-.36c-.39-2.74.32-3.73,2.16-1.33Z"/>
      <path class="cls-34" d="M16.39,185.04c-.93-.52-.59-2.35-.56-3.38,1,.55.5,2.32.56,3.38Z"/>
      <path class="cls-34" d="M10.19,114.61l-.35.48c-.69.18-1.42.18-2.11,0l-.35-.48c.84.05,2.01.09,2.82,0Z"/>
      <path class="cls-34" d="M185.42,111.79l-.35.48c-.69.18-1.42.18-2.11,0l-.35-.48c.9.03,1.95.08,2.82,0Z"/>
      <path class="cls-34" d="M24.28,174.33c.09.17.87.06.56,1.13-1.06.38-1.4-.42-1.69-.56l.79-.09.34-.47Z"/>
      <path class="cls-34" d="M16.95,148.41c.06.54-.09,1.19,0,1.69l-.47-.38c-.26-.59,0-1.35-.09-1.87.34-.01.53.26.56.56Z"/>
      <path class="cls-34" d="M13.57,137.14c-.11-.51-.48-.88-.56-2.25l.47.38.09,1.87Z"/>
      <path class="cls-34" d="M190.49,114.04c.25-1.39-.28-2.35-1.13-3.38,1.08.31,1.82,1.43,1.71,2.52-.05.55-.57.79-.59.86Z"/>
      <path class="cls-34" d="M21.46,166.44c-.26-.85-.34-1.42-.56-2.25l.47.38.09,1.87Z"/>
      <path class="cls-34" d="M15.83,181.09c.13-1.59-.16-2.63,1.69-3.38-.3,1-1.35,2.3-1.69,3.38Z"/>
      <path class="cls-34" d="M2.87,84.74c-.02-.09-.47-.48-.56-1.69l.47.37.09,1.32Z"/>
      <path class="cls-34" d="M178.09,145.03l.09-1.32.47-.37c-.2.77-.5,1.43-.56,1.69Z"/>
      <path class="cls-34" d="M175.84,152.92l.09-1.32.47-.37c-.2.72-.48,1.38-.56,1.69Z"/>
      <path class="cls-34" d="M182.04,130.95l-.37.48-1.32.09c-.05-.17.04-.38,0-.56.56,0,1.13.01,1.69,0Z"/>
      <path class="cls-34" d="M5.12,89.82l1.13,1.12c-1.06.31-.98-.49-1.13-.56v-.56Z"/>
      <path class="cls-34" d="M171.9,165.88c-.12-.98.07-1.99,1.13-2.25-.22.78-1.04,1.94-1.13,2.25Z"/>
      <path class="cls-34" d="M171.33,168.13l.09-1.32.47-.37c-.08.27.03.83-.09,1.32s-.46.34-.47.37Z"/>
      <path class="cls-34" d="M16.95,187.85c-.02-.09-.45-.5-.56-1.69l.47.37.09,1.32Z"/>
      <path class="cls-34" d="M181.48,168.13l-.47-.37-.09-1.32c.06.2.48.44.56,1.69Z"/>
      <path class="cls-34" d="M17.52,189.54c-.02-.06-.33-.25-.56-1.13l.47.33.09.79Z"/>
      <path class="cls-34" d="M181.48,188.98c.41-.7,2.17-2.89,1.69-3.38-1.05-.33-1.44.94-2.25,1.13l2.82-.84-2.26,3.09Z"/>
      <path class="cls-34" d="M6.25,80.8c-1.56-.99-2.84-3.64-3.94-1.13.38-3.4,2.89-.58,3.94,1.13Z"/>
      <path class="cls-34" d="M15.83,80.8c-.55.36-.54.33-1.13.56l.34-.47.79-.09Z"/>
      <path class="cls-34" d="M3.43,89.82l-1.69-.56c1.32-1.3,1.16.24,1.69.56Z"/>
      <path class="cls-34" d="M179.22,92.07l-.28.56c-.48.11-.26-.4-.28-.84l.56-.28s-.03.52,0,.56Z"/>
      <path class="cls-34" d="M183.73,97.7l-.47-.33-.1-.8c.06.13.32.32.56,1.13Z"/>
      <path class="cls-34" d="M1.18,101.65c-.01-.07-.46.04-.56-1.13l.47.33.09.79Z"/>
      <path class="cls-34" d="M1.74,103.9c-.02-.06-.32-.24-.56-1.13l.47.33.1.8Z"/>
      <path class="cls-34" d="M183.73,107.28l.1-.8.47-.33c-.12,1.14-.54,1.06-.56,1.13Z"/>
      <path class="cls-34" d="M181.48,111.79c-1.56-.3.71-2.34,1.69-2.82-.62,1.03-1.7,1.6-1.69,2.82Z"/>
      <path class="cls-34" d="M180.35,178.27c.07-.87.32-1.81,1.13-2.25-.17,1.48-.99,1.87-1.13,2.25Z"/>
      <path class="cls-34" d="M22.02,174.33c-1.44-1.08-1.04-.81-1.69-2.25l1.69,2.25Z"/>
      <path class="cls-34" d="M19.77,170.39l-1.69-.56c.1-.08.04-.74.8-.55.56.14.65.79.89,1.11Z"/>
      <path class="cls-34" d="M171.33,169.26l-.28.56c-.47.1-.26-.4-.28-.84l.56-.28c.02.19-.04.54,0,.56Z"/>
      <path class="cls-34" d="M180.91,165.88l-.47-.34-.09-.79c.23.44.33.48.56,1.13Z"/>
      <path class="cls-34" d="M20.33,161.37c-.02-.07-.32-.25-.56-1.13l.47.33.09.79Z"/>
      <path class="cls-34" d="M173.59,160.24l.09-.79.47-.33c-.25.85-.54,1.06-.56,1.13Z"/>
      <path class="cls-34" d="M19.77,159.12c-.02-.07-.32-.22-.56-1.13l.47.33.09.79Z"/>
      <path class="cls-34" d="M174.15,158.55l.09-.79.47-.33c-.25.86-.54,1.06-.56,1.13Z"/>
      <path class="cls-34" d="M182.6,122.49c-.4.31-.74.79-1.13,1.13l-.56-.28c.43-.59.94-.89,1.68-.85Z"/>
      <path class="cls-34" d="M19.21,156.86c-.02-.07-.32-.24-.56-1.13l.47.33.09.79Z"/>
      <path class="cls-34" d="M174.71,156.3l.09-.79.47-.33c-.25.86-.54,1.06-.56,1.13Z"/>
      <path class="cls-34" d="M175.28,154.61l.09-.79.47-.33c-.25.87-.54,1.06-.56,1.13Z"/>
      <path class="cls-34" d="M12.45,125.31c-.98-.22-1.06-.54-1.13-.56l.8.1.33.47Z"/>
      <path class="cls-34" d="M13.57,126.44c.02-.28.04-1.08,0-1.13l.56.28v.56l-.56.28Z"/>
      <path class="cls-34" d="M13.01,128.13c.09-1.16.55-1.06.56-1.13l-.09.79-.47.33Z"/>
      <path class="cls-34" d="M15.83,146.16c-.02-.07-.33-.15-.56-1.13l.47.33.1.8Z"/>
      <path class="cls-34" d="M184.29,130.38c-.2.07-.34.41-1.13.56l.34-.47.79-.09Z"/>
      <path class="cls-34" d="M180.35,133.2v-1.13c.18,1.11.04.49,0,1.13Z"/>
      <path class="cls-34" d="M14.14,138.83c-.02-.07-.34-.12-.56-1.13l.47.33.09.79Z"/>
      <path class="cls-34" d="M175.28,195.18s-.69-.15-.33-.56c.51-.58,1.38-.77,2.02-1.13l-1.69,1.69Z"/>
      <path class="cls-34" d="M23.15,197.43c-2.01-1.3-3.27-3.09-4.51-5.07,1.72,1.29,3.01,3.44,4.51,5.07Z"/>
      <path class="cls-34" d="M18.64,191.8c-.22-.38-.57-.42-1.13-1.69l1.13,1.69Z"/>
      <path class="cls-34" d="M7.37,81.36l-.56-.56c.45.26.53.55.56.56Z"/>
      <path class="cls-34" d="M8.5,81.93l-.56-.56c.52.17.52.56.56.56Z"/>
      <path class="cls-34" d="M13.57,81.93c0-.35.26-.5.56-.56.02.33-.27.54-.56.56Z"/>
      <path class="cls-34" d="M3.43,86.43s-.36.05-.56-.56l.56.56Z"/>
      <path class="cls-34" d="M3.99,87.56s-.33-.07-.56-.56l.56.56Z"/>
      <path class="cls-34" d="M5.12,89.25c-.08-.13-.68-.33-1.13-1.13l1.13,1.13Z"/>
      <path class="cls-34" d="M4.56,90.38l-.56-.56c.33.2.52.54.56.56Z"/>
      <path class="cls-34" d="M.61,90.94c.11-.6.55-.53.56-.56l-.56.56Z"/>
      <path class="cls-34" d="M182.6,94.89l-2.25-2.25c1.09.82,1.45,1.1,2.25,2.25Z"/>
      <path class="cls-34" d="M183.17,96.01l-.56-.56s.29.01.56.56Z"/>
      <path class="cls-34" d="M184.29,98.83l-.56-.56s.49-.02.56.56Z"/>
      <path class="cls-34" d="M2.3,105.03s-.33.02-.56-.56l.56.56Z"/>
      <path class="cls-34" d="M2.87,106.15s-.33-.07-.56-.56l.56.56Z"/>
      <path class="cls-34" d="M3.43,107.28s-.31-.14-.56-.56l.56.56Z"/>
      <path class="cls-34" d="M183.17,108.41l.56-.56c-.23.58-.54.53-.56.56Z"/>
      <path class="cls-34" d="M6.81,111.23c-1.3-.99-1.82-1.52-2.82-2.82l2.82,2.82Z"/>
      <path class="cls-34" d="M187.67,111.23s-.04-.44.56-.56l-.56.56Z"/>
      <path class="cls-34" d="M186.55,111.79s.05-.43.56-.56l-.56.56Z"/>
      <path class="cls-34" d="M8.5,112.35c-.43-.26-.53-.54-.56-.56l.56.56Z"/>
      <path class="cls-34" d="M9.63,112.92c-.45-.26-.53-.54-.56-.56l.56.56Z"/>
      <path class="cls-34" d="M10.75,113.48c-.48-.28-.53-.54-.56-.56l.56.56Z"/>
      <path class="cls-34" d="M10.75,114.61c.06-.04.59-1.07.56-1.13l.56.28-1.12.85Z"/>
      <path class="cls-34" d="M189.93,115.73l.56-.56c-.2.59-.55.53-.56.56Z"/>
      <path class="cls-34" d="M188.24,117.99l1.69-1.69c-.66,1.06-1.19,1.13-1.69,1.69Z"/>
      <path class="cls-34" d="M5.12,117.99s-.39.04-.56-.56l.56.56Z"/>
      <path class="cls-34" d="M6.25,120.24c-.08-.13-.73-.24-1.13-1.13l1.13,1.13Z"/>
      <path class="cls-34" d="M184.86,121.37l1.69-1.69c-.55.49-.79,1.01-1.69,1.69Z"/>
      <path class="cls-34" d="M9.63,124.18c-1.42-.98-2.38-1.99-3.38-3.38l3.38,3.38Z"/>
      <path class="cls-34" d="M183.73,121.93l.56-.56c-.11.08-.24.35-.56.56Z"/>
      <path class="cls-34" d="M10.75,124.75c-.58-.23-.53-.54-.56-.56l.56.56Z"/>
      <path class="cls-34" d="M183.73,125.88l-1.69-1.69c.62.55,1.37,1.44,1.69,1.69Z"/>
      <path class="cls-34" d="M185.42,127l-.56-.56c.28.21.49.52.56.56Z"/>
      <path class="cls-34" d="M187.11,128.13l-1.13-1.13c.45.31,1.04.39,1.13,1.13Z"/>
      <path class="cls-34" d="M175.28,186.16l1.69-1.69c-.5.58-.74,1.45-1.69,1.69Z"/>
      <path class="cls-34" d="M179.22,191.8c.68-.75,1.11-1.85,2.25-2.25-.6.94-1.22,1.76-2.25,2.25Z"/>
      <path class="cls-34" d="M25.4,198.56c-.49-.23-.53-.54-.56-.56l.56.56Z"/>
      <path class="cls-34" d="M26.53,199.12c-.51-.21-.53-.55-.56-.56l.56.56Z"/>
      <path class="cls-34" d="M27.66,199.68c-.59-.08-.53-.55-.56-.56l.56.56Z"/>
      <path class="cls-34" d="M32.73,200.25c.07-.11-.05-.38,0-.56l.56.28-.56.28Z"/>
      <path class="cls-34" d="M177.53,193.49l1.13-1.13c-.41.44-.3.69-1.13,1.13Z"/>
      <path class="cls-34" d="M178.09,182.78l1.13-1.13c-.48.69-.96.91-1.13,1.13Z"/>
      <path class="cls-34" d="M179.22,181.09l1.13-1.13c-.22.88-1.03.98-1.13,1.13Z"/>
      <path class="cls-34" d="M17.52,177.15s-.46.04-.56-.56l.56.56Z"/>
      <path class="cls-34" d="M16.95,174.33s-.45.03-.56-.56l.56.56Z"/>
      <path class="cls-34" d="M24.28,173.77s-.33.03-.56-.56l.56.56Z"/>
      <path class="cls-34" d="M16.39,172.64c.11-.6.55-.53.56-.56l-.56.56Z"/>
      <path class="cls-34" d="M23.71,172.08s-.34.04-.56-.56l.56.56Z"/>
      <path class="cls-34" d="M20.33,171.51l-.56-.56s.31,0,.56.56Z"/>
      <path class="cls-34" d="M23.15,170.39s-.34.04-.56-.56l.56.56Z"/>
      <path class="cls-34" d="M172.46,169.26s.35-.39.56-.56l-.56.56Z"/>
      <path class="cls-34" d="M22.59,168.7s-.38-.04-.56-.56l.56.56Z"/>
      <path class="cls-34" d="M173.59,168.13c.33-.32,1.56-1.52,1.69-1.69l-1.69,1.69Z"/>
      <path class="cls-34" d="M22.02,167.57s-.33.04-.56-.56l.56.56Z"/>
      <path class="cls-34" d="M15.26,142.78s-.42.04-.56-.56l.56.56Z"/>
      <path class="cls-34" d="M178.66,142.21l.56-.56c-.13.61-.55.52-.56.56Z"/>
      <path class="cls-34" d="M175.28,165.88c.44-.57,1.01-.97,1.13-1.13l-1.13,1.13Z"/>
      <path class="cls-34" d="M14.7,141.09s-.41.05-.56-.56l.56.56Z"/>
      <path class="cls-34" d="M176.4,164.19c.5-.64.73-1.42,1.69-1.69l-1.69,1.69Z"/>
      <path class="cls-34" d="M179.78,163.63l-1.13-1.13c.81.21.77.66,1.13,1.13Z"/>
      <path class="cls-34" d="M20.9,163.06s-.4.04-.56-.56l.56.56Z"/>
      <path class="cls-34" d="M179.22,139.96l.56-.56c-.11.6-.56.52-.56.56Z"/>
      <path class="cls-34" d="M173.02,161.93l.56-.56c-.18.61-.55.53-.56.56Z"/>
      <path class="cls-34" d="M18.64,155.17s-.4.04-.56-.56l.56.56Z"/>
      <path class="cls-34" d="M18.08,153.48s-.4.06-.56-.56l.56.56Z"/>
      <path class="cls-34" d="M186.55,129.26l.56-.56c-.14.44-.4.4-.56.56Z"/>
      <path class="cls-34" d="M17.52,151.23s-.45.02-.56-.56l.56.56Z"/>
      <path class="cls-34" d="M176.4,150.1l.56-.56c-.17.62-.55.53-.56.56Z"/>
      <path class="cls-34" d="M176.97,147.85l.56-.56c-.14.51-.55.53-.56.56Z"/>
      <path class="cls-34" d="M16.39,147.29s-.43.02-.56-.56l.56.56Z"/>
      <path class="cls-34" d="M177.53,146.72l.56-.56c-.16.61-.55.52-.56.56Z"/>
      <path class="cls-56" d="M43.43,106.72c-6.91,1.37,1.87-6.89,3.93-7.64,2.21-.8,4.04-.12,6.01.8,6.07.86,12.3.52,18.43,0,13.81-1.66,26.81-3.21,40.73-1.66,13.66,2.43,27.08,4.6,40.74,4.03,2.21.21,4.92,5.37,3.28,6.77-.81.69-1.24.39-1.56-.61-.16.49-.35.48-.56,0-.77-.57-1.71-.94-2.82-1.13-.14.48-.33.47-.56,0h-1.13c-.19.52-.38.52-.56,0l-1.69-.56c-.32,1.08-.83,1.1-1.13,0l-.56-.56c-.31,1.08-.82,1.1-1.13,0l-1.13-.56c-.31,1.08-.82,1.1-1.13,0l-.56-.56c-.3,1.08-.81,1.09-1.13,0l-1.13-.56c-.42,1.58-2.28,1.49-2.82,0l-1.13-.56c-.45,1.55-1.82,1.58-2.25,0-2.11-.49-4.59-.56-6.76,0-.06.52-.25.49-.56,0-1.41-.08-2.73.11-3.94.56l-.29,1.23c-6.31-.31-11.55,9.88-2.37,6.77,10.16-3.13,19.93-4.07,30.55-2.32,2.25-.43,3.84-.07,4.79,1.08l1.15-.88c4.61,4.1.82,13.37-3.32,16.76-1.6,4.24-2.37,8.9-2.29,13.99-.64,12-4.59,20.55-9.65,30.83-2.17,7.99-3.67,16.24-5.02,24.34l-1.16,1.16c-.14,1.55-1.11,6.22-1.71,7.5-.22.47-.99.28-1.11.76-.41,1.65-.98,4.43-1.15,6.1-.08.8-.34,1.76-1.11.85s.93-9.12.58-10.98c-.13-.69-1.62.12-1.74-.59-.36-2.07.7-9.37.03-10.41-.05-.07-1.63-.06-1.69,0-.33.37.67,2.85-.56,2.82v-5.63c-1.5-.16-1.5-.11-1.97,1.13-1.95-1.58.61-4.64-2.54-3.95l-.28,1.69c-2.49-.71-.57-2.6-2.26-3.95-.75-.13-1.24.94-1.67.95-2.6.1-.49-4.69-3.67-3.77-.17.27.45,2.33-.84,1.69-1.36-.67-.23-4.12-3.1-3.38l-.28,1.69c-1.56-1.26-2.31-5.81-3.67-1.69-1.05.01-.81-2.2-1.96-1.69-1.07.48-.58,2.24-1.13,2.25-.7-.89-.98-2.47-2.53-2.26-.17,2.61.87,5.33,2.54,7.32l1.12-2.25c1,.44,1.21,4.17,3.1,4.51l-.28-3.94,2.54,4.5,1.4-2.81,2.82,4.5.56-2.81c1.31,1.14,1.94,2.91,2.54,4.5l.84-2.25,2.26,3.38c.54.07.07-1.25.55-1.13,1.77.41,2.07,2.33,1.98,3.95l1.98-1.13c.67,2.68,1.06,5.43.87,8.21-.09,1.35-1.51.87-1.69,1.7-.09.43.54,1.33.51,2.17-.03.69-.54,1.45-.57,2.29-.13,3.51.55,7.74-.82,11-.92,2.17-2.35,1.47-2.86,2.21-.57.82.19,2.64-1.09,3.42l-1.13-2.25c-2.48.93.23,4.51-1.69,5.06-2.61.75-.47-2.59-2.26-3.37-1.55-.68-1.34,3.28-.84,3.94-1.93-.35-1.4-3.4-2.54-3.94-1.25-.59-1.67,2.66-.84,3.37h-3.38c1.01-1.65.19-2.47-1.69-2.25v2.82c-1.44-.56-1.25-2.71-1.7-3.94l-2.81,1.12c.27-3.8-.31-7.49-.56-11.27.16-.16,3.82.64,4.52.82,1.77.47,4.97,2.34,5.97,2.49,2.13.33,1.58-2.39-.91-3.61-3.18-1.55-6.07-1.28-9.02-1.97-.69-1.67-1.08-2.38-2.82-2.82-4.16-.93-2.56,1.79-3.42,2.78-.16.18-2.26-.04-3.02.08-1.93.29-8.13,1.79-8.71,3.69-.3,1,.29,1.96,1.35,1.92.78-.03,1.64-1.08,2.52-1.44,2.62-1.07,5.63-1.74,8.46-1.96l.28,4.51,1.41-2.82c-.17,1.29.25,2.95.03,4.15-.1.57-1.4.43-1.66,1.26-.46,1.49.06,4.06-1.19,5.86l-.56-1.69c-2.21-.32-1.72.31-1.69,2.26-1.42.11-.94.1-1.12-.84-.1-.52-.42-2.35-.57-2.54-1.33-1.55-1.63,2.61-1.75,2.75-.07.07-1.83.54-1.93.54-.77-.04-.85-2.36-1.67-2.72-1.63-.33-.5,1.82-.84,2.25-.05.07-1.63.06-1.69,0-.29-.33.66-3.2-.85-3.94-1.32-.65-1.24,2.61-1.41,2.81-1.18,1.39-1.6-2.13-1.69-2.26-.19-.26-1.38.74-2.24.32-1.63-.79-1.8-2.75-2.41-3.56-.29-.38-1.26-.55-2.03-1.63-2.72-3.83-2.63-8.78-3.46-13.16l1.69,1.69c1.16-4-2.94-10.59-.49-13.73.66-.84,1.41-.94,1.93-1.47.81-.82.87-2.06,2.46-2.21l.33,1.07,3.38-3.94.28,1.69c1.51-.63,2.06-2.27,3.1-3.38l.56,1.69c1.44-.65,1.84-3.7,3.11-2.53l-.85,3.65c1.13-1.11,2.38-2.21,3.13-3.64.46-.86.57-2.91,1.66-1.99.16.13-1.56,3-1.12,3.94l3.66-4.51v3.38c2-1.46,2.55-3.81,3.66-5.91-.1-.44-3.57-2.09-4.21-2.01-.38.05-.12.94-.68,1.14-.39.14-2.98.65-3.24.62-.5-.06-.02-1.6-1.16-1.17-.98.37-1.34,2.13-1.47,2.22-.33.25-2.49-.95-2.76-.54-.25.39.06,2.2-1.42,2.81-1.09.45-.73-1.08-1.12-1.14-2.2-.34-1.6,1.67-2.83,2.82-.24-.62.71-2.38.28-2.81-.06-.06-1.46-.07-1.64.04-.3.2-2.37,5.49-3.15,6.15l-.28-1.69c-2.34-.53-1.55,1.14-2.39,2.97-.57,1.24-2.38,2.92-2.58,3.61-.25.88.06,1.88-.13,2.69-.96,4.16-2.22,8.37-2.22,12.71-3.14-1.78-2.06-8.31-3.34-10.37-.41-.67-.87-.19-1.17-.33-1.5.2-1.87-.99-1.1-3.56l-1.01-2.19c-1.16-11.08-3.81-20.19-9.69-29.38-2.91-9.96-4.57-20.18-5-30.64-2.22-3.07-10.54-18.21-4.38-20.39.35-.13.76.55.89,1.07l1.01-1.03c11.42-1.77,22.15-.5,33.32,2.2,7.02,2.85,7.8-2.58,2.63-5.55-6.15-3.54-22.34-1.3-29.19.46l-2.14-.59Z"/>
      <path class="cls-16" d="M95.27,89.82c2.41-.53,4.91-.45,7.32,0,1.68.04,3.4-.09,5.07,0l2.25.56c.72.08,1.56-.1,2.25,0l1.69.56c.53.08,1.17-.09,1.69,0l1.13.56c.68.12,1.58-.13,2.25,0l1.13.56c.5.1,1.2-.11,1.69,0l1.13.56c.49.11,1.2-.11,1.69,0l.56.56c.33.08.8-.08,1.13,0l.56.56c.48.12,1.21-.12,1.69,0l.56.56c.33.08.79-.08,1.13,0l1.13.56c.48.12,1.21-.11,1.69,0l.56.56c.49.11,1.2-.11,1.69,0l.56.56c.49.11,1.18-.1,1.69,0l.56.56c.51.09,1.17-.09,1.69,0l1.69.56c.87.13,1.92-.1,2.82,0l1.69.56c1.11.09,2.26-.04,3.38,0,2.39.52,5,.45,7.32,0h2.25c.67-.39,1.69-.49,2.25,0-.05.36.07.8,0,1.13l-.56,2.25c-.11,2.47-.14,5.43,0,7.89l.56,2.25c.06.35-.07.79,0,1.13l.56,1.13c.08.33-.09.81,0,1.13l.56,1.13c.06.17-.06.4,0,.56l.56,1.13c.06.17-.06.4,0,.56l.56.56c.07.16-.06.39,0,.56l.56.56c.05.23.05.9,0,1.13.05,3.09-.14,6.28-.56,9.58-1.15,2.88-.6,6.66-1.24,9.75-.96,4.66-3.05,7.86-2.72,13.08.1,1.52.95,3.09.57,4.78-4.07-1.8-1.64,4.95-1.69,7.01-.06,2.18-1.91,2.08-2.18,2.91-.54,1.68.3,4.85-.04,6.68-.12.64-1.25.05-1.62.38-.1.09-1.1,2.42-1.14,2.56-.18.75,1.35,2.15,1.07,3.78l-2.29,2.03c.25-.82-.01-3.91-1.41-3.38-1.19.45-.49,1.26-.32,2,.32,1.37.92,2.33,1.16,3.63-.84,0-1.64.7-2.48.62-.51-.05-.66-1.72-1.19-1.73-1.37-.04-.12,3.86-1.79,4.42s-2.2-.91-1.88,2.34l-2.81-.56c-.22.22.88,2.95,0,3.94-.97,1.09-1.15-.94-1.22-.99-.46-.31-1.08-.08-1.59-.14v3.94c-1,.25-.22-1.09-.87-1.16-1.12-.12-2.11.76-3.07,1.17.27-3.01.28-3.92,1.02-7.15,2.13-9.26,2.49-17.33,7.18-26.06,2.89-5.37,3.14-3.63,4.24-10.41.88-5.48,2.15-10.87,2.73-16.43.42-4.04-.52-6.66,1.81-10.59.82-1.38,3.59-3.7,4.16-4.86.47-.96.13-2.02.39-2.99.61-2.29,1.5-2.4.75-5.49-.34-1.38-.73-2.17-1.99-2.23-1.23-.59-1.41-2.29,0-2.82.26-.23,1.59.65.75-1.67-.47-1.31-1.26-3.16-2.72-3.4-3.84-.64-9.39.33-13.53,0-12.69-.99-24.31-4.63-37.74-4.8-15.55-.19-32.63,4.33-47.92,2.57-2-.23-2.67-1.68-5.6-1.16-1.46.26-5.33,4.88-7.04,5.92l2.25.84-.15,1.22c-2.55.45-4.38,1.54-5.48,3.29-.07.08-.86-.31-1.12.38-.63,1.71-.69,4.7-.43,6.52.79,5.49,5.85,8.02,6.58,14.27.17,1.5-.14,3.06.03,4.48.79,6.39,1.66,13.47,2.97,19.57,1.45,6.74,7.47,12.56,8.83,20.46.77,4.46,1.53,8.83,2.4,13.37.15.77.94,1.45,1.03,2.39s-.88,3.21-.02,3.63l-1.69,2.25c-.38-1.03-.86-3.16-1.43-3.93-.35-.47-1.13-.69-1.63-1.18-.87-.84-.56-2.33-2.56-1.08.46-2.54-1.7-1.9-2.16-2.37-.3-.3.02-1.44-.66-1.89-.45-.3-1.37-.1-1.63-.35-.31-.31.07-1.32-.07-1.6-.04-.08-1.63-.06-1.67,0-.24.34.19,2.1-1.14,2.25.36-2.1,2.16-5.13-1.13-5.63l-.56,2.81-.57-4.5c-3.31-.12-.47,4.36-1.13,5.07-.13.14-1.03.2-1.13-.56l-.56-2.25c-.04-.11-.03-.45,0-.56.27-.45.32-.7,0-1.13-.06-.18.07-.42,0-.56-1.59-1.54-2.27-3.96-2.03-7.27l.34-1.18-1.11-.58c.45-1.43.26-2.18-.58-2.24l-.73-.28c.11-3.52-.6-6.78-2.13-9.8.19-4.59-.55-8.85-2.22-12.76.66-2.71.32-4.12-1.03-4.22-.03-3.65-.51-7.28-1.44-10.88.79-2.26.7-4.82.22-7.13.04-.56-.05-1.14,0-1.69l.56-1.13c.08-.34-.09-.84,0-1.13l.56-1.13c.16-.38.37-.76.56-1.13l.56-.56c.08-.15-.08-.42,0-.56l1.13-1.13c.08-.14-.08-.41,0-.56l.56-.56c.07-.15-.07-.41,0-.56l.56-.56c.06-.17-.06-.4,0-.56l.56-1.13c.14-.42-.12-1.21,0-1.69l1.13-1.13c.11-.09.46.09.56,0l1.69-1.69c.4-.42.76-1.18,1.13-1.69l.56-.56c.08-.13-.08-.42,0-.56l.56-.56c.07-.15-.07-.4,0-.56l.56-.56c.06-.16-.06-.39,0-.56l.56-1.13c.08-.32-.07-.78,0-1.13l.56-1.13c.11-.87-.05-1.9,0-2.82.49-1.18.45-2.75,0-3.94.01-.37-.06-.81,0-1.13.39-.54,1.19-.3,1.69,0,.17.06.39-.06.56,0l.56.56c.31.09.8-.09,1.13,0l1.13.56c.32.08.79-.08,1.13,0l1.69.56c1.75.39,2.71.49,4.51.56,1.79.52,3.9.51,5.63,0,1.3-.04,2.65.1,3.94,0l1.69-.56c.91-.1,1.92.12,2.82,0l1.69-.56c.54-.07,1.15.07,1.69,0l1.69-.56c.71-.1,1.55.1,2.25,0l1.13-.56c.71-.1,1.54.1,2.25,0l1.13-.56c.9-.11,1.91.1,2.82,0l1.69-.56c1.11-.09,2.27.08,3.38,0,1.07-.4,2.2-.59,3.38-.56,1.86-.09,3.77.04,5.63,0Z"/>
      <path class="cls-34" d="M185.98,114.04c2.74.17,1.06,2.08.02,3.12-1.81,1.8-4.23,3.23-6.76,3.64-1.14-3.1-2.88-5.34-3.4-8.67-.13-.84-2.03-.53-2.27,1.07-.25,1.72,2,6.64,2.96,8.33,1.32,2.3,4.34,3.8,5.5,6.33l-4.66.76c-1.56-.97-4.68-1.58-5.88-2.89-.83-.9-.99-3.09-1.81-4.11s-2.61-1.15-3.68-2.52c-1.61-2.07-3.54-7.31-3.66-9.9-.05-.97.53-1.8.56-2.75.11-3.68-.37-6.5,1.68-9.87,1.92-.45,4.24-.97,6.08-1.52,2.41-.72,3.66-2.38,6.48-1.75,1.43.32,3.5,3.02,4.07,4.39.4.96,1.45,6.13,1.31,6.93-.15.88-1.91,4.37-3.02,4.37-2.3,0-1.56-5.13-3.38-4.53-.9.3-.9,1.74-.89,2.54.05,4.76,6.41,8.34,10.75,7.03Z"/>
      <path class="cls-34" d="M179.2,167.02c.75,1.04.19,3.35.2,4.31,0,.74.4,1.4.36,2.1-.22,4-3.11,9.45-6.53,11.53-1.39.85-4.88.98-1.88,3.14,1.94,1.4,4.23.38,6.58.45.66.02,1.48.33,1.01.99-.14.2-3.38,2.69-3.83,2.94-1.48.82-7.03,2.6-8.62,2.68-3.11.15-7.64-4.02-10.68-5.03-.43-.63.39-6.23.84-6.54,1.01-.68,3.38.21,5.64-1.13,4.7-2.78,5.4-8.16,8.75-10.41.98-.66,2.09-.75,3.1-1.41,1.36-.89,2.15-2.92,2.82-3.38.48-.33,2.13-.41,2.25-.25Z"/>
      <path class="cls-4" d="M23.15,128.13c.22.19.37.36.56.56l.56.56c.08.13-.08.41,0,.56l.56.56c.1.28-.09.81,0,1.13l.56.56c.07.33-.06.78,0,1.13,1.79.94,2.96,9.19,2.32,10.38-.28.52-1.73.83-2.11.12-.04-.8-6.7-12.61-6.95-10.19.66.71.79,1.15-.03,1.94,1.84,1.79,2.9,4.96,3.64,7.53,1.19,7.06,2.61,13.94,4.24,20.65l1.04-.11c.04-6.26,3.48-10.48,4.69-1.14,1.3,3.14,1.96,6.34,1.98,9.6.01.13-.38-2.67.73-2.15.6-.48.37-1.33,1.12-1.12.69,1.18.3,2.99.57,3.94-.1,2.93-.1,5.74,0,8.45.07.31-.03.76,0,1.13-.53,1.51-1.21,1.51-1.69,0l.56-1.12c-.35-.07-.85.09-1.13,0l-.56-.56c-.47-.12-1.3.14-1.69,0l-.56-.56c-.35-.15-.83-.36-1.13-.56l-1.13-1.13c-.44-.42-.67-.59-1.13-1.13l-.56-.56c-.09-.12.09-.44,0-.56l-1.13-1.13c-.08-.13.08-.42,0-.56l-.56-.56c-.07-.15.07-.41,0-.56l-.56-.56c-.06-.16.06-.4,0-.56l-.56-1.13c-.11-.28.1-.82,0-1.13l-.56-.56c-.11-.29.12-.9,0-1.13l-1.13-1.13c-.14-.65.14-1.6,0-2.25l-.56-.56c-.05-.17.05-.39,0-.56l-.56-1.69c-.05-.17.05-.39,0-.56l-.56-1.13c-.09-.32.09-.81,0-1.13l-.56-1.13c-.08-.32.08-.8,0-1.13l-.56-1.69c-.04-.18.04-.39,0-.56l-.56-.56c-.08-.33.08-.8,0-1.13l-.56-.56c-.12-.48.11-1.2,0-1.69l-1.69-4.51c-.04-.18.03-.38,0-.56-.22-1.2-.59-2.33-1.13-3.38-.11-.5.11-1.21,0-1.69l-.56-.56c-.08-.33.07-.78,0-1.13l-.56-1.13c-.1-.49.08-1.16,0-1.69l-.56-2.82c-.03-.56,0-1.13,0-1.69.34-.49.36-.64,0-1.13.03-.55-.07-1.16,0-1.69l.56-1.13c.08-.15-.09-.44,0-.56.09-.69.44-1.05,1.13-1.13.11-.06.36.03.56,0,2.38-1.01,4.72.36,6.2,2.25Z"/>
      <path class="cls-34" d="M36.67,182.22c.33,3.91,1.49,7.5,1.67,11.04.06,1.16-.66,2.34-.57,3.89.23,4.04,3.03,6.46,2.3,10.63-.15.86-4.28,2.1-5.38,2.1-1.95,0-7.01-1.69-7.9-3.42-.23-.44-.47-1.52-.27-1.7.77-.7,4.67-.35,6.19-1.44.37-1.2,1.66-1.46,2.15-2.32,2.49-4.33-4.4-3.18-6.82-3.68-.48-.1-4.06-1.8-4.51-2.12-.63-.44-4.8-6.87-4.91-7.63-.12-.86,0-.99.86-.86,1.42.21,3.64,1.65,5.33,2.04s5.35-1.05,5.54-2.96c.3-2.9-3.39-2.28-5.13-3.13-1.03-.5-4.77-3.95-5.17-4.97-.31-.77-.38-1.42-.3-2.24,2.06,1.86,4.08,1.87,6.76,1.69-1.14,1.45,4.03,5.05,5.03,5.39,1.82.61,2.12-.05,3.42-.32.49-.1,1.15.07,1.69,0Z"/>
      <path class="cls-30" d="M173.02,129.26c.37.18,1.12.33,1.69.56.8.67,1.82.91,2.82,1.13.24.12,1.06-.34,1.15.33-.12,1.57.09,3.18-.03,4.74l-.56,1.69c-.09.52.1,1.2,0,1.69l-.56.56c-.12.48.12,1.22,0,1.69l-.56.56c-.08.32.09.8,0,1.13l-.56.56c-.12.47.12,1.22,0,1.69l-.56.56c-.05.17.05.39,0,.56l-.56,1.13c-.09.32.09.81,0,1.13l-.56,1.13c-.05.17.05.39,0,.56l-.56,1.69c-.09.32.09.81,0,1.13l-.56,1.13c-.05.17.05.39,0,.56l-.56.56c-.09.31.09.81,0,1.13l-.56,1.13c-.05.17.05.39,0,.56l-.56,1.13c-.09.31.09.82,0,1.13l-.56.56c-.13.45.13,1.25,0,1.69-.67.59-1,1.38-1.13,2.25-.09.31.1.83,0,1.13l-.56,1.69c-.17.38-.4.74-.56,1.13l-.56.56c-.07.15.07.41,0,.56l-.56,1.13c-.07.15.07.41,0,.56l-1.13,1.13c-.12.24.12.89,0,1.13l-.56.56c-.08.14.08.42,0,.56l-.56.56c-.21.35-.34.83-.56,1.13l-1.69,1.69c-.12.09-.42-.08-.56,0l-1.69,1.13c-1.36.45-3.05,1.17-3.92-.32,2.33-7.33,2.98-15.19,6.18-22.21l.95,5.45-.39,3c1.49-.75,2.29-2.43,2.81-3.94.56-9.3,4.1-18.62,7.89-27.04.12-.6.89-1.31.56-2.25-3.08-.62-4.1,1.52-5.53,3.76l-4.04,7.5,1.23-9.76c1-1.39,1.64-3.72,2.71-4.89l.56-.56c.1-.06,1.6-.57,1.69-.56l1.13,1.13Z"/>
      <path class="cls-7" d="M96.96,208.14c.03-.08,1.49-.54.85-1.12-1.93,1.39-4.22.16-6.19-.02-1.29-.12-2.62.14-3.92-.02-2.01-.25-8.28-3.06-9.36-4.72-1.54-2.36-.51-3.31,1.92-1.92,1.49.85,2.53,2.11,4.47,2.85,4.08,1.56,18.79,1.61,22.93.17,1.35-.47,6.72-4.28,7.32-3.66.35.36-.12,1.94-.53,2.57-1.11,1.71-6.85,4.31-8.89,4.63-1.5.24-5.46-.11-6.36.69-.13.11,1.1,2.46.57,3.38-.19-.05-2.88-2.62-2.82-2.82Z"/>
      <path class="cls-2" d="M174.71,134.89c-1.83,8.93-5.89,17.33-7.33,26.21-.1.59-.53.75-.56.83l-1.03-8.59c2.5-5.78,4.4-11.39,7.35-16.95.44-.82.17-1.81,1.58-1.5Z"/>
      <path class="cls-34" d="M38.36,181.09c-1.23-.69-1.86-2.07-1.69,0-.05-.22-.71-.89-.88-1.63-.36-1.62-.98-5.89.88-6.82.04.14.87.67,1.04,1.5.59,2.91-1.4,2.83.65,6.95Z"/>
      <path class="cls-34" d="M164.01,120.8c.7.94,1.4,1.78,1.16,3.07-.08.41-1.08.18-1.17.65-.42,2.08.45,3.37-.55,5.86.11-2.73-.13-5.5-.03-8.23.03-.91.56-1.19.6-1.35Z"/>
      <path class="cls-34" d="M171.9,196.87v-.56c.23-.07,1.74-1.74,1.69-.84-.08,1.56-1.24,1.08-1.69,1.41Z"/>
      <path class="cls-34" d="M169.64,127.56c-.06.06-1.11-.15-1.41.56l-.27-.27c.64-.5.61-1.2.56-1.98.25-.32,1.59,1.22,1.12,1.69Z"/>
      <path class="cls-34" d="M160.63,101.08c.06-1.4.46-1.75.56-2.25l-.09,1.87-.47.38Z"/>
      <path class="cls-34" d="M38.93,185.6l-.48-.38-.08-1.87s.39-.15.47.38c.11.69.02,1.3.09,1.87Z"/>
      <path class="cls-34" d="M19.21,150.67c-.94-.45-.88-1.42-1.13-2.25-.22-.74-.41-1.5-.56-2.25,1.2.95,1.34,3.02,1.69,4.51Z"/>
      <path class="cls-34" d="M161.19,111.23c-.06-.36-.49-.92-.56-2.25l.47.38.09,1.87Z"/>
      <rect class="cls-34" x="17.52" y="181.09" width=".56" height="2.25"/>
      <path class="cls-34" d="M161.19,97.14v.56h-2.25l.37-.48c.62-.19,1.26-.07,1.88-.09Z"/>
      <path class="cls-34" d="M174.15,152.36l.09-1.32.47-.37c-.2.71-.47,1.36-.56,1.69Z"/>
      <path class="cls-34" d="M177.53,130.95c-1.04.04-2.25-.15-2.82-1.13,1.01.42,1.67.54,2.82,1.13Z"/>
      <path class="cls-34" d="M20.9,156.86c-.06-.23-.37-.91-.56-1.69l.47.37.09,1.32Z"/>
      <path class="cls-34" d="M178.09,137.71l.09-1.32.47-.37c-.1,1.25-.55,1.6-.56,1.69Z"/>
      <path class="cls-34" d="M22.59,163.63c-.08-.3-.37-.99-.56-1.69l.47.36.09,1.33Z"/>
      <path class="cls-34" d="M170.21,165.32c-.12-.98.07-1.99,1.13-2.25-.24.8-1.01,1.88-1.13,2.25Z"/>
      <path class="cls-34" d="M169.64,168.13l.09-1.32.48-.37c-.22.66-.22.9-.56,1.69Z"/>
      <path class="cls-34" d="M164.57,196.87l-1.32-.1-.37-.47c.59.18,1.5.51,1.69.56Z"/>
      <path class="cls-34" d="M19.77,181.09c0,.38-.01.75,0,1.13l-.56-.28c0-.47-.01-.94,0-1.41l.56.56Z"/>
      <path class="cls-34" d="M26.53,185.04l-.79-.09-.33-.47c.89.25,1.06.55,1.13.56Z"/>
      <path class="cls-34" d="M24.28,184.47c-1.09-.31-2.36-1.19-2.82-2.25.99.61,2.3,1.24,2.82,2.25Z"/>
      <path class="cls-34" d="M38.36,182.78v-1.13c.03.09.4.16.48.42.13.4-.45.6-.48.71Z"/>
      <path class="cls-34" d="M161.75,113.48c-.02-.07-.35-.09-.56-1.13l.47.33.09.79Z"/>
      <path class="cls-34" d="M162.32,115.73c-.02-.07-.32-.25-.56-1.13l.47.33.09.79Z"/>
      <path class="cls-34" d="M161.19,179.96l1.69-1.13c-.41.24-.17.62-1.69,1.13Z"/>
      <path class="cls-34" d="M162.88,117.42c-.02-.06-.32-.43-.56-1.13l.47.33.1.8Z"/>
      <path class="cls-34" d="M25.4,172.08c-.04-.09-.33-.52-.56-1.13l.47.33.1.8Z"/>
      <path class="cls-34" d="M167.95,171.51l.1-.79.47-.33c-.22.48-.44.86-.56,1.13Z"/>
      <path class="cls-34" d="M22.02,161.37c-.02-.07-.32-.25-.56-1.13l.47.33.09.79Z"/>
      <path class="cls-34" d="M171.9,159.68l.09-.79.47-.33c-.25.83-.54,1.06-.56,1.13Z"/>
      <path class="cls-34" d="M21.46,159.12c-.02-.07-.32-.2-.56-1.13l.47.33.09.79Z"/>
      <path class="cls-34" d="M172.46,157.99l.09-.79.47-.33c-.25.84-.54,1.06-.56,1.13Z"/>
      <path class="cls-34" d="M173.59,154.61l.1-.8.47-.33c-.25.85-.54,1.06-.56,1.13Z"/>
      <path class="cls-34" d="M174.71,150.1l.09-.79.47-.33c-.25.88-.54,1.06-.56,1.13Z"/>
      <path class="cls-34" d="M175.28,147.85l.09-.79.47-.33c-.24.89-.55,1.06-.56,1.13Z"/>
      <path class="cls-34" d="M183.73,128.13s.66-.07.56.56c-.36.06-.84-.09-1.13,0l.56-.56Z"/>
      <path class="cls-34" d="M161.19,195.74c-.86-.39-1.92-.71-2.25-1.69.8.18,1.97.88,2.25,1.69Z"/>
      <path class="cls-34" d="M163.45,118.55s-.33.02-.56-.56l.56.56Z"/>
      <path class="cls-34" d="M164.01,119.68s-.37-.04-.56-.56l.56.56Z"/>
      <path class="cls-34" d="M23.15,186.16c-.49-.23-.53-.54-.56-.56l.56.56Z"/>
      <path class="cls-34" d="M169.64,196.87s-.05-.43.56-.56l-.56.56Z"/>
      <path class="cls-15" d="M122.03,238c.37,0,.37.56,0,.56s-.37-.56,0-.56Z"/>
      <path class="cls-34" d="M28.22,185.6v-.56c.24.04.46-.06.56.28,0,.37-.46.22-.56.28Z"/>
      <path class="cls-34" d="M21.46,185.04c-.55-.47-.63-.4-1.13-1.13l1.13,1.13Z"/>
      <path class="cls-34" d="M20.33,183.35s-.43.02-.56-.56l.56.56Z"/>
      <path class="cls-34" d="M20.9,182.22c-.43-.25-.38-.36-.56-.56l.56.56Z"/>
      <path class="cls-34" d="M24.28,186.73c-.6-.11-.53-.55-.56-.56l.56.56Z"/>
      <path class="cls-34" d="M34.42,181.09c-.4-.14-.52-.55-.56-.56l.56.56Z"/>
      <path class="cls-34" d="M32.17,180.53c-.62-.23-.53-.55-.56-.56l.56.56Z"/>
      <path class="cls-34" d="M30.48,179.4c-.7-.49-.73-.74-1.13-1.13l1.13,1.13Z"/>
      <path class="cls-34" d="M163.45,178.84l1.69-1.69c-.68.88-.77,1-1.69,1.69Z"/>
      <path class="cls-34" d="M28.22,177.15c-.14-.17-.37-.3-.56-.56l.56.56Z"/>
      <path class="cls-34" d="M165.7,176.02l.56-.56c-.26.45-.54.53-.56.56Z"/>
      <path class="cls-34" d="M27.66,176.02c-.13-.19-.65-.35-1.13-1.13l1.13,1.13Z"/>
      <path class="cls-34" d="M166.26,174.89l.56-.56c-.29.55-.54.53-.56.56Z"/>
      <path class="cls-34" d="M26.53,174.33s-.32-.08-.56-.56l.56.56Z"/>
      <path class="cls-34" d="M166.83,173.2l1.13-1.13c-.4.85-1.09,1.06-1.13,1.13Z"/>
      <path class="cls-34" d="M25.97,173.2s-.33.02-.56-.56l.56.56Z"/>
      <path class="cls-34" d="M18.36,172.64c.37,0,.37.56,0,.56s-.37-.56,0-.56Z"/>
      <path class="cls-34" d="M162.32,196.3l-.56-.56c.51.18.53.55.56.56Z"/>
      <path class="cls-34" d="M168.52,169.82l.56-.56c-.16.37-.54.51-.56.56Z"/>
      <path class="cls-34" d="M24.84,169.82s-.33.04-.56-.56l.56.56Z"/>
      <path class="cls-34" d="M25.97,186.73l.56-.56s.05.43-.56.56Z"/>
      <path class="cls-34" d="M24.28,168.13c-.05-.1-.94-.27-1.13-1.13l1.13,1.13Z"/>
      <path class="cls-34" d="M176.97,142.21l.56-.56c-.16.62-.55.52-.56.56Z"/>
      <path class="cls-34" d="M23.15,164.75s-.38.04-.56-.56l.56.56Z"/>
      <path class="cls-34" d="M171.33,161.37l.56-.56c-.19.61-.55.53-.56.56Z"/>
      <path class="cls-34" d="M177.53,139.96l.56-.56c-.13.61-.55.52-.56.56Z"/>
      <path class="cls-34" d="M173.02,155.74l.56-.56c-.17.59-.55.53-.56.56Z"/>
      <path class="cls-34" d="M20.33,154.61s-.42.04-.56-.56l.56.56Z"/>
      <path class="cls-34" d="M19.77,152.92s-.41.05-.56-.56l.56.56Z"/>
      <path class="cls-34" d="M180.07,187.85c.37,0,.37.56,0,.56s-.37-.56,0-.56Z"/>
      <path class="cls-34" d="M173.02,129.26l-1.13-1.13c.78.02,1.03,1.08,1.13,1.13Z"/>
      <path class="cls-34" d="M169.64,129.26c.19-.2.23-.38.56-.56l-.56.56Z"/>
      <path class="cls-34" d="M175.84,146.16l.56-.56c-.16.62-.55.52-.56.56Z"/>
      <path class="cls-34" d="M176.4,143.9l.56-.56c-.16.6-.55.52-.56.56Z"/>
      <path class="cls-13" d="M131.8,13.84c.23.35.02,1.39.37,2.15.9,1.94,4.81,5.46,6.39,7.71,6.93,9.87,10.86,19.22,13.75,30.76,1.71,6.85,7.14,10.26,9.55,15.8,1.48,3.39.14,5.87-.11,9.41-4.18-1.08-8.19-2.98-12.39-4.24-24.88-7.47-64.15-9.16-89.83-5.86-8.03,1.03-15.95,3.22-23.99,3.9.71-7.08-4.22-12.88-2.68-19.87,1.18-5.38,5.64-12.55,8.24-17.68,2.41-4.76,2.7-6.21,6.83-10.08,7.09-6.64,13.86-9.68,22.17-14.46,4.85-2.79,9.46-6.82,14.9-8.2,6.23-1.58,11.48-1.27,17.73,0,3.2.65,28.21,9.36,29.08,10.65Z"/>
      <path class="cls-52" d="M23.15,80.8c-.16-.21-.65-1.05-.56-1.12,4.6-.76,8.87-2.77,13.39-3.8,26.66-6.09,54.54-6.88,81.56-4.11,19.92,2.04,39.86,6.71,56.99,17.4.64.4,1.75.55,1.88.65,1.37,1.04-.89,1.04-1.13,1.12l-1.13.56c-.32.08-.78-.06-1.13,0l-.56.56c-.35.07-.83-.09-1.13,0l-1.13.56c-.17.06-.39-.05-.56,0l-1.13.56c-.17.05-.39-.05-.56,0l-1.13.56c-.17.05-.39-.05-.56,0l-1.13.56c-.32.08-.8-.08-1.13,0l-1.13.56c-.33.07-.78-.07-1.13,0l-1.13.56c-.68.12-1.54-.09-2.25,0l-2.25.56c-1.48.08-3.02.01-4.51,0l-4.51-.56c-.93-.02-1.89.06-2.82,0l-1.69-.56c-.72-.08-1.57.11-2.25,0l-1.69-.56c-.34-.07-.8.08-1.13,0l-1.13-.56c-.33-.08-.79.08-1.13,0l-.56-.56c-.48-.12-1.21.12-1.69,0l-.56-.56c-.48-.12-1.21.12-1.69,0l-1.13-.56c-.33-.08-.8.08-1.13,0l-.56-.56c-.33-.08-.8.08-1.13,0l-1.13-.56c-.33-.08-.79.08-1.13,0l-1.13-.56c-.34-.07-.79.07-1.13,0l-1.13-.56c-.66-.13-1.58.13-2.25,0l-1.13-.56c-.68-.12-1.56.11-2.25,0l-1.13-.56c-.54-.08-1.15.07-1.69,0l-1.69-.56c-1.1-.11-2.28.1-3.38,0-.87-.35-1.81-.53-2.82-.56-3.93-.23-9.02-.22-12.96,0-1.01.04-1.94.23-2.82.56-1.29.1-2.67-.12-3.94,0l-2.25.56c-.73.08-1.53-.09-2.25,0l-2.25.56c-.72.1-1.54-.1-2.25,0l-1.13.56c-.72.1-1.54-.1-2.25,0l-1.69.56c-.54.07-1.15-.07-1.69,0l-1.69.56c-.89.12-1.92-.11-2.82,0l-1.13.56c-1.08.12-2.29-.1-3.38,0l-2.25.56c-1.73.09-3.93.14-5.63,0l-1.13-.56c-.54-.07-1.18.09-1.69,0l-1.13-.56c-.5-.1-1.21.11-1.69,0l-1.13-.56c-.33-.08-.81.09-1.13,0l-.56-.56c-.32-.09-.82.09-1.13,0l-.56-.56c-.31-.1-.82.1-1.13,0l-.56-.56c-.3-.1-.83.1-1.13,0l-.56-.56c-.3-.1-.84.1-1.13,0l-.56-.56c-.17-.06-.4.06-.56,0l-.56-.56c-.16-.06-.4.06-.56,0l-1.13-.56c-.16-.06-.4.07-.56,0l-1.13-.56c-.16-.07-.41.07-.56,0l-.56-.56c-.16-.07-.41.07-.56,0l-1.13-.56c-.38-.18-.75-.37-1.13-.56l-.56-.56c-.15-.08-.42.08-.56,0l-.56-.56c-.14-.08-.42.08-.56,0l-1.13-1.13c-.12-.09-.42.08-.56,0l-.56-.56c-.18-.07-.46.08-.56,0l-.56-.56Z"/>
      <path class="cls-50" d="M177.53,88.13c-4.29-2.63-8.81-4.86-13.45-6.83.25-5.58,1.73-9.45-1.51-14.55-2.71-4.27-6.08-6.6-7.74-11.98-2.64-8.56-3.86-16.13-9.31-23.94l-6.59-10.88c4.11,3.44,8.85,6.15,12.96,9.58,7.37,6.13,15.27,14.95,20.11,23.28,6.12,10.54,6.96,23.42,5.53,35.32Z"/>
      <path class="cls-34" d="M30.48,112.35c-1.31,1.81-2.16,3.95-3.65,5.65-.89,1.01-5.26,4.67-6.32,4.95-2.17.57-5.95.62-8.06-.17s-4.63-2.33-5.01-4.59c-.31-1.85,2.91-1.14,4.05-1.44.82-.22,2.44-1.59,4.03-2.17,4.5-1.64-2.32-2.6-3.63-3.07-7.02-2.51-10.74-11.95-9-18.87,1.33.47,7.72,1.04,7.88-.3.29-2.45-2.59-2.45-3.66-3.66-.68-.77-2.26-3.74-1.98-4.77s.99-.54,1.54-.46c2.32.31,4.11,1.03,6.6.7,1.14-.15,4.01-.82,3.7-2.22.69.1,1.09.76,1.15,1.41.14,1.5-1.7,4.97-1.76,7.31s1.03,3.75,1.17,5.92c-1.9,1-6.07-1.36-7-1.11-2.53.66.68,6.46,1.91,7.61s7.31,3.49,7.34,3.92c.09,1.14-2.04.24-2.41.35-3.3.91,1.05,5.01,2.14,5.01h10.99Z"/>
      <path class="cls-34" d="M26.68,85.71l10.87,4.63c.45.64.38,7.47.22,8.73-.15,1.13-1.91,5.85-2.61,6.54-.76.75-5.41,3.95-6.35,4.22-1.86.53-3.77.17-5.65.26-.6-2.31,4.65-4.48,3.12-6.78-1.14-1.71-2.91.41-3.98.59-2.79.46-6.82-1.61-8.71-3.67-.03-1.09,5.52-1.35,6.61-1.84,2.14-.94,4.75-4.41,4.09-6.9-1.5-1.6-4.18,5.85-4.93,1.28-.58-3.49.25-6.52,1.6-9.68.66-.46,5.62,1.22,5.74,2.61Z"/>
      <path class="cls-29" d="M33.26,74.57l-12.92,3.41c-.48-2.23.46-4.47.57-6.47.52-9.3.31-15.19,5.16-23.57,3.9-6.74,9.13-13.42,15.11-18.41-.35,1.4-.99,3.01-1.58,4.33-2.97,6.68-9.58,16.09-9.37,23.32.17,5.8,4.23,11.28,3.03,17.39Z"/>
      <path class="cls-34" d="M27.66,124.75c1.14,1.37.38,3.6.61,5.31.53,4,2.48,8.01,1.09,12.16,3.74-1.56,1.3,2.51,1.69,4.78.21,1.18,1.46,2.3,1.66,3.99.31,2.74.07,6.68.7,9.43.26,1.12,1.38,1.79,1.58,2.93.26,1.53.12,4.79,0,6.47-.05.74-.09,2.76-1.12,2.82-.41-4.93-3.37-9.45-3.39-14.65-1.36-.07-.99-.18-1.11.85-.27,2.5-1.23,4.48-.59,7.04-1.79-.31-1.59-1.26-2.25-2.25l-1.3-3.96c3.18-3.7,1.65-7.1-.58-10.8-1.54-4.91-3.54-9.38-6-13.4-.44-.92-1.48-1.46-1.13-2.82,1.21-.12,1.44-.88,2.55-.04,2.43,1.86,4.27,6.29,5.69,8.99.3.58.65,1.81,1.34,1.75-.82-3.33-1.06-6.77-1.69-10.14l2.13-2.66c.34-1.91,0-3.88.12-5.79Z"/>
      <path class="cls-34" d="M156.68,97.7l-.36.47c-2.16-.07-5.23.71-6.97-.47,2.42.09,4.9,0,7.32,0Z"/>
      <path class="cls-34" d="M102.59,89.82c-2.42-.05-4.9-.06-7.32,0,1.73-1.18,4.81-.4,6.97-.47l.36.47Z"/>
      <path class="cls-34" d="M58.08,93.76l-.36.47c-1.6-.01-4.12.66-5.27-.47,1.85.08,3.78.06,5.63,0Z"/>
      <path class="cls-34" d="M151.61,96.01c-1.4-.01-3.63.45-4.51-.56,1.4.02,3.62-.45,4.51.56Z"/>
      <path class="cls-34" d="M40.05,96.58c.07-1.31-.04-2.64,0-3.94l.47.36c.2,1.06.2,2.17,0,3.23l-.47.36Z"/>
      <path class="cls-34" d="M23.15,128.13c-2.03-1.75-3.33-2.62-6.2-2.25,2.04-1.66,5.1.15,6.2,2.25Z"/>
      <path class="cls-34" d="M89.64,89.82c-.45.02-2.15.47-3.38.56.57-1.04,2.33-.44,3.38-.56Z"/>
      <path class="cls-34" d="M15.26,136.02c-.09-.62-.48-1.4-.56-2.82l.47.37.09,2.44Z"/>
      <path class="cls-34" d="M91.89,87.56c-.15,0-1.65.47-2.82.56l.37-.47,2.44-.09Z"/>
      <path class="cls-34" d="M107.67,88.13c-1.11-.1-2.67-.55-2.82-.56l2.44.09.37.47Z"/>
      <path class="cls-34" d="M85.13,88.13c-.12.01-1.17.44-2.25.56l.38-.47,1.87-.09Z"/>
      <path class="cls-34" d="M80.62,88.69c-.12.01-1.25.43-2.25.56l.38-.47,1.87-.09Z"/>
      <path class="cls-34" d="M109.92,90.38l-1.87-.09-.38-.47c1.26.07,2.13.55,2.25.56Z"/>
      <path class="cls-34" d="M17.52,145.6l-.44-.39c-.19-1.01-.47-1.99-.69-2.99,1.38.75.92,2.25,1.13,3.38Z"/>
      <path class="cls-34" d="M60.34,91.51c-.12.01-.99.5-2.25.56l.38-.47,1.87-.09Z"/>
      <path class="cls-34" d="M158.37,95.45c-.14.02-1.01.49-2.25.56l.38-.47,1.87-.09Z"/>
      <path class="cls-34" d="M16.39,125.88c-.07.04-1.08,1.06-1.13,1.13-.13-1.2-.08-1.25,1.13-1.13Z"/>
      <path class="cls-34" d="M112.74,88.69c-1.14-.15-1.59-.55-1.69-.56l1.32.09.37.47Z"/>
      <path class="cls-34" d="M72.73,89.82c-.1.01-.57.41-1.69.56l.37-.47,1.32-.09Z"/>
      <path class="cls-34" d="M69.35,90.38c-.1.01-.57.41-1.69.56l.37-.47,1.32-.09Z"/>
      <path class="cls-34" d="M82.87,90.38l-.37.47-1.32.09c.1-.01.41-.46,1.69-.56Z"/>
      <path class="cls-34" d="M113.86,90.94l-1.32-.09-.37-.47c1.08.16,1.6.55,1.69.56Z"/>
      <path class="cls-34" d="M41.74,91.51h-1.69c.05-.24-.07-.46.29-.56,1.01-.28,1.27.52,1.4.56Z"/>
      <path class="cls-34" d="M144.29,95.45c-1.3-.09-1.59-.55-1.69-.56l1.32.09.37.47Z"/>
      <path class="cls-34" d="M68.23,92.63l-.37.47-1.32.09c.1-.01.58-.41,1.69-.56Z"/>
      <path class="cls-34" d="M47.94,93.2l-1.33-.09-.36-.47c.78.18,1.6.54,1.69.56Z"/>
      <path class="cls-34" d="M71.61,92.07l-.37.47-1.32.09c.1-.01.58-.41,1.69-.56Z"/>
      <path class="cls-34" d="M141.47,97.14l-1.32-.09-.37-.47c1,.17,1.6.55,1.69.56Z"/>
      <path class="cls-34" d="M145.98,97.7l-1.32-.09-.37-.47c1.21.13,1.59.56,1.69.56Z"/>
      <path class="cls-34" d="M63.72,93.2l-.37.47-1.32.09c.1,0,.48-.43,1.69-.56Z"/>
      <path class="cls-34" d="M140.34,94.89c-1.02-.16-1.6-.54-1.69-.56l1.32.09.37.47Z"/>
      <path class="cls-34" d="M31.04,85.31c-.43-.2-.74-.38-1.13-.56l.79.09.34.47Z"/>
      <path class="cls-34" d="M33.86,86.43c-.56-.23-.95-.49-1.13-.56l.8.1.33.47Z"/>
      <path class="cls-34" d="M35.55,87c-.59-.23-1.02-.52-1.13-.56l.79.09.33.47Z"/>
      <path class="cls-34" d="M115.55,89.25c-1.12-.18-1.06-.55-1.13-.56l.79.09.33.47Z"/>
      <path class="cls-34" d="M76.11,89.25c-.07,0,.02.41-1.13.56l.33-.47.79-.09Z"/>
      <path class="cls-34" d="M118.93,89.82c-1.07-.2-1.06-.55-1.13-.56l.79.09.33.47Z"/>
      <path class="cls-34" d="M122.31,90.38c-1.02-.22-1.06-.55-1.13-.56l.79.09.33.47Z"/>
      <path class="cls-34" d="M46.81,90.94c-.98-.23-1.06-.55-1.13-.56l.79.09.33.47Z"/>
      <path class="cls-34" d="M124.57,90.94c-.99-.23-1.06-.55-1.13-.56l.79.09.33.47Z"/>
      <path class="cls-34" d="M49.63,91.51c-1.09-.19-1.06-.55-1.13-.56l.79.09.33.47Z"/>
      <path class="cls-34" d="M64.84,90.94c-.07,0,.03.44-1.13.56l.33-.47.79-.09Z"/>
      <path class="cls-34" d="M78.37,90.94l-.33.47-.79.09c.07,0-.02-.42,1.13-.56Z"/>
      <path class="cls-34" d="M116.68,91.51l-.79-.09-.33-.47c1.11.18,1.06.55,1.13.56Z"/>
      <path class="cls-34" d="M126.82,91.51c-.98-.23-1.06-.55-1.13-.56l.79.09.33.47Z"/>
      <path class="cls-34" d="M175.28,90.94c-.21.08-.42.39-1.13.56l.34-.47.79-.09Z"/>
      <path class="cls-34" d="M52.45,92.07c-1.17-.09-1.06-.55-1.13-.56l.79.09.33.47Z"/>
      <path class="cls-34" d="M74.99,91.51l-.33.47-.79.09c.07,0,0-.4,1.13-.56Z"/>
      <path class="cls-34" d="M120.06,92.07l-.79-.09-.33-.47c1.06.2,1.06.55,1.13.56Z"/>
      <path class="cls-34" d="M45.12,92.63l-.79-.09-.33-.47c.91.24,1.06.55,1.13.56Z"/>
      <path class="cls-34" d="M122.88,92.63l-.79-.09-.33-.47c1.02.22,1.06.55,1.13.56Z"/>
      <path class="cls-34" d="M130.77,92.63c-.97-.23-1.06-.55-1.13-.56l.79.09.33.47Z"/>
      <path class="cls-34" d="M171.33,92.07c-.07.02-.37.32-1.13.56l.33-.47.79-.09Z"/>
      <path class="cls-34" d="M169.64,92.63c-.07.02-.34.32-1.13.56l.33-.47.79-.09Z"/>
      <path class="cls-34" d="M167.95,93.2c-.07.02-.29.32-1.13.56l.33-.47.79-.09Z"/>
      <path class="cls-34" d="M137.53,94.32c-.99-.23-1.06-.55-1.13-.56l.79.09.33.47Z"/>
      <path class="cls-34" d="M166.26,93.76c-.07.02-.2.32-1.13.56l.33-.47.79-.09Z"/>
      <path class="cls-34" d="M131.33,94.89l-.79-.09-.33-.47c.97.23,1.06.55,1.13.56Z"/>
      <path class="cls-34" d="M164.01,94.32c-.07.02-.13.34-1.13.56l.33-.47.79-.09Z"/>
      <path class="cls-34" d="M161.75,94.89c-.07.01-.03.38-1.13.56l.33-.47.79-.09Z"/>
      <path class="cls-34" d="M39.49,100.52c.22-1.05.55-1.06.56-1.13l-.09.79-.47.33Z"/>
      <path class="cls-34" d="M38.93,102.77c.25-.75.55-1.06.56-1.13l-.09.79-.47.33Z"/>
      <path class="cls-34" d="M32.17,113.48c.24-.66.54-1.06.56-1.13l-.09.79-.47.33Z"/>
      <path class="cls-34" d="M28.22,120.8c.23-.69.45-.86.56-1.13l-.09.79-.47.34Z"/>
      <path class="cls-34" d="M27.66,123.06c.11-1.16.55-1.06.56-1.13l-.09.79-.47.33Z"/>
      <path class="cls-34" d="M14.7,128.69c.14-1.07.48-.98.56-1.13l-.56,1.13Z"/>
      <path class="cls-34" d="M14.7,131.51c0-.37-.02-.75,0-1.13l.56.28v.56l-.56.28Z"/>
      <path class="cls-34" d="M15.83,138.83c-.01-.07-.35-.09-.56-1.13l.47.33.09.79Z"/>
      <path class="cls-34" d="M19.49,80.8c.37,0,.37.56,0,.56s-.37-.56,0-.56Z"/>
      <path class="cls-34" d="M23.71,81.36c-.28-.22-.34-.28-.56-.56l.56.56Z"/>
      <path class="cls-34" d="M24.84,81.93c-.25-.15-.54-.19-.56-.56.29.11.52.22.56.56Z"/>
      <path class="cls-34" d="M26.53,83.05c-.8-.46-.96-1.01-1.13-1.13l1.13,1.13Z"/>
      <path class="cls-34" d="M27.66,83.62c-.46-.25-.53-.54-.56-.56l.56.56Z"/>
      <path class="cls-34" d="M28.78,84.18c-.36-.19-.5-.53-.56-.56l.56.56Z"/>
      <path class="cls-34" d="M32.17,85.87c-.58-.25-.53-.55-.56-.56l.56.56Z"/>
      <path class="cls-34" d="M36.67,87.56c-.52-.19-.53-.55-.56-.56l.56.56Z"/>
      <path class="cls-34" d="M37.8,88.13c-.6-.21-.53-.55-.56-.56l.56.56Z"/>
      <path class="cls-34" d="M39.49,88.69c-.6-.21-.53-.55-.56-.56l.56.56Z"/>
      <path class="cls-34" d="M41.18,89.25c-.6-.2-.53-.55-.56-.56l.56.56Z"/>
      <path class="cls-34" d="M42.87,89.82c-.6-.18-.53-.55-.56-.56l.56.56Z"/>
      <path class="cls-34" d="M44.56,90.38c-.61-.16-.53-.55-.56-.56l.56.56Z"/>
      <path class="cls-34" d="M42.87,92.07l-.56-.56c.38.12.53.55.56.56Z"/>
      <path class="cls-34" d="M128.51,92.07c-.6-.15-.52-.55-.56-.56l.56.56Z"/>
      <path class="cls-34" d="M172.46,92.07c0-.35.25-.51.56-.56,0,.35-.25.5-.56.56Z"/>
      <path class="cls-34" d="M125.13,93.2l-.56-.56c.61.14.52.55.56.56Z"/>
      <path class="cls-34" d="M133.02,93.2c-.62-.15-.52-.55-.56-.56l.56.56Z"/>
      <path class="cls-34" d="M126.82,93.76l-.56-.56c.6.14.52.55.56.56Z"/>
      <path class="cls-34" d="M135.27,93.76c-.6-.14-.52-.55-.56-.56l.56.56Z"/>
      <path class="cls-34" d="M129.08,94.32l-.56-.56c.61.15.52.55.56.56Z"/>
      <path class="cls-34" d="M133.58,95.45l-.56-.56c.61.15.52.55.56.56Z"/>
      <path class="cls-34" d="M135.84,96.01l-.56-.56c.61.14.52.56.56.56Z"/>
      <path class="cls-34" d="M138.09,96.58l-.56-.56c.61.12.52.56.56.56Z"/>
      <path class="cls-34" d="M38.36,103.9c.22-.51.55-.53.56-.56l-.56.56Z"/>
      <path class="cls-34" d="M37.8,105.03c.26-.47.55-.53.56-.56l-.56.56Z"/>
      <path class="cls-34" d="M37.24,106.15c.2-.28.5-.47.56-.56l-.56.56Z"/>
      <path class="cls-34" d="M34.42,109.54c.32-.28,1.33-1.31,1.69-1.69l-1.69,1.69Z"/>
      <path class="cls-34" d="M32.73,110.66c.21-.84.74-.79,1.13-1.13l-1.13,1.13Z"/>
      <path class="cls-34" d="M31.6,114.61c.23-.5.55-.53.56-.56l-.56.56Z"/>
      <path class="cls-34" d="M31.04,115.73c.25-.48.55-.53.56-.56l-.56.56Z"/>
      <path class="cls-34" d="M29.91,117.42c.42-.8,1.09-1.06,1.13-1.13l-1.13,1.13Z"/>
      <path class="cls-34" d="M29.35,118.55c.19-.36.53-.5.56-.56l-.56.56Z"/>
      <path class="cls-34" d="M16.39,140.52s-.42.04-.56-.56l.56.56Z"/>
      <path class="cls-34" d="M25.4,132.07l-.56-.56s.43-.03.56.56Z"/>
      <path class="cls-34" d="M24.84,130.38l-.56-.56s.34-.03.56.56Z"/>
      <path class="cls-34" d="M24.28,129.26l-.56-.56c.16.17.36.24.56.56Z"/>
      <path class="cls-32" d="M120.51,196.76c-1.83,1.86-8.38-.27-10.86-.47-5.03-.4-9.62,1.3-13.52,1.17-1.68-.05-3.84-1.02-5.64-1.17-4.95-.43-8.48.69-13.01,1.09-1.13.1-6.34.25-5.87-1.92.26-1.21,6.21-2.87,7.71-3.56,3.94-1.81,9.09-5.52,13.42-5.19,3.52.27,5.39-.09,8.45-.03,4.23.09,8.49,3.47,12.28,5.22,1.34.62,7.55,2.39,7.62,3.55,0,.07-.47,1.2-.58,1.31Z"/>
      <path class="cls-51" d="M43.43,106.72c8.66-2.43,17.69-3.66,26.63-2.12,4.01.69,8.74,1.33,8.91,6.35.1,3.19-.83,3.4-3.66,3.04-11.33-1.41-16.72-4.44-29.36-3.35-2.64.23-5.32,1-8.16.58.23-.24-.92-1.18.25-2.26.85-.79,4.14-1.9,5.38-2.25Z"/>
      <path class="cls-28" d="M133.58,103.9c.74.01,1.52-.06,2.25,0l1.13.56c.92.07,1.93-.11,2.82,0l1.13.56c.34.07.8-.08,1.13,0l.56.56c.32.08.8-.08,1.13,0l1.13.56c.32.08.8-.08,1.13,0l.56.56c.32.08.78-.07,1.13,0l1.69.56c.11.04.45.03.56,0h1.13c.19.01.38-.03.56,0,1.05.18,1.99.56,2.82,1.13h.56c-.11.09.6,2.2,0,2.82-1.77-.08-3.61.14-5.36.01-6.43-.48-10.69-1.44-17.41-.53-4.33.59-13.98,3.9-17.45,3.36-1.56-.24-1.25-6.34,1.75-7.79.88-.43,4.77-1.6,5.8-1.81,1.22-.45,2.53-.63,3.94-.56.19-.02.38.01.56,0,2.19-.57,4.6-.47,6.76,0Z"/>
      <path class="cls-54" d="M70.48,122.49c.64.04,2.88.34,3.25.69,1.11,2.28,5.39,6.02,4.57,8.53-.41,1.28-2.93,1.65-4.14,1.48-.52-.08-.8-.55-.86-.56l-.59-1.24c2.85-.92-.61-5.31-1.25-4.88-.66,3.36-1.27,5.85-4.92,6.68-1.53.22-3.37,1.51-5.34,1.7-4.93.48-10.04-1.78-13.78-4.84-3.53-2.89-2.7-2.52.37-4.07.37-.19.6-.63.72-.68,3.44-1.98,8.45-4.68,12.04-3.02,3.36-.33,6.67-.26,9.94.2Z"/>
      <path class="cls-18" d="M121.75,122.49c3.84-.47,7.72-.56,11.66-.25,2.99-1.14,7.02.74,9.75,2.51.13.05.35.53.73.68,1.12.43,2.9.88,3.78,1.58.33,1.21-.42,2.33-2.25,3.38-4.16,2.11-5.89,3.46-10.71,4.51-2.39.3-7.85.68-7.89-2.25-3.4,1.99-5.09-3.45-5.6-6.26-2.28,1.78-2.68,3.36-1.73,5.69,1.25,1.2.69,1.57-1.69,1.13-2.23-.64-4.48.46-3.28-3.57.06-.21,2.15-3.34,2.46-3.73,1.28-1.64,2.66-3.21,4.76-3.41Z"/>
      <path class="cls-21" d="M84,161.93c.89.02,2.54.12,2.25,1.4-.23,1.01-1.79.69-2.25.85-.98,1.23-1.3,2.52-.97,3.87l-.73,1.21c.12.49,3.13,1.07,3.94,1.13.57-2.91,5.57-.82,2.82,1.13-1.33,2.39-6.37,1.87-7.92.31-2.5-2.51-2.16-7.16.59-9.33-.18-1.88,1.48-2.28,2.25-.56Z"/>
      <path class="cls-38" d="M48.5,125.31c3.05-2.97,6.79-4.49,10.97-5.08.84-.12,4.1-.55,4.52-.55h8.17c.24.48-.48,1.69-.85,1.69h-11.55c-.13.98,1.29.55,1.97.56,1.88.04,3.76-.02,5.64,0,.94,0,2.56-.4,3.1.56-7.2-.44-15.26.06-21.97,2.82Z"/>
      <path class="cls-10" d="M143.16,124.75c-6.04-2.19-14.97-2.86-21.41-2.25.53-.96,2.16-.56,3.1-.56,2.25-.02,4.51.05,6.76,0,.68-.01,2.1.42,1.97-.56h-10.99c-.1,0-1.89-.51-1.97-.57-.05-.03-.05-1.12,0-1.12h9.3c.13,0,.6.48,1.15.54,4.54.52,8.86.66,12.1,4.53Z"/>
      <path class="cls-26" d="M66.53,133.2c1.1-1.15,2.28-1.99,2.94-3.55.36-.87.95-4.31,1.31-4.36.44-.07,1.56-.09,1.87.12.23.15,2.82,4.43,2.81,4.7-.03.51-1.98,1.65-2.15,2.53-.34-.06-5.99.45-6.76.56Z"/>
      <path class="cls-55" d="M77.8,134.33c.2,1.2-.49,1.38-1.41,1.68-2.55.84-8.78,2.51-11.3,2.78-3.51.37-7.53-1.03-10.94-1.65-.02-.97,2.51-.64,3.12-.59,1.21.1,2.3.55,3.34.6,6.33.3,11.11-1.72,17.19-2.83Z"/>
      <path class="cls-49" d="M138.65,136.58l-3.78,1.57c-5.94,1.19-9.19.25-14.82-1.28-.89-.24-5.05-1.13-5.06-1.7.83-1.23,1.22-.7,2.26-.58,3.23.38,6.5,2.24,9.84,2.56,3.95.38,7.65-.8,11.56-.57Z"/>
      <path class="cls-24" d="M111.61,161.37c1.76,1.95,1.32,7.12-1.13,7.89-.45-.12-1.51.16-1.69,0-.31-.27.24-6.79,0-8.17-.15-.84-2.55-3.73.29-3.69,1.58.02,2.37,2.62,2.52,3.97Z"/>
      <path class="cls-5" d="M110.48,169.26c.71-2.79,1.48-4.81,1.13-7.89,2.8.98,4.09,8.96,1.36,9.56-.9.2-1.54-1.43-2.49-1.67Z"/>
      <path class="cls-39" d="M107.1,168.13c1.51,1.47-4.03,3.97-5.35,3.99-2.6.04-2.62-2.18-.44-3.3,1.78-.92,3.86-.69,5.79-.69Z"/>
      <path class="cls-11" d="M119.5,132.07l1.18-.64c2.34,1.23,4.39,1.63,6.14,1.21,2.67,1.46,4.47,2.82,7.89,2.25-5.99,1.3-11.11-.03-16.9-1.69.83.04,1.48-.31,1.69-1.13Z"/>
      <path class="cls-35" d="M89.07,171.51c-.16-.24-.03-1.53-.82-1.59-.28-.02-1.13.52-1.99.46l-.28-2.26c1.64-.46,7.76.46,7.04,3.1-.6,1.23-3.39,1.08-3.94.29Z"/>
      <path class="cls-27" d="M84,161.93c-.78-.01-1.63.07-2.25.56-1.03.69-1.51.96-.9-.62.38-1,1.47-4.14,2.36-4.41.71-.22,1.77.19,1.93.81.33,1.24-1.53,2.24-1.13,3.66Z"/>
      <path class="cls-22" d="M84,164.19v5.07s-1.69,0-1.69,0c-.68-2.86-1.35-4.03,1.69-5.07Z"/>
      <path class="cls-16" d="M133.58,103.9c-2.17-.03-4.63-.16-6.76,0,1.54-1.17,4.43-.42,6.4-.47l.36.47Z"/>
      <path class="cls-16" d="M145.42,130.38c.56-1.31,2.29-1.83,2.25-3.38,1.9,1.5-1,2.75-2.25,3.38Z"/>
      <path class="cls-16" d="M126.26,103.9c-.73.07-3.12.4-3.94.56.74-1.11,2.72-.39,3.94-.56Z"/>
      <path class="cls-16" d="M154.43,108.41l-2.42-.68-.4-.45c1.03.17,2.41-.42,2.82,1.13Z"/>
      <path class="cls-16" d="M149.36,107.28l-1.31-.09-.38-.47c1.03.2,1.24.42,1.69.56Z"/>
      <path class="cls-16" d="M136.96,104.46c-.27-.02-.54,0-.79-.09l-.33-.47c.27.02.54,0,.79.09l.33.47Z"/>
      <path class="cls-16" d="M140.91,105.03l-.79-.09-.33-.47c1.14.14,1.06.55,1.13.56Z"/>
      <path class="cls-16" d="M144.85,106.15l-.79-.09-.33-.47c.95.24,1.06.55,1.13.56Z"/>
      <path class="cls-16" d="M151.05,107.28h-1.13c1.32-.36.6-.04,1.13,0Z"/>
      <path class="cls-16" d="M142.6,105.59l-.56-.56c.6.14.52.55.56.56Z"/>
      <path class="cls-16" d="M146.54,106.72l-.56-.56c.6.15.52.55.56.56Z"/>
      <path class="cls-25" d="M18.64,135.45c1.37-.12,1.46.82,1.99,1.68,2.13,3.48,3.5,7.58,5.06,11.28,1,2.37,2.83,4.29,2.52,7-.07.61-.86,3.36-1.11,3.88s-1.14.32-1.08.62c.25,1.19.87,2.28.52,3.7-.34-.52-.78-.43-1.29-1.8-2.95-7.92-2.87-18.6-6.59-26.37Z"/>
      <path class="cls-47" d="M31.6,170.95c.05,2.1,2.22,3.29.6,5.39-2.68,3.46-5.98-5.73-.6-5.39Z"/>
      <path class="cls-33" d="M165.07,170.45c.88,1.23-.37,5.59-2.59,6.04-4.35.88-2.25-5.93.22-6.6.46-.13,2.24.38,2.37.56Z"/>
      <path class="cls-14" d="M65.97,46.99l3.23-1.94c.91-.53,2.46-1.15,2.99.07-1.43,9.59,5.3-.09,7.39-3.26,1.96-1.2,8.4-1.84,7.23,1.73-9.41,5.54-6.73,7.57,8.03,6.1,11.86-1.92,23.72-2.9,35.57-2.93,5.56-.93-5.29-5.87-6.84-6.17-1.95-1.4-2.92-2.35-.17-3.15.72-.21,12.61,4.69,13.82,5.5,5.75,3.87,4.03,12.35-3.9,11.71-20.89.4-41.7,3.56-62.49,7.59l-1.67-.27c-2.66-3.07-5.22-6-7.69-8.78-1.88-3.07,1.95-5.26,4.51-6.2Z"/>
      <path class="cls-53" d="M119.5,37.98c1.26-.52,2.58.33,3.95,2.54l5.56,2.45c1.68.72,4.21,2.32,1.91,3.66-11.72.09-23.45,1.08-35.2,2.99-15.16,1.54-18.23-.41-9.2-5.85,1.63-4.24-6.62-3.42-8.16-.47-3.99,8.72-9.69,6.46-5.06-.81,1.04-4.04,1.44-5.09.17-9.47-1.09-3.78-3.2-5.67-6-8.09-1.69-1.46-1.04-2.81,1.03-2.77,3.36.08,9.13,3.08,11.84,5.11,1.14.86,1.96,2.57,3.38,2.81,6.06,1.04,12.22-2.2,17.71-3.98.43-4.09-.69-8-1.97-11.77-.67-1.98,1.08-2.02,2.59-.89,4.54,3.42,5.33,7.55,8.18,11.54.69.96,1.82,1.65,2.5,2.57,2.75,3.72,3.27,7.17,6.77,10.42Z"/>
      <path class="cls-46" d="M126.82,37.98l.56.56c.3.1.83-.1,1.13,0l.56.56c1.12.4,3.1.77,3.94,1.13l.56.56c.47.21,1.07.27,1.69.56l.56.56c.4.22,1.21.18,1.89.63,2.07,1.4,3.25,3.28,3.23,5.85,0,.77-.6,4.34-.88,4.8-.51.83-3.49,1.41-4.58,1.62-6.33,1.22-13.28.58-19.71,1.14-11.86,1.03-25.86,3.1-37.66,5.17-2.91.51-5.89,2.36-8.82,1.39-2.12-.71-6.55-7.19-7.85-9.33.18-1.04,1.77.32,1.95.58.36.51.36,1.34.85,1.97.84,1.09,2.7,2.52,3.24,3.23,1.03,1.35-.09,2.72,3.25,2.71,10.06-1.97,20.24-3.2,30.38-4.6,4.17-.58,8.88-1.78,13.05-2.16,6.96-.63,17.18.52,23.46-1.89.33-.13,1.96-.97,2.03-1.06.28-.39.19-4.38-.02-5.15-1.38-5.07-11.83-6.5-15.94-8.86-1.43-.22-1.06,1.27-.29,1.98.9.83,4.96,1.95,6.59,2.99,1.02.65,3.25,2.09,2.17,3.53-1.27,1.7-4.54.44-6.24.49-11.31.27-22.56,2.88-33.79,3.44-2.74.14-8.16.39-10.65.02-.37-.06-.77-1.21-.82-1.56-.4-2.65,5.43-5.09,5.54-5.51.7-2.51-4.58-2.15-6.49-.85-2.15,1.45-3.87,8.24-7.21,7.28-2.63-.75.02-3.93-1.82-4.44-1.37-.38-2.4,1.18-3.48,1.57-.49.18-1.03.02-1.28.11,1.82-2.11,4.83-3.34,7.32-4.51-.15.59.16,1.53-.12,2.4-.19.61-.92,1.02-1.03,1.83-.27,2.16,1.08,2.44,2.51.8,1.68-1.93,3.17-4.44,4.81-6.45,3.76-.46,7.02-2.48,8.47,2.25-.15.68-5.04,2.64-5.94,4.25-.18.33.25,1.66.66,1.72,2.53.36,7.91.14,10.65-.01,7.87-.45,15.78-2.38,23.64-2.84,3.85-.22,8.08.36,11.86.03,1.02-.09,3.35-.4,2.25-1.72-.77-.92-5.6-2.58-7.24-3.47-1.93-1.06-2.83-1.88-4.33-3.28,1.26-2.35,5.2-.68,7.32,0Z"/>
      <path class="cls-14" d="M127.39,38.54l-.56-.56c.47.15.53.55.56.56Z"/>
      <path class="cls-14" d="M129.08,39.11l-.56-.56c.6.21.53.55.56.56Z"/>
      <path class="cls-14" d="M133.58,40.8l-.56-.56c.56.24.53.55.56.56Z"/>
      <path class="cls-14" d="M135.84,41.92l-.56-.56c.39.18.49.53.56.56Z"/>
      <path class="cls-9" d="M111.61,194.05c-1.66.21-3.13-.5-4.76-.59-5.16-.28-10.13,1.26-15.21,0l-10.45.31c2.46-.77,7.09-3.93,9.33-4.22,1.88-.24,4.8.74,7.32.58,1.39-.08,2.65-.68,3.91-.63,1.78.06,4.16,1.83,5.92,2.58,1.27.54,3.34.28,3.95,1.97Z"/>
      <path class="cls-12" d="M60.9,125.31c.81.81.57,1.29-.56,1.13.37,2.96,5.29,4.07,2.82.56-.29-.75.46-1.31,2.25-1.69.7.1,1.53-.08,2.26,0,.94,8.06-9.91,8.42-10.15.57,1.19.16,2.26-.36,3.38-.56Z"/>
      <path class="cls-1" d="M55.26,125.88c-1.21,3.02,1.64,4.1,2.25,6.76-5.58-.63-10.83-5.26-2.25-6.76Z"/>
      <path class="cls-31" d="M65.41,125.31c.31,1.57-.53,1.03-1.86,1.24l-.4.45c-.85,1.56-2.64,1.21-2.82-.56.16-.38.41-.74.56-1.13,2.42-.43,2.17-.34,4.51,0Z"/>
      <path class="cls-36" d="M119.5,132.07c-.75-.45-2.22-1.41-2.02-2.27.1-.42,2.47-4.25,2.68-4.39.31-.21,2.08-.18,2.15-.09.1.15.33,2.53.7,3.53.25.67,1.12,2.36,1.54,2.83.84.91,1.62.6,2.28.96.31,1.64-.85,1.22-1.92,1.08-1.81-.25-3.85-.71-5.41-1.64Z"/>
      <path class="cls-44" d="M127.39,125.31c.58.36,1.41.64,2.48.85l-.23.84-.28,1.17c-2.3,1.11,3.88,1.57,2.53-1.73-1.52-.18-1.43-.65,0-1.13,1.13.19,2.25.46,3.38.56-.21,7.77-11.24,7.72-10.15-.57.74-.06,1.53.09,2.26,0Z"/>
      <path class="cls-41" d="M142.59,127.58c1.81,1.65-6.1,5.72-7.87,5.05l3.16-4.49-.34-2.26c.28-.26,4.75,1.42,5.06,1.71Z"/>
      <path class="cls-48" d="M131.89,125.31c.06.31-.09,1.05,0,1.13.74,1.77-1.73,2.31-2.25.56l-.4-.45c-1.33-.21-2.17.34-1.86-1.24,2.32-.28,2.21-.39,4.51,0Z"/>
      <path class="cls-45" d="M116.68,38.54c-2.39.17-2.53-2.3-5.29-1.7-.4.09-.28.82-.51.97-.41.28-1.05.07-1.37.29-.59.4-1.24,2.89-2.42,3.53-4.1,2.25-13.45,0-18.02-.84-.29-.26,1.87-3.75,2.25-4.23,1.47-1.89,7.25-7.44,9.3-8.22,1.06-.4,2.41.13,2.51.05,1.38-1.13.11-8.2.03-10.14,1.04,1.07,2.57,3.06,3.29,4.31,1.8,3.12,1.65,3.34,4.05,6.1,2.59,2.98,3.54,6.93,6.18,9.87Z"/>
      <path class="cls-23" d="M91.89,31.79c-1.23,1.08-3.42,5.36-4.49,5.93s-5.77.43-7.92,1.09c-1.15.36-1.83.78-2.79,1.43.06-5.42-1.2-10.71-5.07-14.65,1.34-.16,2.46.63,3.56,1.23,2.06,1.12,6.15,5.11,7.54,5.42,2.72.61,6.45-.02,9.19-.45Z"/>
      <path class="cls-20" d="M124,43.62l-5.34,1.13c-6.09-.5-12.03,1.08-18.03,1.69-4.78.49-9.61.38-14.38,1.11,1.02-1.28,4.58-3.61,6.04-3.86s5.94.96,7.76,1.06c3.9.21,7.69.02,10.13-3.41.45-.64.81-2.23,1.18-2.26,2.2-.2,9.74,4.39,12.64,4.54Z"/>
      <path class="cls-37" d="M63.15,127c1.01.11,2.44-.61,2.26.85-.51,4.15-5.92,2.35-5.68-.58.05-.64.57-.76.6-.84.93.29,1.84.46,2.82.56Z"/>
      <path class="cls-8" d="M131.89,126.44c.22.18,1.82-.58,1.04,1.88-.72,2.28-5.09,2.66-5.49,0-.23-1.49,1.47-1.17,2.2-1.33s1.56.04,2.25-.56Z"/>
    </g>
    <path class="cls-19" d="M877.12,176.26l-82-1c-.47-3.04.73-1.61,2.48-1.99s9.39-1.38,9.57-2.63v-97.81c-.35-2.24-11.2-.13-12.05-3.57l77-1.01c.74,9.36,2.12,18.6,2,28-1.78.35-2.56-.86-3.22-2.27-1.98-4.24-2.06-9.62-4.93-14.07s-6.39-5.64-11.42-6.58c-2.15-.4-6.67-.95-8.9-1.1-7.33-.49-15.14.4-22.52.02v45h15.5c.85,0,4.79-1.75,6.56-1.44,3.01-.94,4.77-4.51,5.68-7.32s1.51-11.08,2.27-12.24c2.04-3.12,3.06,5.49,3.06,6.51-.05,9.09-1.56,18.39-1.08,28.02.11,2.15,2.13,10.18,1.02,11.48-.1.12-2.58.44-3.05-.6-2.35-5.23-.26-13.13-5.25-18.1-2.34-2.33-4.45-1.87-7.13-2.37-.95-.18-1.91-.93-2.07-.93h-15.5v52c7.14-.25,14.38.33,21.52.02,4.47-.19,11.64-.54,15.91-1.09,7-.9,10.32-6.65,12.1-12.9.99-3.47.33-10.92,4.46-11.04v29Z"/>
    <path class="cls-40" d="M308.12,73.76c-.79-2.88-10.1-2.38-12.51-2.5-1.94-.09-1.57.11-1.48-1.99,4.88-1.98,10.47-.03,15.4-.06,3.63-.02,7.37-1.43,12.04-.89.8.09,5.43,1.23,3.55,2.94-.54.49-10.73-.7-13,1v104l-3.04-.63-60.96-90.37v86c4.4,2.53,13.47-1.64,14,4h-33c-.6-2.1.97-2.47,2.72-2.76,2.13-.35,11.07.19,11.33-1.87.35-2.71.85-6.21,1-8.83,1.25-21.5,1.29-53.02-.97-74.12-.46-4.33.31-8.47-2.59-12.41s-6.84-2.6-10.93-3.07c-1.7-.2-4.29-.67-3.55-2.94h28.5c17.14,22.37,31.15,47.64,47.67,70.33,1.64,2.26,3.47,5.2,5.83,6.67v-72.5Z"/>
    <path class="cls-40" d="M981.12,177.26c-.08.13-2.9.11-2.99,0-1.14-1.32.91-10.23,1.02-12.48.15-3.28-.73-20.71-.02-21.53.1-.11,2.9-.12,2.98,0,.59.89,1.88,10.17,2.73,12.78,1.7,5.21,4.82,10.45,9.33,13.67,8.06,5.76,23.42,6.43,29.96-1.95,3.89-4.98,4.88-13.48,3.55-19.56-5.04-22.99-43.58-21.21-47.31-47.69-2.7-19.19,12.84-35.42,32.18-33.18,3.41.4,16.03,5.75,17.64,4.5,1.06-.82,1.08-5.31,3.43-4.57,2.79.88.54,4.69.48,6.48-.21,6.26.69,11.2,1.07,17.02.34,5.24-2,5.78-3.78.75-2.96-8.36-4.85-14.96-13.54-19.46-9.09-4.7-23.13.16-24.68,10.75-3.92,26.84,22.5,27.46,37.99,40.94,23.26,20.25,6.58,51.85-21.5,53.54-4.96.3-10.53-1.3-15.31-2.73-2.25-.68-9.41-4.21-10.75-4.1-2.44.2-2.18,6.37-2.47,6.82Z"/>
    <path class="cls-19" d="M697.57,168.2c-1.38,2.03,1.58,5.41-.96,6.05-2.36.6-6.24-2.63-7.36-4.63-2.65-4.75-2.27-13.21-3.23-18.77-3.27-18.86-9.91-28.78-29.9-31.61l13.99-3.49c18.59-5.01,26.55-29.83,9.35-41.35-1.89-1.26-11.1-5.15-12.85-5.15h-49.5c-.47,3.06.76,1.6,2.48,1.98,2.81.63,5.5,1.21,8.41,1.12-.07.87,1.11,2.15,1.11,2.4v96c0,1.11-7.87,2.55-9.5,2.55-1.59,0-8.1-.89-9.8-1.25-1.39-.29-2.81-1.19-3.59-2.41l-37.03-100.99c.56-1.69-1.73-1.84-2.06-1.41-.78,1-1.85,7.1-2.52,8.99-10.77,30.46-22.2,60.72-32.72,91.28-3.55,6.37-8.86,3.86-14.77,5.74-.3.25,1.11,1.89,1.5,1.99h32.5c.6-2.1-.97-2.47-2.72-2.76-3.8-.63-10.64,1.36-10.88-3.72-.29-5.99,7.65-20.97,9.17-27.58l33.37.12c.12,5.4,9.08,24.72,7.99,28.33-1.17,3.89-12.41,1.86-15.29,2.75-1.27.39-1.9,1.55-1.64,2.86h87c.1,0,.08-1.94,0-2-1.97-1.41-10.13-.46-13-2v-51c5.19.27,11.92,1.23,16.34,4.16,11.13,7.36,4.92,31.14,13.2,42.8,5.31,7.47,17.75,12.99,26.41,8.51,7.73-4-.15-12.45-3.51-7.51ZM548.12,137.26l13.79-40.73,2.21-1.28,14,42h-30ZM645.12,74.76c0-2.54,8.74-2.66,10.55-2.54,15.72,1.09,18.09,14.97,16.2,28.29-1.97,13.91-14.61,16.76-26.75,16.75v-42.5Z"/>
    <path class="cls-43" d="M512.9,140.97c-2.46-15.09-19.28-21.11-32.78-21.72l16.04-5.46c18.19-8.88,18.37-34.25-1.34-41.74-12.85-4.88-34.06-2.5-48.25-2.75-1.91-.03-3.53-.93-4.96-.94-.84,0-6.55,1.11-4.49,2.88.47.41,10.41.05,12.05,2.61-.4,32.46.56,65.07-.49,97.45-1.25,1.87-8.85.24-11.56,1.95-.3.25,1.11,1.89,1.5,1.99h44c1.95,0,10.44-2.36,12.78-3.22,13.96-5.13,19.9-16.36,17.5-31.06ZM465.12,72.26h14.5c.97,0,5.9,2.1,7.02,2.98,2.02,1.6,3.41,4.34,4.25,6.75,2.39,6.85,2.78,15.18.53,22.06-4.04,12.41-14.71,13.51-26.3,13.2v-45ZM497.17,149.8c-1.33,17.66-15.39,25.75-32.04,21.46v-51c21.08-1.06,33.73,7.17,32.04,29.54Z"/>
    <path class="cls-17" d="M767.12,122.76c-5.18-2.03-11.47-3.17-16.99-3.51-.29-1.48,1.13-1.01,2.21-1.27,4.55-1.1,8.86-1.79,13.16-3.85,11.59-5.55,16.88-16.43,13.17-28.92-.53-1.79-3.64-6.65-5.02-7.98-11.84-11.37-42.25-7.6-58.06-7.93-1.93-.04-3.51-.92-4.98-.96-1.21-.03-5.16,1.38-3.47,2.9.44.4,10.24.03,11.56,1.94.72,32.55.73,65.55,0,98.12-1.25,1.87-8.85.24-11.56,1.95-.3.25,1.11,1.89,1.5,1.99h44c2.26,0,12.53-2.87,15.04-3.96,21.43-9.31,21.02-40.08-.55-48.53ZM735.12,72.26c16.46-.81,26.18.07,27.91,18.58,1.8,19.22-9.41,28.05-27.91,26.42v-45ZM735.12,171.26v-51c15.81-.54,30.66,3.21,32.04,21.46,1.64,21.62-10.01,34.35-32.04,29.54Z"/>
    <path class="cls-43" d="M964.58,168.22c-1.06,1.53.15,2.48.36,3.77.52,3.24-3.87,1.83-5.75.7-5.04-3.06-4.26-10.97-5.15-15.85-3.77-20.87-6.76-34.33-30.91-37.59l13.24-3.25c15.97-4.49,25.98-22.12,15.18-36.67-3.51-4.73-12.17-9.27-17.92-10.08h-49.5c-.1,2.27-.41,1.85,1.51,1.97,2.98.2,10.06.27,10.51,3.51l.03,94.06c.32,4.68-5.67,3.31-9.68,4.37-1.73.45-2.83-.84-2.37,2.09h41c.41-2.6-.38-1.8-2.2-2.26-2.5-.62-10.8-.53-10.8-3.24v-49.5c6.72.22,17.3,2.25,20.87,8.63,6.03,10.76.62,27.59,9.7,39.3,5.12,6.6,16.83,11.73,24.71,7.85,8.83-4.35.56-12.7-2.83-7.81ZM912.12,75.76c0-2.42,3.46-3.34,5.47-3.53,17.93-1.69,22.85,9.45,21.57,25.57-1.27,16.04-12.84,19.34-27.04,19.46v-41.5Z"/>
    <path class="cls-3" d="M385.92,70.96c-8.42-2.61-17.36-1.98-25.94-2.26-9.58-.31-19.36-1.23-28.87.56-.82,3.44,4.11,1.68,6.47,2.03,2.74.41,5.76,2.38,5.59,5.41v93.93c-.2,1.33-7.72,2.02-9.68,2.52-1.74.45-2.82-.82-2.37,2.09h41c.6-2.09-.97-2.48-2.71-2.76-2.9-.47-6.79.48-8.86-1.17-2.32-1.85-1.12-4.94-1.46-7.54-.12-.96-.95-1.73-.97-2.03-1-12.04,0-26.63,0-39,0-2.06,3.36-.49,4.46-.47,9.01.15,16.62.83,24.91-3.16,21.1-10.14,21.87-40.91-1.57-48.17ZM379.07,114.7c-3.32,2.36-18.2,7.07-20.51,3.61-.96-1.44-.76-30.41-.46-34.58.11-1.55,1.11-8.71,1.5-9.5.76-1.55,4.58-2.62,6.3-2.79,4.73-.46,13.6,1.92,16.69,5.83,7.12,9.01,6.41,30.35-3.53,37.42Z"/>
  </g>
</svg>